<svg xmlns="http://www.w3.org/2000/svg" viewBox="0 0 413.6 349.13"><defs><style>.cls-1{fill:#d0ce68;}.cls-1,.cls-12,.cls-13,.cls-4,.cls-5,.cls-6,.cls-7,.cls-8,.cls-9{fill-rule:evenodd;}.cls-2,.cls-4{fill:#ffffea;}.cls-3,.cls-5{fill:#ff957f;}.cls-6{fill:#1a1a1a;opacity:0.15;}.cls-7{fill:#629a9b;}.cls-11,.cls-8{fill:#fff;}.cls-10,.cls-9{fill:#85b6b7;}.cls-12{fill:#468a8e;}.cls-13,.cls-14{fill:#ffe5df;}</style></defs><title>Asset 37</title><g id="Layer_2" data-name="Layer 2"><g id="Layer_1-2" data-name="Layer 1"><path class="cls-1" d="M41.89,142.39,11.57,91c-25-42.27-9.51-91,45.86-91s70.81,48.79,45.86,91.06L73,142.39Z"/><path class="cls-2" d="M103.87,25.63l2.87-2.87c.43.65.84,1.31,1.23,2l-2.5,2.5,6.63,6.63c.49,1.47.92,3,1.28,4.49l-.17-.17-7.74,7.74,7.74,7.74L114.87,52q0,3.06-.34,6.18l-1.32-1.32-7.74,7.74L112,71.13c-.24.82-.49,1.63-.76,2.45l-7.37-7.37V63l7.74-7.74-7.74-7.74V44.32l7.74-7.74-7.74-7.74V25.63Zm0,56.06,7-7q-.88,2.58-2,5.17l-3.44,3.44,1.3,1.3q-.52,1.07-1.07,2.13l-1.83-1.83ZM99.19,14l.45.42-.45.45V14Zm0,7,4.67,4.67v3.21l-4.67,4.67V30.3l3.07-3.07-3.07-3.07V21Zm4.67,45.25-4.67,4.67V67.68l3.07-3.07-3.07-3.07V58.33L103.87,63v3.21ZM99.19,77l4.67,4.67V84.9l-4.67,4.67V86.36l3.07-3.07-3.07-3.07V77Zm0,18.68.85.85L99.19,98V95.7Zm4.67-51.38v3.21L99.19,52.2V49l3.07-3.07-3.07-3.07V39.65Zm-9.34-28,3.42-3.42q.64.53,1.25,1.09v.87L96.13,17.9,99.19,21v3.21L94.52,19.5V16.29Zm4.67,54.59L96.13,74,99.19,77v3.21l-4.67-4.67V72.35l4.67-4.67v3.21Zm0,18.69-3.07,3.07,3.07,3.07V98l-.34.57-4.33-4.33V91l4.67-4.67v3.21Zm0-59.27v3.21l-3.07,3.07,3.07,3.07v3.21l-4.67-4.67V35l4.67-4.67Zm0,18.69V52.2l-3.07,3.07,3.07,3.07v3.21l-4.67-4.67V53.66ZM89.85,11.62l4.67,4.67h0V19.5h0l-4.67,4.67V21l3.07-3.07-3.07-3.07V11.62Zm4.67,82.62-4.67,4.67V95.7l3.07-3.07-3.07-3.07V86.36L94.52,91v3.21ZM89.85,105l3.26,3.26-1.19,2-2.07-2.07V105ZM94.52,35v3.21l-4.67,4.67V39.65l3.07-3.07-3.07-3.07V30.3L94.52,35Zm0,18.69v3.21l-4.67,4.67V58.33l3.07-3.07L89.85,52.2V49l4.67,4.67Zm0,18.69v3.21l-4.67,4.67V77L92.92,74l-3.07-3.07V67.67ZM85.18,6.95l1.27-1.27c.74.33,1.46.68,2.16,1L86.78,8.55l3.07,3.07v3.21l-4.67-4.67V6.95Zm4.67,92L86.78,102,89.85,105v3.21l-4.67-4.67v-3.21l4.67-4.67v3.21Zm-4.67,20.15L89,115.21l-3.86,6.53v-2.67ZM89.85,21v3.21l-3.07,3.07,3.07,3.07v3.21l-4.67-4.67V25.63L89.85,21Zm0,18.69v3.21l-3.07,3.07L89.85,49V52.2l-4.67-4.67V44.32l4.67-4.67Zm0,18.69v3.21l-3.07,3.07,3.07,3.07v3.21l-4.67-4.67V63l4.67-4.67Zm0,18.69v3.21l-3.07,3.07,3.07,3.07v3.21L85.18,84.9V81.69Zm-9.34-65.4,3.07-3.07L80.51,5.48V3.38l1.67.57,3,3v3.21l-4.67,4.67V11.62Zm4.67,92-4.67,4.67V105L83.58,102l-3.07-3.07V95.7l4.67,4.67v3.21Zm-4.67,10.81,4.67,4.67v2.67l-.77,1.3-3.9,3.9v-3.21l3.07-3.07-3.07-3.07v-3.21Zm4.67-88.76v3.21l-4.67,4.67V30.3l3.07-3.07-3.07-3.07V21l4.67,4.67Zm0,18.69v3.21L80.51,52.2V49l3.07-3.07-3.07-3.07V39.65l4.67,4.67Zm0,18.68v3.21l-4.67,4.67V67.68l3.07-3.07-3.07-3.07V58.33L85.18,63Zm0,18.69V84.9l-4.67,4.67V86.36l3.07-3.07-3.07-3.07V77Zm-9.34-65.4,4.67-4.67v3.21L77.44,17.9,80.51,21v3.21L75.84,19.5V16.29ZM80.51,5.48l-3-3q1.53.41,3,.88v2.1Zm0,102.77-3.07,3.07,3.07,3.07v3.21l-4.67-4.67v-3.21L80.51,105v3.21Zm0,18.69L77.44,130l1.79,1.79-1.19,2-2.21-2.21V128.4l4.67-4.67v3.21Zm0-96.64v3.21l-3.07,3.07,3.07,3.07v3.21l-4.67-4.67V35l4.67-4.67Zm0,18.69V52.2l-3.07,3.07,3.07,3.07v3.21l-4.67-4.67V53.66L80.51,49Zm0,18.69v3.21L77.44,74,80.51,77v3.21l-4.67-4.67V72.35l4.67-4.67Zm0,18.69v3.21l-3.07,3.07,3.07,3.07v3.21l-4.67-4.67V91ZM71.17,2.28l1-1c.9.16,1.79.35,2.66.55L71.17,5.48V2.28Zm0,9.34,4.67,4.67h0V19.5h0l-4.67,4.67V21l3.07-3.07-3.07-3.07V11.62Zm4.67,120h0l-4.67,4.67v-3.21L74.23,130l-3.07-3.07v-3.21l4.67,4.67h0v3.21Zm0-96.64v3.21h0l-4.67,4.67V39.65l3.07-3.07-3.07-3.07V30.3L75.84,35Zm0,18.69v3.21l-4.67,4.67V58.33l3.07-3.07L71.17,52.2V49l4.67,4.67Zm0,18.69v3.21l-4.67,4.67V77L74.23,74l-3.07-3.07V67.68l4.67,4.67Zm0,18.69v3.21h0l-4.67,4.67V95.7l3.07-3.07-3.07-3.07V86.36L75.84,91Zm0,18.69v3.21h0l-4.67,4.67v-3.21l3.07-3.07-3.07-3.07V105l4.67,4.67ZM66.49,6.95h0l4.67-4.67V5.48L68.1,8.55l3.07,3.07v3.21L66.5,10.16h0V6.95Zm4.67,129.33-3.07,3.07,3,3H67.93L66.5,141h0v-3.21h0l4.67-4.67v3.21ZM71.17,21v3.21L68.1,27.24l3.07,3.07v3.21L66.5,28.84h0V25.63h0L71.17,21Zm0,18.69v3.21L68.1,45.92,71.17,49V52.2L66.5,47.53h0V44.32h0l4.67-4.67Zm0,18.69v3.21L68.1,64.61l3.07,3.07v3.21L66.5,66.21h0V63h0l4.67-4.67Zm0,18.69v3.21L68.1,83.29l3.07,3.07v3.21L66.5,84.9h0V81.69h0L71.17,77Zm0,18.69v3.21L68.1,102,71.17,105v3.21l-4.67-4.67h0v-3.21h0l4.67-4.67Zm0,18.69v3.21l-3.07,3.07,3.07,3.07v3.21l-4.67-4.67h0v-3.21h0ZM61.82,2.28l4.67,4.67v3.21l-4.67,4.67V11.62l3.07-3.07L61.82,5.48V2.28ZM66.49,141l-1.43,1.43H61.85l3-3-3.07-3.07v-3.21l4.67,4.67V141Zm0-115.32v3.21l-4.67,4.67V30.3l3.07-3.07-3.07-3.07V21l4.67,4.67Zm0,18.69v3.21L61.82,52.2V49l3.07-3.07-3.07-3.07V39.65l4.67,4.67Zm0,18.69v3.21l-4.67,4.67V67.68l3.07-3.07-3.07-3.07V58.33L66.49,63Zm0,18.69V84.9l-4.67,4.67V86.36l3.07-3.07-3.07-3.07V77l4.67,4.67Zm0,18.69v3.21l-4.67,4.67V105L64.89,102l-3.07-3.07V95.7l4.67,4.67Zm0,18.69v3.21l-4.67,4.67v-3.21l3.07-3.07-3.07-3.07v-3.21ZM57.15,0h.29c.72,0,1.43,0,2.14,0l2.25,2.25V5.48L57.15.81h0V0Zm4.67,136.28-4.67-4.67h0V128.4h0l4.67-4.67v3.21L58.76,130l3.07,3.07v3.21Zm0-124.66v3.21L58.76,17.9,61.82,21v3.21L57.15,19.5h0V16.29h0l4.67-4.67Zm0,18.69v3.21l-3.07,3.07,3.07,3.07v3.21l-4.67-4.67h0V35h0l4.67-4.67Zm0,18.69V52.2l-3.07,3.07,3.07,3.07v3.21l-4.67-4.67h0V53.66h0L61.82,49Zm0,18.69v3.21L58.76,74,61.82,77v3.21l-4.67-4.67h0V72.35h0l4.67-4.67Zm0,18.69v3.21l-3.07,3.07,3.07,3.07v3.21l-4.67-4.67h0V91h0l4.67-4.67Zm0,18.69v3.21l-3.07,3.07,3.07,3.07v3.21l-4.67-4.67h0v-3.21h0ZM52.48,2.28,54.72,0q1.21,0,2.44,0V.81L52.48,5.48V2.28Zm4.67,129.34-4.67,4.67v-3.21L55.55,130l-3.07-3.07v-3.21l4.67,4.67v3.21Zm0-115.32V19.5l-4.67,4.67V21l3.07-3.07-3.07-3.07V11.62l4.67,4.67Zm0,18.69v3.21l-4.67,4.67V39.65l3.07-3.07-3.07-3.07V30.3L57.15,35Zm0,18.69v3.21l-4.67,4.67V58.33l3.07-3.07L52.48,52.2V49l4.67,4.67Zm0,18.69v3.21l-4.67,4.67V77L55.55,74l-3.07-3.07V67.68l4.67,4.67Zm0,18.69v3.21l-4.67,4.67V95.7l3.07-3.07-3.07-3.07V86.36L57.15,91Zm0,18.69v3.21l-4.67,4.67v-3.21l3.07-3.07-3.07-3.07V105ZM47.81,6.95h0l4.67-4.67V5.48L49.41,8.55l3.07,3.07v3.21l-4.67-4.67h0V6.95Zm4.67,129.34-3.07,3.07,3,3H49.24L47.81,141h0v-3.21h0l4.67-4.67v3.21ZM52.48,21v3.21l-3.07,3.07,3.07,3.07v3.21l-4.67-4.67h0V25.63h0L52.48,21Zm0,18.69v3.21l-3.07,3.07L52.48,49V52.2l-4.67-4.67h0V44.32h0l4.67-4.67Zm0,18.69v3.21l-3.07,3.07,3.07,3.07v3.21l-4.67-4.67h0V63h0l4.67-4.67Zm0,18.69v3.21l-3.07,3.07,3.07,3.07v3.21L47.81,84.9h0V81.69h0L52.48,77Zm0,18.69v3.21L49.41,102,52.48,105v3.21l-4.67-4.67h0v-3.21h0l4.67-4.67Zm0,18.69v3.21l-3.07,3.07,3.07,3.07v3.21l-4.67-4.67h0v-3.21h0ZM43.14,11.62,46.2,8.55,43.14,5.48V2.28l4.67,4.67v3.21l-4.67,4.67V11.62ZM47.81,141l-1.43,1.43H43.17l3-3-3.07-3.07v-3.21l4.67,4.67V141Zm0-115.32v3.21l-4.67,4.67V30.3l3.07-3.07-3.07-3.07V21l4.67,4.67Zm0,18.69v3.21L43.14,52.2V49l3.07-3.07-3.07-3.07V39.65l4.67,4.67Zm0,18.69v3.21l-4.67,4.67V67.68l3.07-3.07-3.07-3.07V58.33L47.81,63Zm0,18.68V84.9l-4.67,4.67V86.36l3.07-3.07-3.07-3.07V77l4.67,4.67Zm0,18.69v3.21l-4.67,4.67V105L46.2,102l-3.07-3.07V95.7l4.67,4.67Zm0,18.69v3.21l-4.67,4.67v-3.21l3.07-3.07-3.07-3.07v-3.21ZM38.47,16.29h0l4.67-4.67v3.21L40.07,17.9,43.14,21v3.21L38.47,19.5h0V16.29ZM43.14,5.48,39.59,1.94c.87-.2,1.75-.39,2.65-.56l.9.9V5.48Zm0,130.8-4.67-4.67h0V128.4h0l4.67-4.67v3.21L40.07,130l3.07,3.07v3.21Zm0-106v3.21l-3.07,3.07,3.07,3.07v3.21l-4.67-4.67h0V35h0l4.67-4.67Zm0,18.69V52.2l-3.07,3.07,3.07,3.07v3.21l-4.67-4.67h0V53.66h0L43.14,49Zm0,18.69v3.21L40.07,74,43.14,77v3.21l-4.67-4.67h0V72.35h0l4.67-4.67Zm0,18.69v3.21l-3.07,3.07,3.07,3.07v3.21l-4.67-4.67h0V91h0l4.67-4.67Zm0,18.69v3.21l-3.07,3.07,3.07,3.07v3.21l-4.67-4.67h0v-3.21h0ZM33.8,3.57q1.36-.46,2.78-.86L33.8,5.49V3.57Zm0,8,4.67,4.67V19.5L33.8,24.17V21l3.07-3.07L33.8,14.83V11.62Zm4.67,120-1.85,1.85-1.19-2L36.86,130l-3.07-3.07v-3.21l4.67,4.67v3.21ZM33.8,114.39l3.07-3.07-3.07-3.07V105l4.67,4.67v3.21L33.8,117.6v-3.21ZM38.47,35v3.21L33.8,42.86V39.65l3.07-3.07L33.8,33.51V30.3L38.47,35Zm0,18.69v3.21L33.8,61.54V58.33l3.07-3.07L33.8,52.2V49l4.67,4.67Zm0,18.69v3.21L33.8,80.23V77L36.86,74,33.8,70.88V67.68l4.67,4.67Zm0,18.69v3.21L33.8,98.91V95.7l3.07-3.07L33.8,89.57V86.36ZM29.12,6.95l2.66-2.66q1-.37,2-.72V5.49L30.73,8.55l3.07,3.07v3.21l-4.67-4.67V6.95Zm4.67,120-2.5-2.5-2.17-3.67v-1.7h0l4.67-4.67v3.21l-3.07,3.07,3.07,3.07v3.21Zm0-18.68-4.67-4.67v-3.21L33.8,95.7v3.21L30.73,102,33.8,105v3.21ZM33.8,21v3.21l-3.07,3.07L33.8,30.3v3.21l-4.67-4.67V25.63L33.8,21Zm0,18.69v3.21l-3.07,3.07L33.8,49V52.2l-4.67-4.67V44.32l4.67-4.67Zm0,18.69v3.21l-3.07,3.07,3.07,3.07v3.21l-4.67-4.67V63l4.67-4.67ZM33.8,77v3.21l-3.07,3.07,3.07,3.07v3.21L29.12,84.9V81.69Zm-9.34-65.4,3.07-3.07L25.88,6.92Q26.94,6.37,28,5.86l1.09,1.09v3.21l-4.67,4.67V11.62Zm4.67,109.15-2.46-4.16,2.46,2.46v1.7Zm0-17.18-4.67,4.67V105L27.52,102l-3.07-3.07V95.7l4.67,4.67v3.21Zm0-77.95v3.21l-4.67,4.67V30.3l3.07-3.07-3.07-3.07V21l4.67,4.67Zm0,18.69v3.21L24.45,52.2V49l3.07-3.07-3.07-3.07V39.65l4.67,4.67Zm0,18.68v3.21l-4.67,4.67V67.68l3.07-3.07-3.07-3.07V58.33L29.12,63Zm0,18.69V84.9l-4.67,4.67V86.36l3.07-3.07-3.07-3.07V77Zm-9.34-65.4,4.67-4.67v3.21L21.39,17.9,24.45,21v3.21L19.78,19.5V16.29Zm4.67,92L22.74,110l-1.19-2,2.9-2.9v3.21Zm0-9.34-4.67-4.67V91l4.67-4.67v3.21l-3.07,3.07,3.07,3.07v3.21Zm0-68.61v3.21l-3.07,3.07,3.07,3.07v3.21l-4.67-4.67V35l4.67-4.67Zm0,18.69V52.2l-3.07,3.07,3.07,3.07v3.21l-4.67-4.67V53.66L24.45,49Zm0,18.69v3.21L21.39,74,24.45,77v3.21l-4.67-4.67V72.35ZM15.11,21l3.07-3.07-3.07-3.07v-.34q.74-.69,1.51-1.35l3.16,3.16V19.5l-4.67,4.67V21Zm4.67,73.28-4,4L15.11,97V95.7l3.07-3.07-3.07-3.07V86.36L19.78,91v3.21ZM15.11,77,18.18,74l-3.07-3.07V67.68l4.67,4.67v3.21l-4.67,4.67V77Zm4.67-42v3.21l-4.67,4.67V39.65l3.07-3.07-3.07-3.07V30.3L19.78,35Zm0,18.69v3.21l-4.67,4.67V58.33l3.07-3.07L15.11,52.2V49Zm-9.34-28L15.11,21v3.21L12,27.24l3.07,3.07v3.21l-4.67-4.67V25.63Zm4.67-10.81-.18-.18.18-.17v.34Zm0,82.2-.49-.83.49-.49V97Zm0-7.46L10.44,84.9V81.69L15.11,77v3.21L12,83.29l3.07,3.07v3.21Zm0-18.69-4.67-4.67V63l4.67-4.67v3.21L12,64.61l3.07,3.07v3.21Zm0-31.24v3.21L12,45.92,15.11,49V52.2l-4.67-4.67V44.32ZM3.07,33l5.77-5.77L6.69,25.1q.58-1,1.22-2l2.53,2.53v3.21L2.7,36.58l7.74,7.74v3.21h0L2.7,55.27,10.44,63v3.21L3.5,73.15q-.39-1.23-.74-2.47l6.08-6.08L1.1,56.87l-.8.8Q.05,55.1,0,52.58L1.1,53.66l7.74-7.74L1.46,38.55A51.37,51.37,0,0,1,3.07,33ZM10.44,84.9,9,86.35q-.55-1.07-1.07-2.14l.91-.91L6.38,80.84q-1.14-2.63-2.07-5.27l6.12,6.12Z"/><polygon class="cls-1" points="41.87 142.39 29.15 120.85 85.72 120.85 73 142.39 41.87 142.39"/><polygon class="cls-3" points="5.07 74.52 42.08 169.85 41.25 170.17 4.11 74.52 5.07 74.52"/><polygon class="cls-3" points="111.04 74.52 73.9 170.17 73.08 169.85 110.09 74.52 111.04 74.52"/><polygon class="cls-3" points="19.54 74.52 46.34 169.89 45.48 170.13 18.61 74.52 19.54 74.52"/><polygon class="cls-3" points="96.54 74.52 69.67 170.13 68.81 169.89 95.61 74.52 96.54 74.52"/><polygon class="cls-3" points="46 74.52 54.23 169.97 53.34 170.05 45.1 74.52 46 74.52"/><polygon class="cls-3" points="70.05 74.52 61.81 170.05 60.92 169.97 69.15 74.52 70.05 74.52"/><polygon class="cls-1" points="40.97 169.75 73.9 169.75 68.67 195.97 46.21 195.97 40.97 169.75"/><polygon class="cls-4" points="72.64 176.07 72.02 179.16 42.85 179.16 42.23 176.07 72.64 176.07"/><polygon class="cls-4" points="40.97 169.75 73.9 169.75 73.28 172.85 41.59 172.85 40.97 169.75"/><polygon class="cls-5" points="41.38 171.8 73.49 171.8 73.28 172.85 41.59 172.85 41.38 171.8"/><path class="cls-5" d="M42.21,172c3.63,0,6,8.32,0,8.32S38.59,172,42.21,172Z"/><path class="cls-5" d="M42.21,172.89c1,0,1.74-1.46,1.47-2.48a12.83,12.83,0,0,1-2.93,0C40.47,171.43,41.24,172.89,42.21,172.89Z"/><path class="cls-5" d="M72.66,172c3.63,0,6,8.32,0,8.32S69,172,72.66,172Z"/><path class="cls-5" d="M72.66,172.89c1,0,1.74-1.46,1.47-2.48a12.83,12.83,0,0,1-2.93,0C70.92,171.43,71.68,172.89,72.66,172.89Z"/><path class="cls-5" d="M52.36,172c3.63,0,6,8.32,0,8.32S48.73,172,52.36,172Z"/><path class="cls-5" d="M52.36,172.89c1,0,1.74-1.46,1.47-2.48a12.84,12.84,0,0,1-2.93,0C50.62,171.43,51.38,172.89,52.36,172.89Z"/><path class="cls-5" d="M62.51,172c3.63,0,6,8.32,0,8.32S58.88,172,62.51,172Z"/><path class="cls-5" d="M62.51,172.89c1,0,1.74-1.46,1.47-2.48a12.84,12.84,0,0,1-2.93,0C60.77,171.43,61.53,172.89,62.51,172.89Z"/><path class="cls-5" d="M3.79,73.54H111.36l-.35,1H4.14Z"/><path class="cls-6" d="M114.86,52a57.69,57.69,0,0,0-1.49-13.67h0c-.35-1.48-.76-2.93-1.24-4.36l0-.11v0h0A48.1,48.1,0,0,0,108,24.74h0c-.34-.57-.69-1.14-1.05-1.7a45.49,45.49,0,0,0-7.5-8.88l0,0,0,0L99,13.82l0,0,0,0-.58-.51-.47-.4h0A48.94,48.94,0,0,0,88.58,6.7l0,0,0,0,0,0,0,0,0,0,0,0-1-.5L87.11,6l-.65-.3h0Q84.39,4.74,82.19,4h0l-.65-.23-.72-.24L80,3.22a64.75,64.75,0,0,0-6.49-1.67L72.3,1.31,70.79,1A81.39,81.39,0,0,0,59.18,0h0L57.44,0V142.39H63.3l-2.36,27.36h-3.5V196H68.67l2.13-10.66,1-5.07a5.49,5.49,0,0,0,.86.06c5.4,0,4-6.7,1.07-8.07a2.31,2.31,0,0,0,.39-1.83l-.36,0,.06-.31.08,0,13.2-34L111,74.52h0l.32-1h-.11c.26-.8.51-1.61.74-2.41h0a73.11,73.11,0,0,0,2.54-12.93h0q.32-3.12.34-6.18Zm-53,117.74,2.36-27.36H73l6.76-11.45-9,31.89-1.94,6.92Zm25.27-36-14,36H69.77l1-3.63L81.52,128l4.2-7.11,1.39-2.36L89,115.21h0l4.07-6.9,5.75-9.73h0L99.8,97l3.49-5.91q.59-1,1.15-2Z"/><polygon class="cls-1" points="377.1 163.11 393.36 163.11 390.78 176.06 379.69 176.06 377.1 163.11"/><polygon class="cls-7" points="392.74 166.23 392.44 167.76 378.03 167.76 377.73 166.23 392.74 166.23"/><polygon class="cls-7" points="377.1 163.11 393.36 163.11 393.06 164.64 377.41 164.64 377.1 163.11"/><polygon class="cls-8" points="377.31 164.12 393.16 164.12 393.06 164.64 377.41 164.64 377.31 164.12"/><path class="cls-8" d="M377.72,164.22c1.79,0,3,4.11,0,4.11S375.92,164.22,377.72,164.22Z"/><path class="cls-8" d="M377.72,164.66c.48,0,.86-.72.72-1.22a6.33,6.33,0,0,1-1.45,0C376.86,163.94,377.23,164.66,377.72,164.66Z"/><path class="cls-8" d="M392.75,164.22c1.79,0,3,4.11,0,4.11S391,164.22,392.75,164.22Z"/><path class="cls-8" d="M392.75,164.66c.48,0,.86-.72.72-1.22a6.33,6.33,0,0,1-1.45,0C391.89,163.94,392.27,164.66,392.75,164.66Z"/><path class="cls-8" d="M382.73,164.22c1.79,0,3,4.11,0,4.11S380.93,164.22,382.73,164.22Z"/><path class="cls-8" d="M382.73,164.66c.48,0,.86-.72.72-1.22a6.34,6.34,0,0,1-1.45,0C381.87,163.94,382.24,164.66,382.73,164.66Z"/><path class="cls-8" d="M387.74,164.22c1.79,0,3,4.11,0,4.11S385.95,164.22,387.74,164.22Z"/><path class="cls-8" d="M387.74,164.66c.48,0,.86-.72.72-1.22a6.33,6.33,0,0,1-1.45,0C386.88,163.94,387.26,164.66,387.74,164.66Z"/><path class="cls-7" d="M377.56,149.6l-15-25.35c-12.32-20.87-4.69-45,22.65-45s35,24.09,22.64,45l-15,25.35Z"/><path class="cls-9" d="M380.89,131.28a1.45,1.45,0,0,1-.45-.13l-.21-2.49a1.43,1.43,0,0,1,.42-.21Z"/><path class="cls-9" d="M381.38,142a1.45,1.45,0,0,1,.46.19l.2,2.32a1.45,1.45,0,0,1-.42.26Z"/><path class="cls-9" d="M389.95,128.49a1.46,1.46,0,0,1,.42.26l-.2,2.31a1.43,1.43,0,0,1-.46.19Z"/><path class="cls-9" d="M389,144.81a1.43,1.43,0,0,1-.42-.21l.22-2.5a1.44,1.44,0,0,1,.45-.13Z"/><path class="cls-9" d="M365.72,115.6a1.45,1.45,0,0,1,.15.52H363a1.45,1.45,0,0,1,.15-.52Z"/><path class="cls-9" d="M374,115.6a1.44,1.44,0,0,1,.15.52H371.3a1.45,1.45,0,0,1,.15-.52Z"/><path class="cls-9" d="M382.37,115.6a1.45,1.45,0,0,1,.15.52h-2.89a1.45,1.45,0,0,1,.15-.52Z"/><path class="cls-9" d="M390.69,115.6a1.43,1.43,0,0,1,.15.52h-2.89a1.45,1.45,0,0,1,.15-.52Z"/><path class="cls-9" d="M399,115.6a1.44,1.44,0,0,1,.15.52h-2.89a1.45,1.45,0,0,1,.15-.52Z"/><path class="cls-9" d="M407.34,115.6a1.45,1.45,0,0,1,.15.52H404.6a1.45,1.45,0,0,1,.15-.52Z"/><path class="cls-9" d="M370,82.5a1.45,1.45,0,0,1-2.17,1.22Q368.9,83.07,370,82.5Z"/><circle class="cls-10" cx="376.91" cy="82.46" r="1.45"/><circle class="cls-10" cx="385.23" cy="82.46" r="1.45"/><circle class="cls-10" cx="393.56" cy="82.46" r="1.45"/><path class="cls-9" d="M402.6,83.72a1.45,1.45,0,0,1-2.17-1.22Q401.57,83.06,402.6,83.72Z"/><circle class="cls-10" cx="364.42" cy="89.09" r="1.45"/><circle class="cls-10" cx="372.75" cy="89.09" r="1.45"/><circle class="cls-10" cx="381.07" cy="89.09" r="1.45"/><circle class="cls-10" cx="389.4" cy="89.09" r="1.45"/><circle class="cls-10" cx="397.72" cy="89.09" r="1.45"/><circle class="cls-10" cx="406.04" cy="89.09" r="1.45"/><circle class="cls-10" cx="360.26" cy="96.04" r="1.45"/><circle class="cls-10" cx="368.58" cy="96.04" r="1.45"/><circle class="cls-10" cx="376.91" cy="96.04" r="1.45"/><circle class="cls-10" cx="385.23" cy="96.04" r="1.45"/><circle class="cls-10" cx="393.56" cy="96.04" r="1.45"/><circle class="cls-10" cx="401.88" cy="96.04" r="1.45"/><circle class="cls-10" cx="410.21" cy="96.04" r="1.45"/><path class="cls-9" d="M357,101.57a1.45,1.45,0,0,1-.16,2.32Q356.92,102.72,357,101.57Z"/><circle class="cls-10" cx="364.42" cy="102.67" r="1.45"/><circle class="cls-10" cx="372.75" cy="102.67" r="1.45"/><circle class="cls-10" cx="381.07" cy="102.67" r="1.45"/><circle class="cls-10" cx="389.4" cy="102.67" r="1.45"/><circle class="cls-10" cx="397.72" cy="102.67" r="1.45"/><circle class="cls-10" cx="406.04" cy="102.67" r="1.45"/><path class="cls-9" d="M413.58,103.89a1.45,1.45,0,0,1-.16-2.32Q413.55,102.72,413.58,103.89Z"/><circle class="cls-10" cx="360.26" cy="109.62" r="1.45"/><circle class="cls-10" cx="368.58" cy="109.62" r="1.45"/><circle class="cls-10" cx="376.91" cy="109.62" r="1.45"/><circle class="cls-10" cx="385.23" cy="109.62" r="1.45"/><circle class="cls-10" cx="393.56" cy="109.62" r="1.45"/><circle class="cls-10" cx="401.88" cy="109.62" r="1.45"/><circle class="cls-10" cx="410.21" cy="109.62" r="1.45"/><circle class="cls-10" cx="364.42" cy="116.25" r="1.45"/><circle class="cls-10" cx="372.75" cy="116.25" r="1.45"/><circle class="cls-10" cx="381.07" cy="116.25" r="1.45"/><circle class="cls-10" cx="389.4" cy="116.25" r="1.45"/><circle class="cls-10" cx="397.72" cy="116.25" r="1.45"/><circle class="cls-10" cx="406.04" cy="116.25" r="1.45"/><circle class="cls-10" cx="368.58" cy="123.21" r="1.45"/><circle class="cls-10" cx="376.91" cy="123.21" r="1.45"/><circle class="cls-10" cx="385.23" cy="123.21" r="1.45"/><circle class="cls-10" cx="393.56" cy="123.21" r="1.45"/><circle class="cls-10" cx="401.88" cy="123.21" r="1.45"/><path class="cls-9" d="M365.14,128.58a1.45,1.45,0,0,1,.73,1.24Z"/><circle class="cls-10" cx="372.75" cy="129.84" r="1.45"/><circle class="cls-10" cx="381.07" cy="129.84" r="1.45"/><circle class="cls-10" cx="389.4" cy="129.84" r="1.45"/><circle class="cls-10" cx="397.72" cy="129.84" r="1.45"/><path class="cls-9" d="M404.59,129.81a1.45,1.45,0,0,1,.73-1.24Z"/><path class="cls-9" d="M369.22,135.49a1.45,1.45,0,0,1,.81,1.3s0,0,0,.07Z"/><circle class="cls-10" cx="376.91" cy="136.79" r="1.45"/><circle class="cls-10" cx="385.23" cy="136.79" r="1.45"/><circle class="cls-10" cx="393.56" cy="136.79" r="1.45"/><path class="cls-9" d="M400.43,136.86s0,0,0-.07a1.45,1.45,0,0,1,.81-1.3Z"/><path class="cls-9" d="M373.07,142a1.45,1.45,0,0,1,1.07,1.81Z"/><circle class="cls-10" cx="381.07" cy="143.42" r="1.45"/><circle class="cls-10" cx="389.4" cy="143.42" r="1.45"/><path class="cls-9" d="M396.32,143.82A1.45,1.45,0,0,1,397.4,142Z"/><path class="cls-9" d="M373.07,142a1.45,1.45,0,0,1,1.07,1.81Z"/><circle class="cls-10" cx="381.07" cy="143.42" r="1.45"/><circle class="cls-10" cx="389.4" cy="143.42" r="1.45"/><path class="cls-9" d="M396.32,143.82A1.45,1.45,0,0,1,397.4,142Z"/><polygon class="cls-1" points="377.56 149.6 371.28 138.97 399.19 138.97 392.91 149.6 377.56 149.6"/><polygon class="cls-11" points="359.37 116.08 377.65 163.16 377.24 163.32 358.9 116.08 359.37 116.08"/><polygon class="cls-11" points="411.7 116.08 393.36 163.32 392.95 163.16 411.23 116.08 411.7 116.08"/><polygon class="cls-11" points="366.52 116.08 379.75 163.18 379.33 163.3 366.06 116.08 366.52 116.08"/><polygon class="cls-11" points="404.54 116.08 391.27 163.3 390.85 163.18 404.08 116.08 404.54 116.08"/><polygon class="cls-11" points="379.58 116.08 383.65 163.22 383.21 163.26 379.14 116.08 379.58 116.08"/><polygon class="cls-11" points="391.46 116.08 387.39 163.26 386.95 163.22 391.02 116.08 391.46 116.08"/><path class="cls-8" d="M358.74,115.6h53.12l-.17.52H358.91Z"/><path class="cls-6" d="M411.81,115.6a34.9,34.9,0,0,0,1.77-11.71h0c0-.17,0-.33,0-.5s0-.3,0-.45,0-.31,0-.46,0-.33,0-.5,0-.27,0-.4h0a23.38,23.38,0,0,0-12.19-18.65h0l0,0,0,0-.07,0,0,0-.28-.15-.31-.16-.59-.29a30.49,30.49,0,0,0-8.05-2.44,40.76,40.76,0,0,0-6.6-.51V149.6h2.89L387,163.11h-1.73v13h5.54l1.05-5.27.5-2.49a2.7,2.7,0,0,0,.42,0c2.67,0,2-3.31.53-4a1.14,1.14,0,0,0,.19-.9l-.18,0,0-.15,0,0,6.52-16.79,11.81-30.41h0v0h0l.16-.48Zm-24.4,47.51,1.17-13.51h4.34l3.35-5.67-4.43,15.76-1,3.43Zm12.48-17.8L393,163.11h-1.65l.51-1.8,5.3-18.85,2.06-3.48.7-1.18.55-.93h0l.81-1.38h0l3.35-5.67.73-1.24,2.55-4.32q.29-.49.57-1Z"/><polygon class="cls-12" points="191.84 330.48 215.27 330.48 211.55 349.13 195.57 349.13 191.84 330.48"/><polygon class="cls-13" points="214.38 334.97 213.94 337.17 193.18 337.17 192.74 334.97 214.38 334.97"/><polygon class="cls-13" points="191.84 330.48 215.27 330.48 214.83 332.68 192.28 332.68 191.84 330.48"/><polygon class="cls-5" points="192.14 331.94 214.98 331.94 214.83 332.68 192.28 332.68 192.14 331.94"/><path class="cls-5" d="M192.73,332.07c2.58,0,4.28,5.92,0,5.92S190.15,332.07,192.73,332.07Z"/><path class="cls-5" d="M192.73,332.71c.7,0,1.24-1,1-1.76a9,9,0,0,1-2.09,0C191.49,331.67,192,332.71,192.73,332.71Z"/><path class="cls-5" d="M214.39,332.07c2.58,0,4.28,5.92,0,5.92S211.81,332.07,214.39,332.07Z"/><path class="cls-5" d="M214.39,332.71c.7,0,1.24-1,1-1.76a9,9,0,0,1-2.09,0C213.15,331.67,213.69,332.71,214.39,332.71Z"/><path class="cls-5" d="M199.95,332.07c2.58,0,4.28,5.92,0,5.92S197.37,332.07,199.95,332.07Z"/><path class="cls-5" d="M199.95,332.71c.7,0,1.24-1,1-1.76a9,9,0,0,1-2.09,0C198.71,331.67,199.25,332.71,199.95,332.71Z"/><path class="cls-5" d="M207.17,332.07c2.58,0,4.28,5.92,0,5.92S204.59,332.07,207.17,332.07Z"/><path class="cls-5" d="M207.17,332.71c.7,0,1.24-1,1-1.76a9,9,0,0,1-2.09,0C205.93,331.67,206.47,332.71,207.17,332.71Z"/><polygon class="cls-5" points="191.48 330.48 215.63 330.48 215.48 331.22 191.64 331.22 191.48 330.48"/><path class="cls-13" d="M192.5,311l-21.57-36.53c-17.76-30.07-6.76-64.77,32.63-64.77s50.38,34.71,32.62,64.78L214.62,311Z"/><path class="cls-5" d="M193.72,311l-19.19-36.53c-15.79-30.07-6-64.77,29-64.77s44.82,34.71,29,64.78L213.4,311Z"/><path class="cls-13" d="M195.49,311l-15.73-36.53c-12.95-30.07-4.93-64.77,23.8-64.77s36.74,34.71,23.79,64.78L211.63,311Z"/><path class="cls-5" d="M197.62,311,186,274.48c-9.53-30.07-3.63-64.77,17.52-64.77s27.05,34.71,17.52,64.78L209.5,311Z"/><path class="cls-13" d="M201.09,311l-4.81-36.53c-4-30.07-1.51-64.77,7.28-64.77s11.23,34.71,7.28,64.78L206,311Z"/><polygon class="cls-12" points="192.5 311.01 183.46 295.7 223.66 295.7 214.62 311.01 192.5 311.01"/><path class="cls-14" d="M216.3,326v-2.4L223,295.7h.35L216.3,326Zm0-20L218,295.7h-.34l-1.37,7.85Zm-25.49,17.59,1.72,7.09-.59.12L190.81,326v-2.4Zm25.49-20V306l-4.14,24.79-.61-.09,4.75-27.13Zm0,20-1.72,7.09.59.12L216.3,326v-2.4ZM190.81,306,195,330.76l.61-.09-4.75-27.13V306Zm8.45-10.27,1.92,35-.63,0-1.62-35Zm8.93,0-1.62,35-.63,0,1.92-35Zm-24.12,0,6.75,27.87V326l-7.1-30.27Zm6.75,7.85-1.37-7.85h-.34L190.81,306Z"/><path class="cls-13" d="M183.43,295.66h40.25l-.13.74h-40Z"/><path class="cls-6" d="M217.42,211.37q-1.81-.47-3.74-.81-1.38-.24-2.81-.42a60.56,60.56,0,0,0-7.31-.43h0V311H207l-1.07,19.47h-2.39v18.66h8l2.13-10.68.1-.5a4,4,0,0,0,.61,0c3.84,0,2.87-4.76.76-5.74a1.74,1.74,0,0,0,.32-1h0l.16-.74h-.39l2.17-9.25,5.82-24.8v0h.31l.13-.74h0l12.5-21.17C251.64,248.31,245.32,218.61,217.42,211.37Zm-6.55,119.11h-4.29l.9-19.47h7.14l.53-.9-1.47,8.41-2.1,12ZM217.42,319l-2.79,11.51h-2.42l1.47-8.81L215.79,309l1.62-2.75,5.21-8.82Z"/></g></g></svg>