<svg xmlns="http://www.w3.org/2000/svg" viewBox="0 0 113.69 76.2"><defs><style>.cls-1{fill:#221d1f;}.cls-2{fill:#f27f20;}.cls-3{fill:#fdc613;}.cls-4{fill:#f0624b;}.cls-5{fill:#0b0c0c;}.cls-6{fill:#bbbbbc;}.cls-7{fill:#fff;}.cls-8{fill:#4d4c4c;}.cls-9{fill:#ebbb7c;}</style></defs><title>Asset 46</title><g id="Layer_2" data-name="Layer 2"><g id="Layer_1-2" data-name="Layer 1"><path class="cls-1" d="M34.77,22.15q-.91,1.86-1.71,3.79c-.55,1.41-1.13,2.83-1.72,4.27C28.6,36.8,20.83,41.9,22.65,49.7c1.79,7.1,8.29,11,15.27,12.64a35.22,35.22,0,0,0,8.28.89,20.41,20.41,0,0,0,3.57-.46,21.91,21.91,0,0,0,4.29-1.3,21,21,0,0,0,10.08-8.7,24,24,0,0,0,3.24-8l.06-.28A13.15,13.15,0,0,1,69,40.84l5.87-21c-.46-2.08,1.78-5,3.12-6.45a12.47,12.47,0,0,1,7.12-3.91c-2.34-1.57-4.18-1.33-6.7-1.65,1.7-1.78,6-4.61,2.2-6.54C76-1,70.7.46,65.93.73A40.41,40.41,0,0,0,50.3,4.85q-1.47.74-2.86,1.62C41.75,10.43,37.8,16,34.77,22.15Z"/><path class="cls-2" d="M93.12,46.36A194.63,194.63,0,0,0,72.2,39.71c-3.15-.88-5.84-1-5.32-5,.6-4.58,5.23-3.67,8.81-3.09,4.56.74,9,3,12.88,5.43,3.22,2,7.19,4,9.8,6.87,1.19,1.3,4.24,5.55,3.67,7.5-.65,2.24-2.44-.7-3.39-1.49A22.15,22.15,0,0,0,93.12,46.36Z"/><path class="cls-3" d="M66.68,34.28A126.72,126.72,0,0,1,88,41.93a57.8,57.8,0,0,1,7.07,3.87c4.07,2.68,6.56,5.53,5.45,8.2,4.61.57,8.69-6.56,11-12.56a36.62,36.62,0,0,0,1.85-6.23,15.43,15.43,0,0,0-3.43-13,22,22,0,0,0-10.18-6.5c-7.55-2.41-21.3-2.68-28.2,2.81C68.13,21.27,67.28,29.51,66.68,34.28Z"/><path class="cls-4" d="M88,41.93a57.8,57.8,0,0,1,7.07,3.87c4.07,2.68,6.56,5.53,5.45,8.2,4.61.57,8.69-6.56,11-12.56a36.62,36.62,0,0,0,1.85-6.23,15.43,15.43,0,0,0-3.43-13,21.1,21.1,0,0,0-10,4.12C95.5,29.44,88.87,35.78,88,41.93Z"/><path class="cls-5" d="M100.57,54c4.61.57,8.69-6.56,11-12.56a54.92,54.92,0,0,1-8.17,3,40.42,40.42,0,0,1-8.28,1.38C99.19,48.48,101.68,51.32,100.57,54Z"/><path class="cls-4" d="M76.66,23.85a4.93,4.93,0,0,1,1.6.24L78,23a1.78,1.78,0,0,1-1.81.72l.41,1a3.74,3.74,0,0,1,.22-.35.64.64,0,0,1,.18-.17.66.66,0,0,1,.23-.06,3.85,3.85,0,0,1,.49,0L77,23.23c0,.11-.16.19,0,0l.09,0h0a3.8,3.8,0,0,0-.67-.06.67.67,0,0,0,0,1.33,7.3,7.3,0,0,0,1,0c.48-.07.72-.57.87-1a.67.67,0,0,0-.64-.83,3.36,3.36,0,0,0-1.32.22,2.38,2.38,0,0,0-1,1,.67.67,0,0,0,.41,1,3.09,3.09,0,0,0,3.08-1.06.67.67,0,0,0-.3-1.12,6.09,6.09,0,0,0-1.94-.28c-.85,0-.86,1.37,0,1.33Z"/><path class="cls-1" d="M42.36,20.15a30.33,30.33,0,0,1-3,4.58c-2,2.81-3.76,5.79-5.94,8.48A67,67,0,0,1,19.62,46.37C14.38,49.93,9.43,53.73,3.91,56.82c-1.6.9-6.33,5.74-2.36,6.31,1.51.22,1.77-1,2.25.59.42,1.33-.14,2.74.46,4.1,1.32,3,3.77,2.06,6.33,1.6-.48,2,.59,7.65,3.63,6.66,1.87-.61,3.56-4.84,4.89-6.34a95.4,95.4,0,0,1,8.07-7.68c4.5-4,8.54-8.58,13.86-11.51a114.43,114.43,0,0,1,11.59-5.38Z"/><path class="cls-6" d="M38.1,56.6a8.14,8.14,0,0,0-.18,5.73,35.22,35.22,0,0,0,8.28.89,20.41,20.41,0,0,0,3.57-.46,21.91,21.91,0,0,0,4.29-1.3,21,21,0,0,0,10.08-8.7,24,24,0,0,0,3.24-8A8.84,8.84,0,0,0,60,38.6c-4.63-.42-9.28,3.54-12.57,6.3C43.56,48.16,40,51.86,38.1,56.6Z"/><path class="cls-6" d="M64.11,28a15.72,15.72,0,0,1-9.42,2.88c-3.06-.21-6.37-1.88-5.51-4.77,1-3.29,4-5.6,6.81-7.64a25.69,25.69,0,0,1,6.13-3.62c3.29-1.16,5.87,1,6.49,4.19C69.32,22.69,66.94,26.12,64.11,28Z"/><path class="cls-7" d="M58.39,17.64c-1.72,3.43,1.33,7.27,4.86,7.68,4.06.47,6.67-4.9,4.74-8.14A5.18,5.18,0,0,0,61,15.12,5.9,5.9,0,0,0,58.39,17.64Z"/><path d="M65.28,22.16a2.86,2.86,0,0,0,1.24-5.35c-2.2-1.31-5.12.84-4.13,3.32A2.83,2.83,0,0,0,65.28,22.16Z"/><path class="cls-7" d="M66.2,19.86a1.05,1.05,0,0,0,1.44-1.35,1,1,0,0,0-1.71-.3A1.1,1.1,0,0,0,66.2,19.86Z"/><path class="cls-8" d="M20.77,42.13a20.18,20.18,0,0,1-8.82-16.76c6.86,1.43,14.14,2.19,21.08,4.27,3.2,1,6.28,1.13,7.33,4.86s-.47,8.7-4.1,10.67C31.19,47.92,25.06,45,20.77,42.13Z"/><path class="cls-9" d="M38.56,62.75c.4.09.85.25,1,.68s-.32,1-.63,1.34c-.61.61.32,1.55.93.95a2.94,2.94,0,0,0,1-2.54,2.36,2.36,0,0,0-1.94-1.71c-.83-.19-1.18,1.09-.34,1.29Z"/><path class="cls-9" d="M39.68,62.71c1.7,0,2.09,1.63,1.73,3a.67.67,0,0,0,1.29.34c.58-2.21-.44-4.74-3-4.68a.67.67,0,0,0,0,1.33Z"/><path class="cls-9" d="M38.08,62.28c.19.89-.7,1.34-1.38,1.65s-.12,1.5.66,1.16c1.31-.58,2.34-1.61,2-3.14-.18-.84-1.46-.5-1.29.34Z"/></g></g></svg>