<svg xmlns="http://www.w3.org/2000/svg" viewBox="0 0 64.27 28.95"><defs><style>.cls-1{fill:#a8ad2c;}.cls-1,.cls-2,.cls-3{fill-rule:evenodd;}.cls-2{fill:#f89f1b;}.cls-3{fill:#3d1d0c;}</style></defs><title>Asset 51</title><g id="Layer_2" data-name="Layer 2"><g id="Layer_1-2" data-name="Layer 1"><path id="_Path_" data-name="&lt;Path&gt;" class="cls-1" d="M3.55,12.63A19.58,19.58,0,0,0,16.09,27.72c9.25,3.3,16.09-.55,20-5.58a23.33,23.33,0,0,0,3.66-6.48c7.9,1.06,14.14,1.82,22.5,0l-10.16-1c5.18-1.07,7.18-1.5,12.16-3.95.1-.05-19.31,2-24.63,2.23-4.12-1-8.18-1.49-13.41-6.12C20.67,1.81,17.08-1.08,11.39.38S2.76,7.82,3.55,12.63Z"/><polygon id="_Path_2" data-name="&lt;Path&gt;" class="cls-2" points="3.6 9.09 0 9.39 3.96 13.36 5.26 10.72 3.6 9.09"/><path id="_Path_3" data-name="&lt;Path&gt;" class="cls-3" d="M7.31,8.68a2.37,2.37,0,0,1,2.52-1,3.13,3.13,0,0,1,1.86,1.54C11.3,7.28,8.55,5.25,7.31,8.68Z"/></g></g></svg>