<svg xmlns="http://www.w3.org/2000/svg" viewBox="0 0 98.48 57.03"><defs><style>.cls-1{fill:#798028;}.cls-1,.cls-2,.cls-3,.cls-4{fill-rule:evenodd;}.cls-2{fill:#a8ad2c;}.cls-3{fill:#f89f1b;}.cls-4{fill:#3d1d0c;}</style></defs><title>Asset 44</title><g id="Layer_2" data-name="Layer 2"><g id="Layer_1-2" data-name="Layer 1"><path id="_Path_" data-name="&lt;Path&gt;" class="cls-1" d="M24.87,27.28c3.34-5.71,16.22-10.77,15.34-25.58,8.45,12.23,11.24,21.44,2.89,30.86C35,41.7,19.76,36,24.87,27.28Z"/><path id="_Path_2" data-name="&lt;Path&gt;" class="cls-2" d="M5.44,32A30,30,0,0,0,24.65,55.14c14.18,5.06,24.66-.84,30.68-8.55a35.74,35.74,0,0,0,5.61-9.93c12.1,1.63,21.66,2.78,34.48-.06L79.85,35c7.94-1.64,11-2.3,18.63-6,.16-.08-29.58,3-37.74,3.42C54.43,30.8,48.2,30.08,40.2,23c-8.52-7.55-14-12-22.75-9.74S4.22,24.65,5.44,32Z"/><polygon id="_Path_3" data-name="&lt;Path&gt;" class="cls-3" points="5.51 26.6 0 27.06 6.07 33.15 8.06 29.1 5.51 26.6"/><path id="_Path_4" data-name="&lt;Path&gt;" class="cls-4" d="M11.2,26a3.63,3.63,0,0,1,3.86-1.51,4.8,4.8,0,0,1,2.85,2.37C17.32,23.83,13.1,20.72,11.2,26Z"/><path id="_Path_5" data-name="&lt;Path&gt;" class="cls-1" d="M33.25,26.84c5-6,21-9.42,22.79-26.84,7.49,15.87,9,27.14-2.58,36.5C42.25,45.58,25.63,36,33.25,26.84Z"/></g></g></svg>