<svg xmlns="http://www.w3.org/2000/svg" viewBox="0 0 274.17 152"><defs><style>.cls-1{fill:#f5f5f5;}.cls-2{fill:#ccc;}.cls-3{fill:#e6e6e6;}.cls-4{fill:#f2f2f2;}</style></defs><title>Asset 43</title><g id="Layer_2" data-name="Layer 2"><g id="Layer_1-2" data-name="Layer 1"><path class="cls-1" d="M137.08,0S99.44,2.84,94.47,38.36c0,0-57.53-15.63-51.85,43.33,0,0-40.49-12.07-42.62,29.12,0,0,9.23,46.88,53.27,21.31,0,0,29.83,36.93,61.08,9.94,0,0,4.26,9.94,22.73,9.94Z"/><path class="cls-2" d="M137.08,0s37.64,2.84,42.62,38.36c0,0,57.53-15.63,51.85,43.33,0,0,40.49-12.07,42.62,29.12,0,0-9.23,46.88-53.27,21.31,0,0-29.83,36.93-61.08,9.94,0,0-4.26,9.94-22.73,9.94Z"/><path class="cls-3" d="M74.58,82.74s-29.83-3.65-23.44,30.62,32.67,21.87,32.67,12.39c0,0,9.94,31.35,35.51,13.12,0,0,.71,12.39,17.76,13.12V.36s-26.28,4.37-24.86,43C112.22,43.37,68.19,24.41,74.58,82.74Z"/><path class="cls-4" d="M199.59,82.9s29.83-3.64,23.44,30.55-32.67,21.82-32.67,12.37c0,0-9.94,31.28-35.51,13.09,0,0-.71,12.37-17.76,13.09V.71s26.28,4.36,24.86,42.91C161.94,43.62,206,24.71,199.59,82.9Z"/></g></g></svg>