<svg xmlns="http://www.w3.org/2000/svg" viewBox="0 0 207.43 115"><defs><style>.cls-1{fill:#f5f5f5;}.cls-2{fill:#ccc;}.cls-3{fill:#e6e6e6;}.cls-4{fill:#f2f2f2;}</style></defs><title>Asset 42</title><g id="Layer_2" data-name="Layer 2"><g id="Layer_1-2" data-name="Layer 1"><path class="cls-1" d="M103.71,0S75.23,2.15,71.47,29c0,0-43.53-11.82-39.23,32.78,0,0-30.63-9.14-32.24,22,0,0,7,35.47,40.3,16.12,0,0,22.57,27.94,46.21,7.52,0,0,3.22,7.52,17.2,7.52Z"/><path class="cls-2" d="M103.71,0S132.2,2.15,136,29c0,0,43.53-11.82,39.23,32.78,0,0,30.63-9.14,32.24,22,0,0-7,35.47-40.3,16.12,0,0-22.57,27.94-46.21,7.52,0,0-3.22,7.52-17.2,7.52Z"/><path class="cls-3" d="M56.43,62.6S33.86,59.84,38.69,85.77s24.72,16.55,24.72,9.38c0,0,7.52,23.72,26.87,9.93,0,0,.54,9.38,13.43,9.93V.27S83.83,3.58,84.91,32.81C84.91,32.81,51.59,18.47,56.43,62.6Z"/><path class="cls-4" d="M151,62.72S173.57,60,168.74,85.83,144,102.34,144,95.19c0,0-7.52,23.66-26.87,9.91,0,0-.54,9.36-13.43,9.91V.54S123.6,3.84,122.52,33C122.52,33,155.84,18.7,151,62.72Z"/></g></g></svg>