<svg xmlns="http://www.w3.org/2000/svg" viewBox="0 0 170.08 94.3"><defs><style>.cls-1{fill:#f5f5f5;}.cls-2{fill:#ccc;}.cls-3{fill:#e6e6e6;}.cls-4{fill:#f2f2f2;}</style></defs><title>Asset 41</title><g id="Layer_2" data-name="Layer 2"><g id="Layer_1-2" data-name="Layer 1"><path class="cls-1" d="M85,0S61.69,1.76,58.6,23.79c0,0-35.69-9.69-32.17,26.88,0,0-25.12-7.49-26.44,18.07,0,0,5.73,29.08,33,13.22,0,0,18.51,22.91,37.89,6.17,0,0,2.64,6.17,14.1,6.17Z"/><path class="cls-2" d="M85,0s23.35,1.76,26.44,23.79c0,0,35.69-9.69,32.17,26.88,0,0,25.12-7.49,26.44,18.07,0,0-5.73,29.08-33,13.22,0,0-18.51,22.91-37.89,6.17,0,0-2.64,6.17-14.1,6.17Z"/><path class="cls-3" d="M46.27,51.33s-18.51-2.26-14.54,19S52,83.89,52,78c0,0,6.17,19.45,22,8.14,0,0,.44,7.69,11,8.14V.22S68.74,2.93,69.62,26.91C69.62,26.91,42.3,15.15,46.27,51.33Z"/><path class="cls-4" d="M123.82,51.43s18.51-2.26,14.54,19-20.27,13.54-20.27,7.67c0,0-6.17,19.4-22,8.12,0,0-.44,7.67-11,8.12V.44s16.3,2.71,15.42,26.62C100.46,27.06,127.78,15.33,123.82,51.43Z"/></g></g></svg>