<svg xmlns="http://www.w3.org/2000/svg" viewBox="0 0 120.85 67"><defs><style>.cls-1{fill:#f5f5f5;}.cls-2{fill:#ccc;}.cls-3{fill:#e6e6e6;}.cls-4{fill:#f2f2f2;}</style></defs><title>Asset 40</title><g id="Layer_2" data-name="Layer 2"><g id="Layer_1-2" data-name="Layer 1"><path class="cls-1" d="M60.43,0S43.83,1.25,41.64,16.91c0,0-25.36-6.89-22.86,19.1C18.79,36,.94,30.68,0,48.84c0,0,4.07,20.66,23.48,9.39,0,0,13.15,16.28,26.93,4.38,0,0,1.88,4.38,10,4.38Z"/><path class="cls-2" d="M60.43,0S77,1.25,79.21,16.91c0,0,25.36-6.89,22.86,19.1,0,0,17.85-5.32,18.79,12.84,0,0-4.07,20.66-23.48,9.39,0,0-13.15,16.28-26.93,4.38,0,0-1.88,4.38-10,4.38Z"/><path class="cls-3" d="M32.87,36.47S19.72,34.86,22.54,50s14.4,9.64,14.4,5.46c0,0,4.38,13.82,15.65,5.78,0,0,.31,5.46,7.83,5.78V.16s-11.58,1.93-11,19C49.47,19.12,30.06,10.76,32.87,36.47Z"/><path class="cls-4" d="M88,36.54S101.13,34.94,98.31,50s-14.4,9.62-14.4,5.45c0,0-4.38,13.79-15.65,5.77,0,0-.31,5.45-7.83,5.77V.31S72,2.24,71.38,19.23C71.38,19.23,90.79,10.89,88,36.54Z"/></g></g></svg>