<svg xmlns="http://www.w3.org/2000/svg" viewBox="0 0 41.06 37.3"><defs><style>.cls-1{fill:#8bce1c;}.cls-2{fill:#35312d;}.cls-3{fill:#629b52;}</style></defs><title>Asset 63</title><g id="Layer_2" data-name="Layer 2"><g id="Layer_1-2" data-name="Layer 1"><ellipse class="cls-1" cx="21" cy="20.45" rx="20.06" ry="16.85"/><circle class="cls-1" cx="5.77" cy="9.14" r="5.77"/><circle class="cls-2" cx="5.77" cy="9.14" r="2.42"/><circle class="cls-1" cx="29.52" cy="5.77" r="5.77" transform="translate(-0.44 8.45) rotate(-16.17)"/><circle class="cls-2" cx="29.52" cy="5.77" r="2.42" transform="translate(-0.44 8.45) rotate(-16.18)"/><path class="cls-3" d="M27,26.23A1.61,1.61,0,0,0,28.57,28a1.92,1.92,0,0,0,1.71-1.91,1.61,1.61,0,0,0-1.59-1.78A1.92,1.92,0,0,0,27,26.23Z"/><path class="cls-3" d="M21.9,27.83a1.61,1.61,0,0,1-.75,2.26A1.92,1.92,0,0,1,18.82,29a1.61,1.61,0,0,1,.75-2.26A1.92,1.92,0,0,1,21.9,27.83Z"/></g></g></svg>