<svg xmlns="http://www.w3.org/2000/svg" viewBox="0 0 58.2 92.48"><defs><style>.cls-1{fill:#ffd01f;}.cls-2{fill:#ffebcb;}.cls-3{fill:#35312d;}.cls-4{fill:#ffb100;}</style></defs><title>Asset 58</title><g id="Layer_2" data-name="Layer 2"><g id="Layer_1-2" data-name="Layer 1"><path class="cls-1" d="M52.48,69.84a22,22,0,0,1-22,22h0a22,22,0,0,1-22-22V42.47a22,22,0,0,1,22-22h0a22,22,0,0,1,22,22Z"/><path class="cls-2" d="M8.46,69.63v.74a22.11,22.11,0,1,0,44.22,0v-.74s-7.37-9.58-22.85-9.58S8.46,69.63,8.46,69.63Z"/><circle class="cls-3" cx="15.84" cy="51.2" r="2.95"/><circle class="cls-1" cx="23.94" cy="77" r="2.95"/><circle class="cls-1" cx="37.21" cy="77" r="2.95"/><circle class="cls-3" cx="44.58" cy="51.2" r="2.95"/><rect class="cls-1" x="17.35" y="8.91" width="5.16" height="18.43" transform="translate(-4.72 7.25) rotate(-18.48)"/><circle class="cls-4" cx="15.88" cy="6.39" r="6.39" transform="matrix(0.95, -0.32, 0.32, 0.95, -1.21, 5.36)"/><rect class="cls-1" x="28.57" y="15.54" width="18.43" height="5.16" transform="translate(8.63 48.22) rotate(-71.53)"/><circle class="cls-4" cx="41.84" cy="6.39" r="6.39" transform="translate(22.52 44.04) rotate(-71.52)"/><path class="cls-1" d="M18.29,27.13s-7.37-7.37-14.74-6.88S.6,37.45,13.87,35.48"/><path class="cls-1" d="M39.91,27.13s7.37-7.37,14.74-6.88,2.95,17.2-10.32,15.23"/><path class="cls-4" d="M12.15,29.09S8.1,24.67,3.67,25.41C3.67,25.41,6.25,36.09,12.15,29.09Z"/><path class="cls-4" d="M45.32,29.09s4.05-4.42,8.48-3.69C53.79,25.41,51.22,36.09,45.32,29.09Z"/></g></g></svg>