<svg xmlns="http://www.w3.org/2000/svg" xmlns:xlink="http://www.w3.org/1999/xlink" viewBox="0 0 381.14 306.14"><defs><style>.cls-1{fill:#ffd01f;}.cls-2{fill:#8bce1c;}.cls-3{fill:#ffb100;}.cls-4{fill:#ffebcb;}.cls-5{clip-path:url(#clip-path);}.cls-6{fill:#ff9300;}.cls-7{fill:#c3cbcf;}.cls-8{fill:#ffc0ad;}.cls-9{fill:#a4b1b8;}.cls-10{fill:#35312d;}.cls-11{fill:#fff2ef;}.cls-12{fill:#e1e5e7;}.cls-13,.cls-21{fill:#8f5e13;}.cls-14{fill:#bd862f;}.cls-15{fill:#629b52;}.cls-16{fill:#fc0;}.cls-17{font-size:42px;fill:none;stroke:#8f5e13;stroke-miterlimit:10;stroke-width:3.79px;font-family:KhmerUI, Khmer UI;}.cls-18{clip-path:url(#clip-path-2);}.cls-19{fill:#70b252;}.cls-20{fill:#d6873a;}.cls-21{opacity:0.3;}.cls-22{fill:#fff;}.cls-23{fill:#56d3de;}</style><clipPath id="clip-path"><path id="_Clipping_Path_" data-name="&lt;Clipping Path&gt;" class="cls-1" d="M222.57,189.87c13.3,41.26-.58,82.56-1,105.48,0,0,7.77,2.34,2.78,7.68s-16.24,2.72-17.23-1.35c-3.74-15.28,3.14-40.26,2.4-58.81-.81-20.13-5.58-22.79-11.22-22.91-5.64.12-10.41,2.79-11.22,22.92-.75,18.55,5.39,43.55,1.65,58.83-1,4.06-12,6.74-16.95,1.39S175,294,175,294c-.42-22.92-14.21-62.9-.91-104.16,5.84-13.6,15.42-135.8,15.42-189.87h14.74S204.82,160.72,222.57,189.87Z"/></clipPath><clipPath id="clip-path-2"><path id="_Clipping_Path_2" data-name="&lt;Clipping Path&gt;" class="cls-2" d="M105.9,39.38s-26-6.57-35.56,4.24c-7.22,8.17,1.07,22,11,14.82,3.83-2.78-2.87-6.69-4.3-4.3,0,0,0-6.21,6.21-4.3s7.65,14.34-1.91,16.73S59.16,64.64,58.39,47.45c-.94-20.93,28.9-38.72,53.53-22.85a7.6,7.6,0,0,1,8.48-2.19c7.39,2.74,10.51,6.9,12.86,16.15C129.27,44.36,114.66,48.69,105.9,39.38Z"/></clipPath></defs><title>Asset 1</title><g id="Layer_2" data-name="Layer 2"><g id="Layer_1-2" data-name="Layer 1"><path class="cls-3" d="M211.69,288.36c.24-13.18,8.48-36.85.83-60.58l-13.27-8.49V219l-.67.15-.67-.15v.3l-13.55,8.49c-7.65,23.73.28,46.55.52,59.74,0,0-4.7,2.15-1.83,5.22s9.18,1.54,9.75-.8c2.15-8.79-1.38-23.17-1-33.84.47-11.58,3.21-13.11,6.46-13.18s6,1.6,6.45,13.18c.43,10.67-3.53,25-1.38,33.84.57,2.34,7,3.87,9.91.8S211.69,288.36,211.69,288.36Z"/><path class="cls-4" d="M184,244.28s16.73,15.66,30.37,0l1.32-50.47-30.81-2.61Z"/><path id="_Clipping_Path_3" data-name="&lt;Clipping Path&gt;" class="cls-1" d="M222.57,189.87c13.3,41.26-.58,82.56-1,105.48,0,0,7.77,2.34,2.78,7.68s-16.24,2.72-17.23-1.35c-3.74-15.28,3.14-40.26,2.4-58.81-.81-20.13-5.58-22.79-11.22-22.91-5.64.12-10.41,2.79-11.22,22.92-.75,18.55,5.39,43.55,1.65,58.83-1,4.06-12,6.74-16.95,1.39S175,294,175,294c-.42-22.92-14.21-62.9-.91-104.16,5.84-13.6,15.42-135.8,15.42-189.87h14.74S204.82,160.72,222.57,189.87Z"/><g class="cls-5"><path class="cls-6" d="M173.88,185.14c-8.68,0-8.68,12.85,0,12.85C181.89,198,181.89,185.14,173.88,185.14Z"/><path class="cls-6" d="M186.56,162.66c-12.68,0-12.68,19.49,0,19.49S199.25,162.66,186.56,162.66Z"/><path class="cls-6" d="M213.87,144.79a11,11,0,1,0,3.22,7.79A11.05,11.05,0,0,0,213.87,144.79Z"/><path class="cls-6" d="M212.6,169.72c-10.68,0-10.68,16.17,0,16.17C222.61,185.89,222.61,169.72,212.6,169.72Z"/><path class="cls-6" d="M197.91,188.74a3.32,3.32,0,1,0,0,6.63C201.25,195.38,201.25,188.74,197.91,188.74Z"/><path class="cls-6" d="M220.92,186.81a9.67,9.67,0,1,0,9.67,9.67A9.77,9.77,0,0,0,220.92,186.81Z"/><path class="cls-6" d="M186.62,132.58A6.41,6.41,0,1,0,193,139,6.47,6.47,0,0,0,186.62,132.58Z"/><path class="cls-6" d="M195.91,188.11c-9.35,0-9.35,14.79,0,14.79C205.92,202.89,205.92,188.11,195.91,188.11Z"/><path class="cls-6" d="M167.36,224.38a6.5,6.5,0,0,0-5.61,9.77,6.3,6.3,0,0,0,3.88,3,6.37,6.37,0,0,0,3.45,0,6.5,6.5,0,0,0-1.73-12.76Z"/><path class="cls-6" d="M185.23,255.48c-8,0-8,12.71,0,12.71S193.24,255.48,185.23,255.48Z"/><path class="cls-6" d="M208.59,260.32c-7.34,0-7.34,11.89,0,11.89C216.6,272.2,216.6,260.32,208.59,260.32Z"/><path class="cls-6" d="M225.95,230.6a4.22,4.22,0,1,0,0,8.43C230.62,239,230.62,230.6,225.95,230.6Z"/><path class="cls-6" d="M233,252.1l0-.15a9.47,9.47,0,1,0-11.64,11.64l.15,0a9.37,9.37,0,0,0,9.11-2.4,9.29,9.29,0,0,0,2.39-4.1C233.64,255.47,233.29,253.75,233,252.1Z"/><path class="cls-6" d="M187.9,230.6c-11.35,0-11.35,18.24,0,18.24C199.91,248.85,199.91,230.6,187.9,230.6Z"/></g><path class="cls-7" d="M309,211.88s11.53,17.3,6.41,41.65,2.56,28.19-.64,34-16,2.56-16,2.56L300,213.16Z"/><path class="cls-7" d="M246.28,206.2s-20.94,14-16.52,49.81c3.05,24.69-2.85,28.16.3,34s16,2.72,16,2.72l-.5-76.9Z"/><path class="cls-8" d="M299,275.3S268,290,242.64,275.3l-2.45-47.4,57.21-2.45Z"/><path class="cls-9" d="M236,294.71c-.64-19.2-22-51.21-1.53-85.77l36.24-12.37v-.43l1.34.22,1.34-.22v.43l36,12.37c20.48,34.56-.86,66.57-1.5,85.77,0,0,8.85,4.48,1.17,9s-20.93,2.12-22.46-1.28c-5.76-12.8,3.69-33.74,2.53-49.29-1.25-16.87-8.61-19.1-17.3-19.2-8.68.1-16,2.33-17.29,19.2-1.15,15.55,8.32,36.48,2.56,49.29-1.53,3.4-14.73,5.76-22.41,1.28S236,294.71,236,294.71Z"/><path class="cls-9" d="M226.46,157.86s-6.89-15.71-16.2-10.05,5,16.23,12.66,14.13S226.46,157.86,226.46,157.86Z"/><path class="cls-9" d="M264,147.59s-2.07-17,8.83-16.9,4,16.5-3.71,18.6S264,147.59,264,147.59Z"/><path class="cls-7" d="M295.13,179.1s-17.75-31.91-28.1-33.49c-10.19-1.55-14.61.66-22.82,2.93s-13.09,2.55-21.07,9.07-7.07,43.12-7.07,43.12l37.21-19Z"/><circle class="cls-10" cx="229.85" cy="173.21" r="2.88" transform="translate(-37.58 66.83) rotate(-15.31)"/><circle class="cls-10" cx="267.87" cy="162.81" r="2.88" transform="translate(-33.48 76.51) rotate(-15.31)"/><path class="cls-11" d="M309.57,201.62a32.94,32.94,0,0,1-23.07,40.46l-31,8.49A32.94,32.94,0,0,1,215,227.5l-1.78-6.5a32.93,32.93,0,0,1,23.08-40.46l31-8.5a32.94,32.94,0,0,1,40.46,23.08Z"/><path class="cls-7" d="M230.06,214.11a17.19,17.19,0,0,1,5.28-9.06,5.39,5.39,0,1,0-5.28,9.06Z"/><path class="cls-7" d="M288.58,198.1a17.19,17.19,0,0,0-9.16-5.11,5.39,5.39,0,1,1,9.16,5.11Z"/><path class="cls-7" d="M134.14,194.16s12,22,6.65,53,2.66,35.88-.66,43.22-16.62,3.26-16.62,3.26l1.33-97.87Z"/><path class="cls-7" d="M63.48,185.59S41.75,203.42,46.34,249c3.17,31.43-3,35.85.31,43.23s16.59,3.47,16.59,3.47l-.52-97.88Z"/><path class="cls-7" d="M119.51,265.22s-28.77,16.72-52.23,0L65,211.35l53-2.79Z"/><path class="cls-9" d="M56.37,291.58c-.66-24.47-22.51-65.24-1.24-109.28l38-15.76V166l.67.28.67-.28v.55l37.79,15.76c21.27,44-.71,84.82-1.38,109.28,0,0,9.28,5.71,1.31,11.42s-21.69,2.71-23.28-1.63c-6-16.31,3.85-43,2.65-62.8-1.3-21.49-8.93-24.34-17.95-24.46-9,.12-16.65,3-17.95,24.46-1.2,19.81,8.64,46.49,2.66,62.8C76.72,305.7,63,308.7,55,303S56.37,291.58,56.37,291.58Z"/><path class="cls-7" d="M128.36,129s34.58-28.64,56.27,7.47-35.43,94.12-75.93,43.7Z"/><path class="cls-9" d="M126.39,134.36s25.87-21.43,42.09,5.59-26.5,70.41-56.81,32.69Z"/><path class="cls-7" d="M67.27,117.74s-24.91-37.36-56-9,6.92,100.33,60.2,63.65Z"/><path class="cls-9" d="M67.62,123.43S49,95.48,25.69,116.7s5.18,75.05,45,47.62Z"/><path class="cls-12" d="M95.18,102.74c-33.5,0-48.39,11.17-47.65,22.34s3.72,48.39,8.19,52.86,14.89,8.19,17.12,14.15.32,18.92-15.3,24.7c-13.29,4.92-21.81-8.7-22.37-18.63,1.16-5,5.52-26.68,5.17-26.7-2.55-.12-7.72,4.29-14.1,14.34-18.78,29.58,10.61,65,46,55.69,38.93-10.28,39.32-44.19,39.32-44.19s-3.72-3.72,12.66-12.66,14.15-28.29,16.38-55.09S116.77,102.74,95.18,102.74Z"/><circle class="cls-10" cx="122.27" cy="153.37" r="3.11"/><circle class="cls-10" cx="63.46" cy="153.37" r="3.11"/><path class="cls-4" d="M59.66,176.55S41,189.7,61,216.68c0,0-3.46-23.52,6.7-30.66C67.74,186,70.73,172.4,59.66,176.55Z"/><path class="cls-4" d="M126.81,184s15.44,16.83-9.92,38.91c0,0,8.4-22.24,0-31.38C116.89,191.51,116.88,177.56,126.81,184Z"/><path class="cls-13" d="M348,294.65c11.29-17.27,5.31-49.41,2.32-60.71L320,223.85,289.66,234c-3,11.31-8.89,43.46,2.44,60.71,0,0-10.71,2.39-6.54,7.74s28.57,5.92,28.56-5.38-1.21-16.66,5.94-16.67,6,5.35,6,16.66,24.41,10.69,28.57,5.33S348,294.65,348,294.65Z"/><ellipse class="cls-4" cx="320.04" cy="257.18" rx="10.76" ry="13.09"/><path class="cls-14" d="M292.11,213.38A48.88,48.88,0,0,0,285.62,257c8.25,25.08,23.07,15.61,20.6,6.15s-6.64-20.38.71-28.38c2.84-3.09,6.18-4.46,10.67-4.83,21.8,0,24,14.05,33.82,14,13.24-.12,20.18-9.55,19.57-30.53-.23-7.9-4.91-11.57-10.12-11.13-4.71.4-7.78,4.95-7.78,11.29,0,2.52.67,6-1.67,6.68-4.36,1.25-8.12-5.45-10.35-7.68C336.62,208.06,292.11,213.38,292.11,213.38Z"/><path class="cls-15" d="M348.75,127.81s6.48-19,.83-24.3L331.1,84.23A8,8,0,0,0,319.78,84h0a8,8,0,0,0-.24,11.33Z"/><path class="cls-15" d="M332.25,142.73a8,8,0,0,1,1.46-11.23h0A8,8,0,0,1,344.95,133l16.29,21.16a8,8,0,0,1-1.46,11.23h0a8,8,0,0,1-11.23-1.46Z"/><path class="cls-3" d="M26.21,272.83a2.88,2.88,0,0,1-3.38,2.26h0a2.88,2.88,0,0,1-2.26-3.38l45-225.64A2.88,2.88,0,0,1,69,43.8h0a2.88,2.88,0,0,1,2.26,3.38Z"/><path class="cls-3" d="M366.89,272.83a2.88,2.88,0,0,0,3.38,2.26h0a2.88,2.88,0,0,0,2.26-3.38l-45-225.64a2.88,2.88,0,0,0-3.38-2.26h0a2.88,2.88,0,0,0-2.26,3.38Z"/><path class="cls-16" d="M66.49,32.51l-10,57s153,26,282,0l-10-57S218.49,52.51,66.49,32.51Z"/><text class="cls-17" transform="translate(83.16 81.85)">SMALL ZOO</text><path id="_Clipping_Path_4" data-name="&lt;Clipping Path&gt;" class="cls-2" d="M105.9,39.38s-26-6.57-35.56,4.24c-7.22,8.17,1.07,22,11,14.82,3.83-2.78-2.87-6.69-4.3-4.3,0,0,0-6.21,6.21-4.3s7.65,14.34-1.91,16.73S59.16,64.64,58.39,47.45c-.94-20.93,28.9-38.72,53.53-22.85a7.6,7.6,0,0,1,8.48-2.19c7.39,2.74,10.51,6.9,12.86,16.15C129.27,44.36,114.66,48.69,105.9,39.38Z"/><g class="cls-18"><path class="cls-1" d="M64.84,26c1.09,4.11,3.28,4.65,7.12,6s3.28,3.83,3.28,3.83,1.09-6-2.46-8.48-3.56-7.12-3.56-7.12"/><path class="cls-1" d="M74.15,18.88c.2,4.24,2.23,5.24,5.69,7.39s2.4,4.44,2.4,4.44,2.34-5.66-.62-8.81-2-7.71-2-7.71"/><path class="cls-1" d="M86.72,15.48c-1,4.13.66,5.66,3.37,8.69s1.05,4.94,1.05,4.94S95,24.35,93,20.48s.28-8,.28-8"/><path class="cls-1" d="M100.32,15.65c-2.25,3.6-1.16,5.58.45,9.31s-.56,5-.56,5,5.15-3.31,4.52-7.59,2.77-7.46,2.77-7.46"/></g><circle class="cls-2" cx="117.94" cy="25.42" r="6.84"/><circle class="cls-10" cx="117.94" cy="25.42" r="2.85"/><path class="cls-19" d="M81.54,32.26s8.21,1.37,7.94,8.76c0,0,3.28-1.09,3.56,1.92S87.56,44,87.56,44s-.27,2.74-2.46,2.74-3.56-3-.55-4.93c0,0-.82-4.11-4.93-3.83"/><path class="cls-19" d="M99.73,32.14s7.89,2.67,6.43,9.92c0,0,3.42-.55,3.21,2.46s-5.58.2-5.58.2-.71,2.66-2.87,2.31-3-3.54.25-5c0,0-.15-4.18-4.25-4.57"/><path class="cls-2" d="M343.07,156.1s-15-13.35-12.71-20.73l9.7-41.68c7.68,3.67,14.69,13.13,12,21.81Z"/><path class="cls-2" d="M343.18,193.15c-4.29-1.09-3.23-6.76-2.14-11.05l11.71-39c7.34,4.34,11.46,12.77,10.37,17.06-2.58,7.2-6.59,17.88-2.58,23.22s19.58,1.78,16.46-10.24c0,0,7.12,4.9,2.67,16.47s-24.82,17.82-34.71,5.79"/><path class="cls-13" d="M136,292.64c.69-7.79-1.73-14.23-8-18.95-5.59-4.2-12.61-7.16-15.65-13.92-1.95-4.33-3.23-13.81,1.94-16.72,2-1.15,5-1.34,6.42.71.88,1.28,1.52,4-.36,4.83-6.66,2.78-3.74,13.79,3,11A14.8,14.8,0,0,0,128.23,235c-7.64-7.67-21.38-4-26.16,5-5.14,9.7-2.69,22.65,4,30.89,3.48,4.26,8.09,7.27,12.67,10.22,4.87,3.14,6.4,5.48,5.87,11.51-.65,7.29,10.73,7.25,11.38,0Z"/><path class="cls-13" d="M175.93,292.31h-13.7a14.35,14.35,0,0,0-28.69.19c0,4.58,10,8.66,13.3,11.29h24.83c6.39,0,13.72-1.1,14.43-8.43s-1.18-15.37-6.62-8.52C176.12,291.07,175.93,292.31,175.93,292.31Z"/><path class="cls-20" d="M181,294.63h-13.7a14.35,14.35,0,0,0-28.69.19c0,4.58,10,8.66,13.3,11.29h24.83c6.39,0,13.72-1.1,14.43-8.43s-1.18-15.37-6.62-8.52C181.18,293.39,181,294.63,181,294.63Z"/><path class="cls-20" d="M168.07,268.25C165.54,254,166,247,153.59,247h-.14a22.42,22.42,0,0,0-22.29,22.53v24.12c0,12.37,7.57,12.47,21.81,12.47s14.4-11.77,15.87-19.79S168.07,268.25,168.07,268.25Z"/><path class="cls-8" d="M145.52,302.61a42.08,42.08,0,0,0-1.86-12.06c-2-5.55-6.09-13.57-12.61-14.58v17.66c0,10,5,12,14.42,12.38A27.94,27.94,0,0,0,145.52,302.61Z"/><path class="cls-21" d="M131.47,288.67s.51-7.33,4.43-12.45c4.45-5.81,12.6-9.56,16.8-10.56C152.7,265.67,126,264,131.47,288.67Z"/><path class="cls-20" d="M132.32,288.81c-2.74-7.09-1-10.35,1.8-14.56,2.57-3.84,12.69-6.28,18.58-8.59l-4.77-9.9c-.18.07-14.56,3.16-20.64,13.91-4,7.07-6.36,13-2.25,23,2,3.72,3.69,9,7.23,7.14s2-5.63,2-5.63,3,1,3.16-1.7S132.32,288.81,132.32,288.81Z"/><path class="cls-12" d="M48.29,187.41a3.1,3.1,0,0,1-3.75,2.27h0a3.1,3.1,0,0,1-2.5-3.61l2.76-13.13a3.1,3.1,0,0,1,3.75-2.27h0a3.1,3.1,0,0,1,2.5,3.61Z"/><polygon class="cls-3" points="251.69 121.08 283.69 117.61 280.61 109.9 254.78 111.83 251.69 121.08"/><path class="cls-1" d="M250.54,100.26s14.65-3.47,25.83.39,12.34,17.35,11.57,21.2-3.08-1.93-8.1-4.63c-5.76-3.1-26.6,0-26.6,0Z"/><path class="cls-6" d="M278.58,101.6c-2.4,4.25-3,9.42-3.16,14.49a12.9,12.9,0,0,1,4.42,1.13c5,2.7,7.33,8.48,8.1,4.63C288.65,118.27,287.7,106.36,278.58,101.6Z"/><path class="cls-10" d="M230.14,129.59c.37-10.8,7.08-30.68,17.87-32,2.4-.3,6.79-.19,9.44,1.35,3.07,1.78,4.26,5.23,4.72,8.43,1.35,9.44-2.55,14.09-2,20.23,1,11.8-4.38,22.25-17.53,21.24S229.81,139.36,230.14,129.59Z"/><path class="cls-19" d="M249.76,147.39a3.52,3.52,0,0,1-.24.74c7.49-2.31,10.89-9.78,10.75-18.34C253.86,132.76,251.12,140.91,249.76,147.39Z"/><path class="cls-22" d="M244.64,102.62c-5.06,5.73-5.9,13.82-2.86,19.22,3.72,6.61,10.85,7.39,14.91,1.44,4.38-6.41,4.47-15.77.76-20C254.73,100.2,247.64,99.22,244.64,102.62Z"/><path class="cls-23" d="M256.59,114.9c-1.34,4.66-5,7.32-8.15,6s-4.64-6.25-3.3-10.91,5-7.32,8.15-5.95S257.93,110.25,256.59,114.9Z"/><circle class="cls-10" cx="250.97" cy="109.72" r="4.05" transform="matrix(0.21, -0.98, 0.98, 0.21, 90.17, 331.46)"/><path class="cls-6" d="M238.75,145.12c-3.08.13-5.94,2.42-4.84,6.16s4.84,2.42,5.06-1.32c0,0,0,4,3.08,3.3S244,144.9,238.75,145.12Z"/><path class="cls-6" d="M250.38,143.38c-3.08.13-5.94,2.42-4.84,6.16s4.84,2.42,5.06-1.32c0,0,0,4,3.08,3.3S255.66,143.16,250.38,143.38Z"/><path class="cls-23" d="M231.66,121c-2,2.53-8.09,18.71-3,35.14s4.55-3.54,6.83-9.1,4.55-7.59,3-14.41A24.89,24.89,0,0,0,231.66,121Z"/><path class="cls-19" d="M238.49,132.62A24.89,24.89,0,0,0,231.66,121a16.14,16.14,0,0,0-1.87,3.8c3.31,3.09,2.62,11.59,2.49,15-.19,5-.29,10.1-.44,15.15-.08,2.53,0,5,.13,7.5,1.68-.81,1.92-11.56,3.49-15.41C237.73,141.47,240,139.45,238.49,132.62Z"/></g></g></svg>