<svg xmlns="http://www.w3.org/2000/svg" viewBox="0 0 1015.36 268.14"><defs><style>.cls-1{fill:#60792b;}.cls-2,.cls-3{fill:none;stroke-linecap:round;stroke-linejoin:round;}.cls-2{stroke:#9ec423;}.cls-3{stroke:#60792b;}.cls-4{fill:#c7cb36;}</style></defs><title>Asset 18</title><g id="Layer_2" data-name="Layer 2"><g id="Layer_1-2" data-name="Layer 1"><path class="cls-1" d="M525.72,132.13c8-4.82,3.29-17.54-5.6-19.4,13.13-5.74,7.87-23.84-6-22,1-10.46,5.77-27.2-10.88-25.7,6.87-7.11,3.82-27.27-8.31-24.44,7.68-17.78-8.28-25.21-23.13-21,14.34-14.74-21.4-27.86-24.11-13-8.63-.68-32.38-3.12-31.9,9.09C407.58-.57,378.92,14.53,382,30.46c-17.22-13.31-28-2.23-36.63,12.5-6.08-13.11-16.78-15.09-27.19-6,3.92-8.73-1.46-14.1-9.42-11.95,8.88-4,5.71-13.85-2.88-12.08,11.48-2.36-17.1-25.51-23-1.09-10.51-7.46-22.93-1.21-23.79,11.72-9.74-2-30.27-10.36-30.09,7-12.25-9.2-25.75-5.79-28.14,9.68a16.11,16.11,0,0,0-2.59-.72A5.25,5.25,0,0,0,196.79,38c-1-.67-7.82-1.5-6.2,1.35-3.24-5.72-12.22-3.76-10.91,3.35-1.42-3.38-5.75-4.36-8.9-2.54-3.92,2.27-2.77,6.48-.86,9.64l0,0c-6.3-6.13-13.18,4.79-7.55,9.53l-.14.11C156.5,56.68,150,62,154.12,66.7c-2.06-1-5.31.2-6.4,2.06a5.56,5.56,0,0,0,1,6.38c-4.83.59-3.31,6.29,1.38,7.49-4.29.29-4.37,6.25-2.69,8.45-2.9-2.4-5.12,1-2.66,3.09-3.36,0-2.57,4.82.92,3-1.42,1.55-1,4.76,1.65,3.46-3.05,2.5-3.51,5.78,3.5,7.73-7-1.08-14,3.79-12.7,10.74-5.73-4.37-29.24,1-26.66,13.5-4.24-10.1-28.26-2.64-21.08,11.71-7.68-12.83-30.36-1.43-24.66,11.43-8.05-11.65-31,1.24-23.25,16.06C29,164.51,12.94,186.4,30.33,197.08c-12.39-3.94-17.41,16.73-4.34,19-13.93,2.77-6.57,19.72,8.11,14.57,8.64-3,29.83,2.21,38.33,3.53,15,2.33,23.48-6.84,36.35-9.5,4.6-1,6.61,2.34,10.75,1.64,11.17-1.88,22.5-10.62,33-12.19,11.36-1.7,27.21,9,33-7.46,14.8,6.49,27.38,7.32,39.11,2.12,9.67-4.29,19.1-10.39,27.51-12,10.66-2.05,28.16,5.56,32.65-9.36,8.81,5.88,32.8,3.66,35.37-8.36,17.68,9.2,25.18-9.4,37.77-11.12,13.51-1.84,21.52,11.26,35-4.51,10.65,11.11,25.51,3.75,38.29,1.1,7.42,10.18,26.33,5.34,34.74-1.71,13.71,12.44,24.41,3.94,39.16,3.75,4.68-.06,24-5.07,24.47-5.1C541.2,154.93,536.26,136.79,525.72,132.13Z"/><path class="cls-1" d="M529.62,161.51h0Z"/><path class="cls-2" d="M182.34,49.52c-4,.28-7.63,1.4-5.89,6.34"/><path class="cls-2" d="M172.46,66c-2.79.73-6.49,3.88-3.23,6.51"/><path class="cls-2" d="M187.92,62.41c-3.1-.35-5.4,1.25-4.19,4.63"/><path class="cls-2" d="M172.27,82.26c-3.06-1.29-6.76.52-5,4.31"/><path class="cls-2" d="M164.44,98.49c-1.73-.27-3.25.38-3.7,2.16"/><path class="cls-2" d="M216.44,59.8c-2.64-7.84,4-11.1,11.25-10.45"/><path class="cls-2" d="M246.42,37.18c-6.41-.8-6,7-4.75,11.32"/><path class="cls-2" d="M243.42,53.87c-2.32-.77-5.54-.12-5.95,2.68"/><path class="cls-2" d="M140.38,129.72c-.27-5.08,6.57-6.72,10.4-5"/><path class="cls-2" d="M154.33,124.17a5.84,5.84,0,0,1,1.18-6.3"/><path class="cls-2" d="M116.58,138.07c4.69-3.64,8.8-5.17,12.52.8"/><path class="cls-2" d="M132.64,141.73a5.93,5.93,0,0,1,3.71-5.57"/><path class="cls-2" d="M74.56,158.47c.64-4.38,8.8-5.6,10.76,1.35-.9-7.28,5.89-8,7.95-3.28"/><path class="cls-2" d="M71.8,172.75c3.94-7.6,11.47-4.55,10.77,3.34.49-6,5.07-8.79,9.83-2.53-3.64-6.76,0-11.06,4.61-10.06"/><path class="cls-2" d="M354.86,49.24c-5-3.3-10.44.83-10.82,6.26-5.34,0-15.1-4.64-16,4.46.26-5.72-5.53-9.64-8.46-8.15"/><path class="cls-2" d="M284.62,39.38c2-11.2,15.8-4.36,11.87,7.18,6.65-6.32,13.33,1.61,8.86,8.51"/><path class="cls-3" d="M275.21,106.74c-8-9.67,4.15-20.84,9.75-13-3.14-9.57,14.87-18.16,18.33-6.74"/><path class="cls-2" d="M404.17,30.51c-9-4.46-11.59,4.16-9,11.57-5.86.23-11.2,3.19-9.46,9.57-8.49-2.53-12.2,5.72-6.25,11.24"/><path class="cls-2" d="M207,87.4c-6-6.89-16.72,4.32-14.36,12.11-11.88.57-13.05,12-10.15,21.57-9.57-1.57-11.74,9.32-9.17,16.51"/><path class="cls-2" d="M255.7,87.86c-7.32,1-16.37,3.75-12.72,13.19"/><path class="cls-4" d="M1015.36,266.73H0S227.3,60.57,507.68,60.57,1015.36,266.73,1015.36,266.73Z"/><path class="cls-1" d="M112.94,248.33c-.35.41-1.62-.26-3-.7a9.7,9.7,0,0,0-1.78-.37c-.5-.07-.9-.12-1-.36s.12-.62.74-.93a3.58,3.58,0,0,1,2.62-.12,4.42,4.42,0,0,1,2.07,1.38C113,247.72,113.11,248.14,112.94,248.33Z"/><ellipse class="cls-1" cx="114.72" cy="244.24" rx="0.94" ry="2.69" transform="translate(-51.7 31.83) rotate(-12.92)"/><path class="cls-1" d="M120.59,246.12c-.48.12-1.52-2.11-1.74-5.13s.66-5.44,1.16-5.31.48,2.39.71,5.18S121.11,246,120.59,246.12Z"/><path class="cls-1" d="M220.21,219.09c-.37.36-1.77-.62-2.43-2.45s-.34-3.43.17-3.44,1,1.27,1.59,2.78S220.59,218.74,220.21,219.09Z"/><path class="cls-1" d="M216,219.44c-.2.47-1.29.48-2.36-.19s-1.54-1.66-1.2-2,1.29-.11,2.19.46S216.22,219,216,219.44Z"/><path class="cls-1" d="M213.65,222.43c.15.51-.52,1.06-1.28,1.09a1.28,1.28,0,0,1-1.39-.78c-.15-.51.52-1.06,1.28-1.09A1.28,1.28,0,0,1,213.65,222.43Z"/><path class="cls-1" d="M230.6,182.11c-.22.46-.89.67-1.78.53s-1.67-.83-1.45-1.31.89-.67,1.78-.53S230.82,181.63,230.6,182.11Z"/><path class="cls-1" d="M235.81,180.92c-.14.2-.65.16-1.25-.34a4.46,4.46,0,0,1-1.35-2.49,7.17,7.17,0,0,1-.07-2.61c.11-.65.31-1.06.56-1.09.55-.07,1,1.57,1.34,3.31a15.3,15.3,0,0,0,.57,2.09C235.8,180.31,236,180.7,235.81,180.92Z"/><path class="cls-1" d="M239.64,180.34c-.5.14-1.4-1.83-1.57-4.38s.23-4.56.74-4.57,1,2,1.13,4.43S240.14,180.21,239.64,180.34Z"/><path class="cls-1" d="M179.31,214.68c-.24.45-1.47.33-2.9-.11s-2.57-1.22-2.4-1.72,1.45-.54,3-.07S179.56,214.22,179.31,214.68Z"/><path class="cls-1" d="M180.19,210.52c-.12.49-1.43.59-2.66-.35s-1.46-2.21-1-2.47,1.31.32,2.18,1S180.33,210,180.19,210.52Z"/><path class="cls-1" d="M183.73,210c-.23.1-.69-.36-1.15-1.23a13.11,13.11,0,0,1-1.15-3.61c-.48-2.88-.5-5.16,0-5.29s1.4,2.15,1.87,5S184.19,209.79,183.73,210Z"/><path class="cls-1" d="M351.61,159c-.4.31-1.55-.38-2.68-1.63s-1.59-2.74-1.12-3,1.44.56,2.53,1.75S352,158.71,351.61,159Z"/><path class="cls-1" d="M355.55,156.3c-.47.21-1.36-.81-1.75-2.29s-.23-2.74.27-2.85,1.17,1,1.54,2.36S356,156.08,355.55,156.3Z"/><path class="cls-1" d="M361.35,151c-.52-.08-.73-1.26-.6-2.56s.47-2.36,1-2.41,1,1.13.88,2.58S361.85,151.08,361.35,151Z"/><path class="cls-1" d="M332.62,215.83c0,.25-.37.46-.93.53a5.43,5.43,0,0,1-2.05-.23c-1.46-.45-2.49-1-2.47-1.5,0-.25.37-.46.93-.53a5.43,5.43,0,0,1,2,.23C331.61,214.78,332.63,215.32,332.62,215.83Z"/><path class="cls-1" d="M337.11,211.45c-.13.22-.51.27-1,.1a4,4,0,0,1-1.56-1.08c-1-1.06-1.33-2.11-1-2.48s1.48.22,2.35,1.2S337.35,211,337.11,211.45Z"/><path class="cls-1" d="M341.94,207.29c-.23.11-.65-.2-1.08-.85a8.7,8.7,0,0,1-1.09-2.75c-.48-2.23-.4-4,.09-4.15s1.29,1.61,1.74,3.73S342.4,207,341.94,207.29Z"/><path class="cls-1" d="M291.41,133.2c0,.25-.23.51-.67.64a2.86,2.86,0,0,1-1.69-.08c-1.26-.43-1.87-1.38-1.59-1.8s1.24-.29,2.18,0S291.36,132.68,291.41,133.2Z"/><path class="cls-1" d="M294.33,131.31c-.39.33-1.39-.19-2.1-1.28s-.76-2.25-.28-2.45,1.23.47,1.86,1.43S294.73,131,294.33,131.31Z"/><path class="cls-1" d="M299.12,129.6c-.5,0-1.09-1.34-1.13-3.2s.68-3.33,1.18-3.21.66,1.5.69,3.19S299.65,129.56,299.12,129.6Z"/><path class="cls-1" d="M499.93,92.12c-.41.33-2-1-3.72-2.68s-3.1-3.1-2.86-3.54,2.33.37,4.16,2.2S500.32,91.81,499.93,92.12Z"/><path class="cls-1" d="M506.23,88.74c-.37.34-1.58-.32-2.21-1.87a3.48,3.48,0,0,1-.2-2.09c.15-.54.43-.82.68-.8s.46.33.65.72.39.9.62,1.47C506.21,87.32,506.63,88.4,506.23,88.74Z"/><path class="cls-1" d="M513.25,88.42c-.49,0-1.08-2.19-.9-5.06s1.39-5,1.86-4.82.17,2.32,0,5S513.79,88.41,513.25,88.42Z"/><path class="cls-1" d="M544.55,107c-.34.37-1.6-.17-2.67-1.43s-1.34-2.65-.9-2.9,1.41.59,2.34,1.7S544.91,106.62,544.55,107Z"/><path class="cls-1" d="M551.42,106.07c-.32.36-2-.41-3.16-2.34a5.08,5.08,0,0,1-.79-2.78c0-.77.32-1.2.56-1.19s.47.41.74,1,.61,1.26,1.09,2C550.82,104.32,551.8,105.67,551.42,106.07Z"/><path class="cls-1" d="M556.65,103.58c-.5-.08-.8-1.49-1.14-3.31s-.3-3.45.21-3.56S557,98,557.36,100a6.75,6.75,0,0,1,0,2.59C557.19,103.23,556.9,103.61,556.65,103.58Z"/><path class="cls-1" d="M533,143.78c-.39.33-2.11-1-3.55-3.26s-1.95-4.41-1.47-4.6,1.67,1.48,3,3.58S533.43,143.44,533,143.78Z"/><path class="cls-1" d="M540.51,142.71c-.48.11-1.43-1.71-1.79-4.27a8.24,8.24,0,0,1,.18-3.34c.25-.85.63-1.29.87-1.23s.35.59.45,1.36l.36,3C540.91,140.53,541,142.59,540.51,142.71Z"/><path class="cls-1" d="M548.32,140.27c-.25,0-.54-.58-.68-1.61a9.82,9.82,0,0,1,.36-4,7.35,7.35,0,0,1,2.19-3.54c.85-.7,1.55-.83,1.68-.63s-.22.73-.68,1.5a14,14,0,0,0-1.39,3.21C549,137.81,548.87,140.23,548.32,140.27Z"/><path class="cls-1" d="M494.21,182.31c-.18.19-.85-.13-1.8-.78s-2.17-1.63-3.52-2.61a23.49,23.49,0,0,0-3.59-2.2c-1-.48-1.64-.74-1.62-1s.78-.45,2-.26A10.4,10.4,0,0,1,490,177.4a17.88,17.88,0,0,1,3.33,3.15C494,181.46,494.39,182.12,494.21,182.31Z"/><ellipse class="cls-1" cx="498.92" cy="174.78" rx="0.94" ry="4.39" transform="translate(-26.45 115.96) rotate(-12.92)"/><path class="cls-1" d="M508.52,174.52c-.52,0-1-2-1-4.49s.36-4.48.87-4.5,1,2,1,4.49S509,174.53,508.52,174.52Z"/><path class="cls-1" d="M422.07,117.71c-.4.32-1.82-.73-3.3-2.31s-2.33-3.26-1.92-3.58,1.82.73,3.3,2.31S422.49,117.39,422.07,117.71Z"/><path class="cls-1" d="M429.42,116c-.52,0-1-2-1.44-4.53s-.57-4.67-.06-4.79,1.42,1.84,1.9,4.46S429.93,116,429.42,116Z"/><ellipse class="cls-1" cx="437.64" cy="108.33" rx="0.94" ry="4.49" transform="translate(-1.52 6.35) rotate(-0.83)"/><path class="cls-1" d="M412.06,186.34c-.34.36-2.45-1.08-4.17-3.67s-2.21-5.11-1.74-5.28,1.71,1.86,3.3,4.24S412.44,186,412.06,186.34Z"/><path class="cls-1" d="M419.31,181.46c-.33.37-1.95-.45-3.21-2.28a6.24,6.24,0,0,1-1.08-2.62c-.09-.74.06-1.22.3-1.28.52-.08,1.22,1.28,2.32,2.83S419.67,181.06,419.31,181.46Z"/><path class="cls-1" d="M427,178.41c-.5.14-1.34-1.56-1.4-3.76s.43-3.87.94-3.86.87,1.74.94,3.79S427.48,178.27,427,178.41Z"/><path class="cls-1" d="M393,249.31c-.26.46-2-.15-3.65-1.45s-2.76-2.49-2.51-2.94,2,.15,3.65,1.45S393.27,248.87,393,249.31Z"/><path class="cls-1" d="M399.75,247.77c-.18.18-.78-.08-1.53-.76a11.83,11.83,0,0,1-2.33-3.1c-1.41-2.67-1.88-5-1.44-5.22s1.77,1.83,3.09,4.33S400.1,247.39,399.75,247.77Z"/><path class="cls-1" d="M407.23,246.7c-.23.08-.84-.91-1.46-2.67a40.54,40.54,0,0,1-1.62-7c-.42-2.76-.69-5.24-.86-7s-.2-2.95.06-3,.74,1,1.24,2.76a61.33,61.33,0,0,1,1.41,7l1.05,7C407.32,245.48,407.48,246.61,407.23,246.7Z"/><path class="cls-1" d="M298.72,259.35c0,.25-.57.42-1.44.36a6.65,6.65,0,0,1-3.14-1.19,6.42,6.42,0,0,1-2.2-2.55c-.36-.8-.36-1.37-.13-1.48.48-.22,1.6,1.27,3.4,2.49S298.79,258.82,298.72,259.35Z"/><path class="cls-1" d="M303.72,253.05c-.13.22-.51.27-1,.09a3.47,3.47,0,0,1-1.52-1.22c-.93-1.24-.83-2.67-.3-2.74s1.11.7,1.82,1.63S304,252.59,303.72,253.05Z"/><path class="cls-1" d="M310.45,251.51c-.53,0-1-2.11-1.14-4.68s-.24-4.64.26-4.78,1.43,1.94,1.61,4.63S311,251.49,310.45,251.51Z"/><path class="cls-1" d="M281.07,169.22c-.27.43-2.11-.18-4.08-1.53s-3.17-2.94-2.83-3.33,2,.5,3.89,1.78S281.35,168.77,281.07,169.22Z"/><path class="cls-1" d="M284.74,168.37c-.46.27-1.78-1.46-2.42-3.89s-.64-4.43-.15-4.54,1.33,1.74,2,4S285.18,168.12,284.74,168.37Z"/><ellipse class="cls-1" cx="292.98" cy="159.4" rx="0.94" ry="3.77" transform="translate(-28.22 69.55) rotate(-12.92)"/><path class="cls-1" d="M262.43,222c-.25.45-1.73.06-3-1.2s-1.65-2.75-1.2-3,1.43.59,2.52,1.66S262.69,221.52,262.43,222Z"/><path class="cls-1" d="M267.24,217.65c-.24.44-1.7.12-2.9-1.22a4,4,0,0,1-1-2.05c-.08-.61.1-1,.34-1.06.52-.06,1.13.85,2.08,1.87S267.51,217.2,267.24,217.65Z"/><path class="cls-1" d="M273.22,215.64c-.11.26-.73.07-1.13-.49a5.29,5.29,0,0,1-.93-2.28c-.34-1.85.15-3.38.66-3.35s.88,1.39,1.19,3c.14.82.25,1.55.29,2.07A2,2,0,0,1,273.22,215.64Z"/><path class="cls-1" d="M357.2,118.43c-.13.21-.75.13-1.6-.32a9.34,9.34,0,0,1-2.82-2.42c-1.83-2.31-2.28-4.67-1.83-4.85s1.67,1.66,3.29,3.68S357.46,118,357.2,118.43Z"/><path class="cls-1" d="M362.14,114.72c-.33.38-1.73-.25-2.72-1.82a4.71,4.71,0,0,1-.76-2.21c0-.61.13-1,.38-1.06.52-.09,1.15,1,2,2.27S362.5,114.32,362.14,114.72Z"/><ellipse class="cls-1" cx="368.43" cy="108.44" rx="0.94" ry="2.82" transform="translate(-14.92 85.06) rotate(-12.91)"/><path class="cls-1" d="M469,92.34c-.53.11-1.11-1.2-1.92-2.38a9.7,9.7,0,0,0-1.18-1.39c-.35-.36-.64-.65-.58-.91s.48-.42,1.16-.28a3.58,3.58,0,0,1,2.14,1.52,4.42,4.42,0,0,1,.79,2.36C469.4,91.89,469.23,92.29,469,92.34Z"/><ellipse class="cls-1" cx="472.9" cy="90.21" rx="2.69" ry="0.94" transform="translate(191.3 480.69) rotate(-65)"/><path class="cls-1" d="M476.38,95.29c-.46-.2.1-2.6,1.78-5.12s3.86-3.88,4.18-3.48-1.09,2.18-2.62,4.52S476.87,95.51,476.38,95.29Z"/><path class="cls-1" d="M571.57,135.19c-.51.06-1-1.58-.42-3.43s1.84-2.91,2.25-2.61,0,1.62-.46,3.17S572.09,135.14,571.57,135.19Z"/><path class="cls-1" d="M568.05,132.89c-.44.25-1.31-.41-1.75-1.6s-.19-2.26.31-2.35,1.08.7,1.45,1.71S568.51,132.64,568.05,132.89Z"/><path class="cls-1" d="M564.36,133.79c-.19.49-1.06.52-1.68.07a1.28,1.28,0,0,1-.62-1.47c.19-.49,1.06-.52,1.68-.07A1.28,1.28,0,0,1,564.36,133.79Z"/><path class="cls-1" d="M602.5,112.4c-.46.23-1.11,0-1.73-.68s-.81-1.68-.33-1.93,1.11,0,1.73.68S603,112.16,602.5,112.4Z"/><path class="cls-1" d="M607.34,114.66c-.23.07-.61-.28-.78-1a4.46,4.46,0,0,1,.47-2.79,7.17,7.17,0,0,1,1.55-2.11c.49-.45.89-.65,1.11-.51.48.28-.17,1.86-1,3.43a15.29,15.29,0,0,0-.83,2C607.71,114.17,607.6,114.59,607.34,114.66Z"/><path class="cls-1" d="M610.72,116.56c-.48-.2,0-2.31,1.46-4.42s3-3.45,3.39-3.15-.47,2.17-1.83,4.19S611.2,116.76,610.72,116.56Z"/><path class="cls-1" d="M542,106.58c-.47.21-1.36-.64-2.22-1.87s-1.28-2.54-.83-2.83,1.47.47,2.38,1.77S542.5,106.37,542,106.58Z"/><path class="cls-1" d="M545.27,103.83c-.39.31-1.49-.41-1.89-1.91s.2-2.64.7-2.58.83,1.05,1.12,2.11S545.7,103.52,545.27,103.83Z"/><path class="cls-1" d="M548.38,105.61c-.24-.07-.33-.7-.15-1.68a13.11,13.11,0,0,1,1.31-3.56c1.39-2.56,2.77-4.38,3.23-4.19s-.21,2.56-1.57,5.06S548.88,105.71,548.38,105.61Z"/><path class="cls-1" d="M491.19,149.8c-.4.36-1.68-.58-3-1.71s-2.44-1.89-2.32-2.4c.07-.24.53-.36,1.21-.23a5.33,5.33,0,0,1,2.32,1.2C491,148,491.55,149.48,491.19,149.8Z"/><path class="cls-1" d="M494.73,147.85c-.51.07-1.07-.68-1.24-1.77s.22-2.07.73-2.07,1,.77,1.12,1.79S495.25,147.77,494.73,147.85Z"/><path class="cls-1" d="M501.41,149c-.46-.21-.24-1.8.7-3.54s2.34-2.75,2.72-2.41-.22,1.72-1.08,3.31S501.88,149.22,501.41,149Z"/><ellipse class="cls-1" cx="532.71" cy="180.28" rx="0.94" ry="2.44" transform="translate(-26.46 120.24) rotate(-12.57)"/><path class="cls-1" d="M537.78,183.45c-.24.09-.55,0-.81-.4a2.7,2.7,0,0,1,.13-3.14c.29-.33.61-.44.84-.33.46.25.48,1.1.46,2S538.26,183.25,537.78,183.45Z"/><path class="cls-1" d="M544.31,184.2c-.44-.25.15-2.19,1.7-4.14s3.39-2.92,3.7-2.53-.83,1.91-2.24,3.69S544.77,184.47,544.31,184.2Z"/><path class="cls-1" d="M712.15,168.55c-.51,0-1-1.25-1.11-2.93s.43-3.14,1-3,.79,1.32.92,2.93S712.67,168.55,712.15,168.55Z"/><path class="cls-1" d="M716.94,168.82c-.5-.12-.57-1.47,0-2.89s1.5-2.3,2-2.09.32,1.48-.23,2.81S717.44,168.94,716.94,168.82Z"/><path class="cls-1" d="M724.77,168.21c-.36-.38.2-1.44,1.1-2.39s1.82-1.57,2.26-1.29.12,1.52-.89,2.58S725.11,168.58,724.77,168.21Z"/><path class="cls-1" d="M662.27,201.69c-.17.19-.58.14-1.06-.15a5.43,5.43,0,0,1-1.48-1.44c-.88-1.25-1.35-2.31-1-2.7.17-.19.58-.14,1.06.15a5.43,5.43,0,0,1,1.48,1.44C662.11,200.25,662.59,201.3,662.27,201.69Z"/><path class="cls-1" d="M668.5,201c-.24.09-.57-.1-.85-.53a4,4,0,0,1-.56-1.81c-.1-1.42.25-2.48.75-2.56s1,1.08,1.12,2.39S669,200.78,668.5,201Z"/><path class="cls-1" d="M674.87,200.68c-.25-.05-.39-.56-.33-1.33a8.7,8.7,0,0,1,.83-2.84c1-2.05,2.16-3.42,2.62-3.22s0,2.06-.92,4S675.38,200.77,674.87,200.68Z"/><path class="cls-1" d="M680.53,111.19c-.15.21-.49.26-.92.1a2.86,2.86,0,0,1-1.28-1.1c-.73-1.12-.63-2.24-.15-2.39s1.16.53,1.71,1.35S680.81,110.75,680.53,111.19Z"/><path class="cls-1" d="M684,111.49c-.51,0-1-1-.87-2.29s.78-2.24,1.28-2.1.68,1.12.59,2.27S684.51,111.47,684,111.49Z"/><path class="cls-1" d="M688.82,113.09c-.42-.28,0-1.73,1.08-3.22s2.58-2.21,2.91-1.81-.41,1.59-1.41,2.94S689.27,113.38,688.82,113.09Z"/><path class="cls-1" d="M563,233.18c-.38.36-1.69-.6-2.41-2.26s-.74-3.07-.27-3.25,1.33,1,2,2.48S563.42,232.83,563,233.18Z"/><path class="cls-1" d="M568.56,231.17c-.52.08-1.06-1.15-1-2.64s.59-2.57,1.1-2.55.85,1.25.77,2.64S569.07,231.09,568.56,231.17Z"/><path class="cls-1" d="M576.5,234.54c-.45-.21-.31-1.71.68-3.37A4.6,4.6,0,0,1,579,229.4c.63-.3,1.11-.24,1.21,0s-.09.58-.37,1l-1.08,1.74C577.92,233.57,577,234.77,576.5,234.54Z"/><path class="cls-1" d="M870.27,206.91c-.52,0-1-2-1.29-4.4s-.55-4.35-.08-4.55,1.62,1.72,1.93,4.29S870.78,206.91,870.27,206.91Z"/><path class="cls-1" d="M877.32,208.13c-.5,0-1-1.22-.6-2.83a3.48,3.48,0,0,1,1.13-1.77c.45-.34.84-.39,1-.21s.16.54.07,1-.25.95-.42,1.54C878.18,207,877.85,208.1,877.32,208.13Z"/><path class="cls-1" d="M883.05,212.18c-.39-.29.49-2.39,2.39-4.54s4.18-3.11,4.43-2.66-1.29,1.94-3,3.92S883.49,212.5,883.05,212.18Z"/><path class="cls-1" d="M896.33,246.08c-.5.08-1.16-1.11-1.22-2.77s.57-2.91,1.07-2.84.75,1.33.8,2.78S896.86,246,896.33,246.08Z"/><path class="cls-1" d="M902.33,249.56c-.47.09-1.3-1.53-1.05-3.79a5.08,5.08,0,0,1,1.09-2.68c.51-.58,1-.75,1.18-.59s.12.62,0,1.21-.29,1.37-.4,2.28C902.92,247.81,902.86,249.48,902.33,249.56Z"/><path class="cls-1" d="M908,250.81c-.34-.37.28-1.67,1.13-3.31s1.88-2.91,2.35-2.68.23,1.81-.71,3.57a6.75,6.75,0,0,1-1.6,2C908.62,250.86,908.16,251,908,250.81Z"/><path class="cls-1" d="M864.64,268c-.51,0-1-2.11-.8-4.76s1.17-4.68,1.67-4.53.4,2.2.2,4.7S865.17,268,864.64,268Z"/><path class="cls-1" d="M793.13,179.26c-.51,0-1-1.69-1.18-3.85s.16-4,.69-4,1,1.69,1.18,3.85S793.65,179.26,793.13,179.26Z"/><path class="cls-1" d="M800,182.44c-.41-.32.48-2.2,1.65-4.46s2.42-4,2.9-3.81,0,2.32-1.24,4.69S800.36,182.77,800,182.44Z"/><ellipse class="cls-1" cx="811.17" cy="181.42" rx="4.49" ry="0.94" transform="translate(177.28 719.1) rotate(-52.91)"/><path class="cls-1" d="M743.05,227.25c-.49.07-1.27-2.35-1-5.46s1.4-5.39,1.87-5.24.2,2.52,0,5.37S743.59,227.18,743.05,227.25Z"/><path class="cls-1" d="M751.78,227.85c-.49.09-1.26-1.55-1.13-3.77a6.24,6.24,0,0,1,.76-2.73c.38-.64.8-.93,1-.82.46.25.17,1.76.09,3.66S752.3,227.76,751.78,227.85Z"/><path class="cls-1" d="M759.7,230.16c-.48-.19-.1-2.05,1.21-3.82s2.72-2.79,3.11-2.47-.38,1.91-1.59,3.57S760.18,230.36,759.7,230.16Z"/><path class="cls-1" d="M689.33,265.22c-.49.2-1.48-1.34-2-3.38s-.65-3.67-.18-3.86,1.48,1.34,2,3.38S689.81,265,689.33,265.22Z"/><path class="cls-1" d="M695.59,268.14c-.25,0-.56-.55-.74-1.54a11.83,11.83,0,0,1,.07-3.88c.53-3,1.6-5.12,2.07-5s.27,2.53-.22,5.32S696.1,268.06,695.59,268.14Z"/><path class="cls-1" d="M608.77,215.2c-.18.17-.71,0-1.35-.6a6.65,6.65,0,0,1-1.75-2.87,6.42,6.42,0,0,1-.17-3.36c.21-.85.56-1.3.81-1.25.52.13.48,2,1.16,4.05S609.15,214.81,608.77,215.2Z"/><path class="cls-1" d="M616.58,213.3c-.24.09-.57-.1-.85-.54a3.47,3.47,0,0,1-.45-1.89c0-1.55,1-2.61,1.44-2.35s.45,1.23.43,2.4S617.06,213.09,616.58,213.3Z"/><path class="cls-1" d="M622.84,216.22c-.43-.31.54-2.26,2-4.4s2.67-3.81,3.14-3.61-.07,2.41-1.58,4.64S623.25,216.51,622.84,216.22Z"/><path class="cls-1" d="M650.24,133.24c-.48.17-1.55-1.44-2.28-3.71s-.69-4.27-.19-4.37,1.28,1.63,2,3.8S650.73,133.06,650.24,133.24Z"/><path class="cls-1" d="M653.65,134.83c-.53-.07-.51-2.25.47-4.56s2.21-3.89,2.67-3.68,0,2.18-.94,4.39S654.15,134.9,653.65,134.83Z"/><ellipse class="cls-1" cx="665.67" cy="132.82" rx="3.77" ry="0.94" transform="translate(264.02 680.02) rotate(-65)"/><path class="cls-1" d="M603.12,163.41c-.47.2-1.4-1-1.61-2.78s.38-3.18.89-3.09.76,1.34,1,2.86S603.6,163.21,603.12,163.41Z"/><path class="cls-1" d="M609.56,163c-.46.2-1.42-1-1.54-2.74a4,4,0,0,1,.46-2.24c.32-.53.7-.74.92-.63.45.27.36,1.37.49,2.75S610.06,162.76,609.56,163Z"/><path class="cls-1" d="M615.52,165c-.24.14-.62-.39-.59-1.08a5.29,5.29,0,0,1,.67-2.36c.87-1.67,2.19-2.58,2.58-2.24s-.16,1.64-.92,3.11c-.39.74-.76,1.38-1,1.81A2,2,0,0,1,615.52,165Z"/><path class="cls-1" d="M741.51,140c-.23.09-.67-.36-1.07-1.23a9.34,9.34,0,0,1-.74-3.64c0-2.95,1.07-5.09,1.54-4.95s.3,2.34.34,4.92S742,139.75,741.51,140Z"/><path class="cls-1" d="M747.69,140.07c-.49.1-1.21-1.26-1-3.11a4.71,4.71,0,0,1,.76-2.21c.36-.5.73-.71,1-.6.46.25.28,1.51.15,3S748.21,140,747.69,140.07Z"/><ellipse class="cls-1" cx="756.5" cy="138.98" rx="2.82" ry="0.94" transform="translate(310.76 765.82) rotate(-64.99)"/></g></g></svg>