<svg xmlns="http://www.w3.org/2000/svg" viewBox="0 0 804.86 261.46"><defs><style>.cls-1{fill:#60792b;}.cls-2,.cls-3{fill:none;stroke-linecap:round;stroke-linejoin:round;}.cls-2{stroke:#9ec423;}.cls-3{stroke:#60792b;}.cls-4{fill:#b4b92d;}</style></defs><title>Asset 20</title><g id="Layer_2" data-name="Layer 2"><g id="Layer_1-2" data-name="Layer 1"><path class="cls-1" d="M713.31,225.78c9.22-1.24,10-14.78,2.59-20,14.33,0,16.72-18.73,3.23-22.61,5.05-9.21,16.13-22.65.26-27.91,9.13-3.79,14.37-23.49,2.11-25.73,14.12-13.25,2.45-26.42-12.84-28.5,19-7.8-8.53-34.08-16.95-21.5-7.64-4.06-28.46-15.76-32.88-4.36-1-18.13-33.32-15.7-36.84.14-10.5-19.07-24.84-13.21-38.58-3.13-.36-14.45-9.38-20.52-22.56-16.31,7.07-6.45,4.28-13.51-3.88-14.71,9.75-.16,10.75-10.43,2.17-12.23,11.47,2.4-5.52-30.21-20.66-10.16C531.81,7.71,517.93,8.49,512,20c-8.16-5.67-23.64-21.56-30.4-5.53C474,1.15,460.28-1.09,451.93,12.15a16.11,16.11,0,0,0-2.09-1.69,5.25,5.25,0,0,0-.74-2c-.62-1-6.57-4.49-6.22-1.23-.7-6.54-9.71-8.32-11.34-1.27,0-3.67-3.54-6.29-7.15-5.87-4.5.52-5.13,4.84-4.62,8.5l0,0c-3.34-8.13-14-.85-10.73,5.73l-.17,0c-4.1-4.85-12.16-2.56-10.28,3.39-1.49-1.75-5-1.94-6.69-.66a5.56,5.56,0,0,0-1.61,6.25c-4.67-1.38-5.54,4.45-1.72,7.42-4-1.44-6.5,4-5.83,6.68-1.7-3.35-5.1-1.11-3.67,1.78-3.09-1.32-4.28,3.4-.35,3.12-1.92.86-2.78,4,.14,3.83-3.8,1.08-5.52,3.91.13,8.49-6-3.79-14.34-2.09-15.93,4.79-3.52-6.29-27.24-10.68-29.83,1.76.13-11-24.87-13.68-24,2.34-1.93-14.83-27.28-13.4-27.17.66-2.75-13.89-29-11.23-27.73,5.47C244.84,57.63,221.35,71.3,233,88c-9.8-8.55-22.63,8.41-11.57,15.73-13.89-3-13.88,15.47,1.63,16.6,9.13.67,26.48,13.91,33.75,18.51,12.81,8.1,24.26,3.08,37.13,5.77,4.6,1,5.13,4.77,9.21,5.79,11,2.72,24.86-.78,35.13,2,11.1,3,21.39,19.06,33.24,6.31,11,11.84,22.2,17.62,35,17.52,10.58-.08,21.66-1.92,30-.06,10.59,2.36,23.62,16.32,33.67,4.42,5.73,8.9,28.63,16.42,35.77,6.42,12.55,15.48,26.84,1.4,39.08,4.85,13.13,3.7,15.25,18.9,33.91,9.81,5.34,14.43,21.91,13.6,34.68,16.26,2.76,12.29,22,15.39,32.55,12.28,7.62,16.87,20.82,13.34,34.43,19,4.32,1.81,24.07,4.92,24.48,5.07C718.43,252.86,721.13,234.26,713.31,225.78Z"/><path class="cls-1" d="M705.19,254.28h0Z"/><path class="cls-2" d="M431.26,13.22c-3.74-1.32-7.55-1.75-7.93,3.47"/><path class="cls-2" d="M415.65,24.36c-2.85-.44-7.5,1-5.56,4.69"/><path class="cls-2" d="M431.24,27.26c-2.7-1.55-5.45-1-5.68,2.58"/><path class="cls-2" d="M409,39.24c-2.29-2.4-6.41-2.21-6.34,1.94"/><path class="cls-2" d="M395.34,51c-1.48-.94-3.13-.94-4.26.51"/><path class="cls-2" d="M458.45,36.23c.7-8.25,8-8.61,14.48-5.11"/><path class="cls-2" d="M494.95,27.43c-5.56-3.29-8.33,4.05-8.87,8.49"/><path class="cls-2" d="M485.56,41.55c-1.82-1.63-5-2.32-6.52.09"/><path class="cls-2" d="M360.83,70.08c1.77-4.77,8.7-3.55,11.53-.45"/><path class="cls-2" d="M375.83,70.53a5.84,5.84,0,0,1,3.59-5.31"/><path class="cls-2" d="M335.67,68.25c5.75-1.47,10.14-1.24,11.16,5.72"/><path class="cls-2" d="M348.94,78a5.93,5.93,0,0,1,5.62-3.64"/><path class="cls-2" d="M289,70.22c2.34-3.77,10.3-1.63,9.33,5.53,2.08-7,8.6-5,8.6.15"/><path class="cls-2" d="M280.78,82.22c6.64-5.41,12.33.4,8.55,7.35,2.82-5.27,8.15-6,10,1.59-.64-7.65,4.44-10.13,8.24-7.39"/><path class="cls-2" d="M589.61,81.69c-3.25-5-9.9-3.4-12.42,1.44-4.88-2.16-12-10.27-16.5-2.3,2.51-5.15-1.23-11-4.52-10.84"/><path class="cls-2" d="M529.12,44.66c6.33-9.46,16.23,2.29,8,11.31,8.61-3.15,11.58,6.78,4.73,11.34"/><path class="cls-3" d="M493.65,102.71c-3.45-12,12.11-17.46,14.11-8,.93-10,20.87-10.74,19.5,1.12"/><path class="cls-2" d="M642.3,84.16c-6.48-7.67-12.28-.8-12.91,7-5.47-2.12-11.55-1.53-12.49,5-6.78-5.71-13.47.38-10.21,7.82"/><path class="cls-2" d="M438.76,57.78c-2.75-8.71-17.05-2.69-18,5.38C409.64,58.95,404,68.93,402.85,78.9c-8.15-5.25-14.49,3.87-15,11.49"/><path class="cls-2" d="M483.27,77.61c-7.11-2-16.51-3.08-16.93,7"/><path class="cls-4" d="M804.86,261.46H0S190.44,55.33,412.7,55.33,804.86,261.46,804.86,261.46Z"/><path class="cls-1" d="M45.61,258.57c-.35.41-1.62-.26-3-.7a9.7,9.7,0,0,0-1.78-.37c-.5-.07-.9-.12-1-.36s.12-.62.74-.93a3.58,3.58,0,0,1,2.62-.12,4.42,4.42,0,0,1,2.07,1.38C45.66,258,45.77,258.38,45.61,258.57Z"/><ellipse class="cls-1" cx="47.39" cy="254.48" rx="0.94" ry="2.69" transform="translate(-55.7 17.04) rotate(-12.92)"/><path class="cls-1" d="M53.26,256.35c-.48.12-1.52-2.11-1.74-5.13s.66-5.44,1.16-5.31.48,2.39.71,5.18S53.78,256.23,53.26,256.35Z"/><path class="cls-1" d="M152.87,229.33c-.37.36-1.77-.62-2.43-2.45s-.34-3.43.17-3.44,1,1.27,1.59,2.78S153.26,229,152.87,229.33Z"/><path class="cls-1" d="M148.68,229.68c-.2.47-1.29.48-2.36-.19s-1.54-1.66-1.2-2,1.29-.11,2.19.46S148.89,229.2,148.68,229.68Z"/><path class="cls-1" d="M146.32,232.66c.15.51-.52,1.06-1.28,1.09a1.28,1.28,0,0,1-1.39-.78c-.15-.51.52-1.06,1.28-1.09A1.28,1.28,0,0,1,146.32,232.66Z"/><path class="cls-1" d="M163.26,192.35c-.22.46-.89.67-1.78.53s-1.67-.83-1.45-1.31.89-.67,1.78-.53S163.49,191.87,163.26,192.35Z"/><path class="cls-1" d="M168.48,191.15c-.14.2-.65.16-1.25-.34a4.46,4.46,0,0,1-1.35-2.49,7.17,7.17,0,0,1-.07-2.61c.11-.65.31-1.06.56-1.09.55-.07,1,1.57,1.34,3.31a15.29,15.29,0,0,0,.57,2.09C168.47,190.54,168.64,190.94,168.48,191.15Z"/><path class="cls-1" d="M172.31,190.58c-.5.14-1.4-1.83-1.57-4.38s.23-4.56.74-4.57,1,2,1.13,4.43S172.81,190.44,172.31,190.58Z"/><path class="cls-1" d="M112,224.92c-.24.45-1.47.33-2.9-.11s-2.57-1.22-2.4-1.72,1.45-.54,3-.07S112.23,224.46,112,224.92Z"/><path class="cls-1" d="M112.85,220.75c-.12.49-1.43.59-2.66-.35s-1.46-2.21-1-2.47,1.31.32,2.18,1S113,220.24,112.85,220.75Z"/><path class="cls-1" d="M116.4,220.24c-.23.1-.69-.36-1.15-1.23a13.1,13.1,0,0,1-1.15-3.61c-.48-2.88-.5-5.16,0-5.29s1.4,2.15,1.87,5S116.86,220,116.4,220.24Z"/><path class="cls-1" d="M284.27,169.27c-.4.31-1.55-.38-2.68-1.63s-1.59-2.74-1.12-3,1.44.56,2.53,1.75S284.69,168.94,284.27,169.27Z"/><path class="cls-1" d="M288.22,166.53c-.47.21-1.36-.81-1.75-2.29s-.23-2.74.27-2.85,1.17,1,1.54,2.36S288.69,166.32,288.22,166.53Z"/><path class="cls-1" d="M294,161.24c-.52-.08-.73-1.26-.6-2.56s.47-2.36,1-2.41,1,1.13.88,2.58S294.52,161.31,294,161.24Z"/><path class="cls-1" d="M265.29,226.06c0,.25-.37.46-.93.53a5.42,5.42,0,0,1-2.05-.23c-1.46-.45-2.48-1-2.47-1.5,0-.25.37-.47.93-.53a5.43,5.43,0,0,1,2,.23C264.28,225,265.3,225.55,265.29,226.06Z"/><path class="cls-1" d="M269.77,221.68c-.13.22-.51.27-1,.1a4,4,0,0,1-1.56-1.08c-1-1.06-1.33-2.11-1-2.48s1.48.22,2.35,1.2S270,221.22,269.77,221.68Z"/><path class="cls-1" d="M274.61,217.52c-.23.11-.65-.2-1.08-.85a8.7,8.7,0,0,1-1.09-2.75c-.48-2.23-.4-4,.09-4.15s1.29,1.61,1.74,3.73S275.06,217.27,274.61,217.52Z"/><path class="cls-1" d="M224.08,143.44c0,.25-.23.51-.67.64a2.86,2.86,0,0,1-1.69-.08c-1.26-.43-1.87-1.38-1.59-1.8s1.24-.29,2.18,0S224,142.92,224.08,143.44Z"/><path class="cls-1" d="M227,141.55c-.39.33-1.39-.19-2.1-1.28s-.76-2.25-.28-2.45,1.23.47,1.86,1.43S227.4,141.21,227,141.55Z"/><path class="cls-1" d="M231.79,139.84c-.5,0-1.09-1.34-1.13-3.2s.68-3.33,1.18-3.21.66,1.5.69,3.19S232.32,139.8,231.79,139.84Z"/><path class="cls-1" d="M432.59,102.36c-.41.33-2-1-3.72-2.68s-3.1-3.1-2.86-3.54,2.33.37,4.16,2.2S433,102,432.59,102.36Z"/><path class="cls-1" d="M438.9,99c-.37.34-1.58-.32-2.21-1.87a3.48,3.48,0,0,1-.2-2.09c.15-.54.43-.82.68-.8s.46.33.65.72.39.9.62,1.47C438.88,97.55,439.3,98.63,438.9,99Z"/><path class="cls-1" d="M445.91,98.66c-.49,0-1.08-2.19-.9-5.06s1.39-5,1.86-4.82.17,2.32,0,5S446.46,98.65,445.91,98.66Z"/><path class="cls-1" d="M477.22,117.24c-.34.37-1.6-.17-2.67-1.43s-1.34-2.65-.9-2.9,1.41.59,2.34,1.7S477.58,116.85,477.22,117.24Z"/><path class="cls-1" d="M484.09,116.3c-.32.36-2-.41-3.16-2.34a5.08,5.08,0,0,1-.79-2.78c0-.77.32-1.2.56-1.19s.47.41.74,1,.61,1.26,1.09,2C483.49,114.56,484.46,115.91,484.09,116.3Z"/><path class="cls-1" d="M489.32,113.82c-.5-.08-.8-1.49-1.14-3.31s-.3-3.45.21-3.56,1.29,1.29,1.64,3.25a6.75,6.75,0,0,1,0,2.59C489.86,113.46,489.57,113.85,489.32,113.82Z"/><path class="cls-1" d="M465.69,154c-.39.33-2.11-1-3.55-3.26s-1.95-4.41-1.47-4.6,1.67,1.48,3,3.58S466.09,153.67,465.69,154Z"/><path class="cls-1" d="M473.18,152.94c-.48.11-1.43-1.71-1.79-4.27a8.24,8.24,0,0,1,.18-3.34c.25-.85.63-1.29.87-1.23s.35.59.45,1.36l.36,3C473.57,150.77,473.7,152.82,473.18,152.94Z"/><path class="cls-1" d="M481,150.5c-.25,0-.54-.58-.68-1.61a9.82,9.82,0,0,1,.36-4,7.36,7.36,0,0,1,2.19-3.54c.85-.7,1.55-.83,1.68-.63s-.22.73-.68,1.5a14,14,0,0,0-1.39,3.21C481.66,148,481.54,150.47,481,150.5Z"/><path class="cls-1" d="M426.88,192.54c-.18.19-.85-.13-1.8-.78s-2.17-1.63-3.52-2.61a23.49,23.49,0,0,0-3.59-2.2c-1-.48-1.64-.74-1.62-1s.78-.45,2-.26a10.4,10.4,0,0,1,4.29,1.95,17.88,17.88,0,0,1,3.33,3.15C426.7,191.69,427.05,192.35,426.88,192.54Z"/><ellipse class="cls-1" cx="431.59" cy="185.02" rx="0.94" ry="4.39" transform="translate(-30.44 101.17) rotate(-12.92)"/><path class="cls-1" d="M441.19,184.75c-.52,0-1-2-1-4.49s.36-4.48.87-4.5,1,2,1,4.49S441.71,184.76,441.19,184.75Z"/><path class="cls-1" d="M354.74,127.94c-.4.32-1.82-.73-3.3-2.31s-2.33-3.26-1.92-3.58,1.82.73,3.3,2.31S355.15,127.62,354.74,127.94Z"/><path class="cls-1" d="M362.08,126.26c-.52,0-1-2-1.44-4.53s-.57-4.67-.06-4.79,1.42,1.84,1.9,4.46S362.6,126.27,362.08,126.26Z"/><ellipse class="cls-1" cx="370.3" cy="118.57" rx="0.94" ry="4.49" transform="translate(-1.68 5.37) rotate(-0.83)"/><path class="cls-1" d="M344.73,196.57c-.34.36-2.45-1.08-4.17-3.67s-2.21-5.11-1.74-5.28,1.71,1.86,3.3,4.24S345.11,196.2,344.73,196.57Z"/><path class="cls-1" d="M352,191.69c-.33.37-1.95-.45-3.21-2.28a6.24,6.24,0,0,1-1.08-2.62c-.09-.74.06-1.22.3-1.28.52-.08,1.22,1.28,2.32,2.83S352.34,191.3,352,191.69Z"/><path class="cls-1" d="M359.65,188.64c-.5.14-1.34-1.56-1.4-3.76s.43-3.87.94-3.86.87,1.74.94,3.79S360.15,188.5,359.65,188.64Z"/><path class="cls-1" d="M325.68,259.55c-.26.46-2-.15-3.65-1.45s-2.76-2.49-2.51-2.94,2,.15,3.65,1.45S325.94,259.1,325.68,259.55Z"/><path class="cls-1" d="M332.41,258c-.18.18-.78-.08-1.53-.76a11.83,11.83,0,0,1-2.33-3.1c-1.41-2.67-1.88-5-1.44-5.22s1.77,1.83,3.09,4.33S332.76,257.62,332.41,258Z"/><path class="cls-1" d="M339.89,256.93c-.23.08-.84-.91-1.46-2.67a40.55,40.55,0,0,1-1.62-7c-.42-2.76-.69-5.24-.86-7s-.2-2.95.06-3,.74,1,1.24,2.76a61.32,61.32,0,0,1,1.41,7l1.05,7C340,255.72,340.15,256.84,339.89,256.93Z"/><path class="cls-1" d="M213.73,179.45c-.27.43-2.11-.18-4.08-1.53s-3.17-2.94-2.83-3.33,2,.5,3.89,1.78S214,179,213.73,179.45Z"/><path class="cls-1" d="M217.4,178.61c-.46.27-1.78-1.46-2.42-3.89s-.64-4.43-.15-4.54,1.33,1.74,2,4S217.84,178.35,217.4,178.61Z"/><ellipse class="cls-1" cx="225.65" cy="169.63" rx="0.94" ry="3.77" transform="translate(-32.22 54.75) rotate(-12.92)"/><path class="cls-1" d="M195.1,232.21c-.25.45-1.73.06-3-1.2s-1.65-2.75-1.2-3,1.43.59,2.52,1.66S195.36,231.76,195.1,232.21Z"/><path class="cls-1" d="M199.9,227.88c-.24.44-1.7.12-2.9-1.22a4,4,0,0,1-1-2.05c-.08-.61.1-1,.34-1.06.52-.06,1.13.85,2.08,1.87S200.17,227.43,199.9,227.88Z"/><path class="cls-1" d="M205.88,225.87c-.11.26-.73.07-1.13-.49a5.29,5.29,0,0,1-.93-2.28c-.34-1.85.15-3.38.66-3.35s.88,1.39,1.19,3c.14.82.25,1.55.29,2.07A2,2,0,0,1,205.88,225.87Z"/><path class="cls-1" d="M289.86,128.66c-.13.21-.75.13-1.6-.32a9.34,9.34,0,0,1-2.82-2.42c-1.83-2.31-2.28-4.67-1.83-4.85s1.67,1.66,3.29,3.68S290.13,128.2,289.86,128.66Z"/><path class="cls-1" d="M294.81,124.95c-.33.38-1.73-.25-2.72-1.82a4.71,4.71,0,0,1-.76-2.21c0-.61.13-1,.38-1.06.52-.09,1.15,1,2,2.27S295.16,124.56,294.81,124.95Z"/><ellipse class="cls-1" cx="301.1" cy="118.68" rx="0.94" ry="2.82" transform="translate(-18.9 70.27) rotate(-12.91)"/><path class="cls-1" d="M313.64,119.34c-.52.13-1.17-1.15-2-2.29a9.7,9.7,0,0,0-1.24-1.34c-.37-.34-.67-.62-.62-.88s.46-.44,1.14-.34a3.58,3.58,0,0,1,2.2,1.42,4.42,4.42,0,0,1,.89,2.33C314,118.88,313.89,119.28,313.64,119.34Z"/><ellipse class="cls-1" cx="317.46" cy="117.04" rx="2.69" ry="0.94" transform="translate(88.21 365.88) rotate(-67.58)"/><path class="cls-1" d="M321.16,122c-.47-.18,0-2.6,1.55-5.19s3.69-4.05,4-3.66-1,2.23-2.42,4.64S321.66,122.16,321.16,122Z"/><path class="cls-1" d="M418.06,157.53c-.51.08-1.09-1.53-.57-3.4s1.7-3,2.13-2.7.09,1.62-.31,3.18S418.58,157.46,418.06,157.53Z"/><path class="cls-1" d="M414.44,155.39c-.43.27-1.33-.35-1.82-1.52s-.29-2.25.2-2.36,1.12.66,1.53,1.64S414.88,155.11,414.44,155.39Z"/><path class="cls-1" d="M410.79,156.45c-.17.5-1,.57-1.67.15a1.28,1.28,0,0,1-.68-1.44c.17-.5,1-.57,1.67-.15A1.28,1.28,0,0,1,410.79,156.45Z"/><path class="cls-1" d="M447.92,133.37c-.45.25-1.11,0-1.76-.6s-.88-1.65-.42-1.91,1.11,0,1.76.6S448.39,133.11,447.92,133.37Z"/><path class="cls-1" d="M452.87,135.41c-.23.08-.63-.25-.83-1a4.46,4.46,0,0,1,.34-2.81,7.18,7.18,0,0,1,1.45-2.18c.47-.47.86-.69,1.09-.56.49.25-.08,1.86-.82,3.47a15.29,15.29,0,0,0-.74,2C453.21,134.9,453.12,135.32,452.87,135.41Z"/><path class="cls-1" d="M456.33,137.16c-.49-.18-.08-2.31,1.25-4.48s2.82-3.58,3.24-3.3-.37,2.19-1.64,4.27S456.81,137.34,456.33,137.16Z"/><path class="cls-1" d="M387.25,130.28c-.46.23-1.39-.58-2.3-1.77s-1.39-2.48-1-2.79,1.49.4,2.46,1.66S387.72,130,387.25,130.28Z"/><path class="cls-1" d="M390.37,127.39c-.38.33-1.51-.35-2-1.82s.09-2.65.58-2.61.88,1,1.21,2.06S390.78,127.05,390.37,127.39Z"/><path class="cls-1" d="M393.55,129c-.25-.05-.36-.69-.22-1.67a13.11,13.11,0,0,1,1.15-3.61c1.27-2.62,2.57-4.5,3-4.33s-.1,2.57-1.34,5.12S394.06,129.1,393.55,129Z"/><path class="cls-1" d="M338.42,175.75c-.38.38-1.71-.5-3.05-1.57s-2.52-1.78-2.42-2.29c.06-.24.51-.38,1.2-.28a5.33,5.33,0,0,1,2.37,1.09C338.09,174,338.76,175.4,338.42,175.75Z"/><path class="cls-1" d="M341.86,173.63c-.5.09-1.1-.63-1.32-1.72s.12-2.08.64-2.1,1,.73,1.2,1.74S342.38,173.54,341.86,173.63Z"/><path class="cls-1" d="M348.58,174.48c-.46-.19-.32-1.78.54-3.56s2.22-2.85,2.61-2.53-.15,1.73-.93,3.36S349.07,174.68,348.58,174.48Z"/><ellipse class="cls-1" cx="381.26" cy="204.32" rx="0.94" ry="2.44" transform="translate(-40.15 106.74) rotate(-15.15)"/><path class="cls-1" d="M386.47,207.26c-.23.1-.55,0-.83-.36a2.7,2.7,0,0,1,0-3.14c.28-.34.59-.46.83-.36.48.23.53,1.08.55,1.93S386.94,207,386.47,207.26Z"/><path class="cls-1" d="M393,207.72c-.45-.23.05-2.2,1.51-4.21s3.25-3.07,3.59-2.69-.74,1.94-2.07,3.79S393.5,208,393,207.72Z"/><path class="cls-1" d="M560,184.53c-.51,0-1-1.21-1.25-2.88s.29-3.16.81-3.09.85,1.29,1.05,2.89S560.52,184.5,560,184.53Z"/><path class="cls-1" d="M564.79,184.58c-.51-.1-.64-1.44-.1-2.89s1.39-2.37,1.87-2.17.39,1.47-.11,2.81S565.3,184.68,564.79,184.58Z"/><path class="cls-1" d="M572.58,183.61c-.38-.36.13-1.45,1-2.43s1.74-1.65,2.19-1.39.19,1.51-.77,2.61S572.95,184,572.58,183.61Z"/><path class="cls-1" d="M511.66,219.88c-.16.19-.57.17-1.07-.1a5.43,5.43,0,0,1-1.54-1.37c-.93-1.21-1.46-2.24-1.15-2.65.16-.2.57-.17,1.07.1a5.43,5.43,0,0,1,1.54,1.37C511.43,218.44,512,219.47,511.66,219.88Z"/><path class="cls-1" d="M517.85,218.9c-.23.1-.57-.07-.88-.49a4,4,0,0,1-.64-1.79c-.16-1.42.14-2.49.63-2.59s1.07,1,1.22,2.34S518.31,218.66,517.85,218.9Z"/><path class="cls-1" d="M524.2,218.3c-.25,0-.41-.54-.39-1.32a8.7,8.7,0,0,1,.7-2.88c.9-2.1,2-3.51,2.47-3.33s.12,2.06-.74,4S524.71,218.36,524.2,218.3Z"/><path class="cls-1" d="M525.82,128.64c-.14.21-.48.28-.92.14a2.86,2.86,0,0,1-1.33-1c-.78-1.08-.73-2.21-.26-2.38s1.18.48,1.77,1.27S526.08,128.19,525.82,128.64Z"/><path class="cls-1" d="M529.3,128.79c-.51,0-1-1-1-2.25s.68-2.28,1.18-2.16.73,1.09.69,2.24S529.82,128.74,529.3,128.79Z"/><path class="cls-1" d="M534.19,130.17c-.43-.26-.11-1.73.93-3.26s2.48-2.33,2.82-1.94-.33,1.61-1.28,3S534.65,130.44,534.19,130.17Z"/><path class="cls-1" d="M413.94,255.8c-.37.37-1.72-.52-2.51-2.15s-.88-3-.42-3.23,1.37.94,2.09,2.39S414.31,255.44,413.94,255.8Z"/><path class="cls-1" d="M419.37,253.54c-.51.1-1.11-1.1-1.09-2.59s.48-2.59,1-2.6.9,1.21.89,2.6S419.88,253.45,419.37,253.54Z"/><path class="cls-1" d="M427.45,256.55c-.45-.19-.38-1.7.53-3.4a4.6,4.6,0,0,1,1.74-1.85c.62-.33,1.1-.29,1.21-.07s-.07.59-.32,1l-1,1.79C428.83,255.52,427.95,256.77,427.45,256.55Z"/><path class="cls-1" d="M719.68,215.73c-.52,0-1-1.94-1.49-4.34s-.74-4.32-.28-4.54,1.69,1.65,2.13,4.2S720.19,215.7,719.68,215.73Z"/><path class="cls-1" d="M726.78,216.62c-.49.06-1.1-1.17-.72-2.8a3.48,3.48,0,0,1,1-1.82c.43-.36.82-.43,1-.26s.19.53.11,1-.21,1-.35,1.56C727.59,215.44,727.31,216.57,726.78,216.62Z"/><path class="cls-1" d="M732.69,220.41c-.41-.27.39-2.41,2.19-4.65s4-3.29,4.31-2.86-1.2,2-2.86,4.05S733.14,220.72,732.69,220.41Z"/><path class="cls-1" d="M747.49,253.68c-.49.1-1.21-1.06-1.35-2.71s.44-2.94.94-2.89.81,1.3.93,2.74S748,253.57,747.49,253.68Z"/><path class="cls-1" d="M753.63,256.89c-.47.11-1.36-1.47-1.22-3.73a5.08,5.08,0,0,1,1-2.73c.48-.6,1-.79,1.15-.64s.15.61,0,1.21-.23,1.39-.3,2.3C754.15,255.11,754.16,256.78,753.63,256.89Z"/><path class="cls-1" d="M759.33,257.88c-.36-.36.21-1.68,1-3.36s1.75-3,2.23-2.78.31,1.8-.54,3.6a6.75,6.75,0,0,1-1.51,2.11C760,257.9,759.52,258.05,759.33,257.88Z"/><path class="cls-1" d="M641.37,191.57c-.51,0-1.06-1.65-1.35-3.79s0-4,.5-4,1.06,1.65,1.35,3.79S641.9,191.55,641.37,191.57Z"/><path class="cls-1" d="M648.34,194.45c-.42-.3.38-2.21,1.45-4.53s2.23-4.14,2.72-3.94.1,2.32-1,4.74S648.76,194.75,648.34,194.45Z"/><ellipse class="cls-1" cx="659.49" cy="192.92" rx="4.49" ry="0.94" transform="translate(126.91 627.1) rotate(-55.49)"/><path class="cls-1" d="M593.51,241.77c-.49.09-1.37-2.3-1.28-5.41s1.15-5.45,1.63-5.31.32,2.51.24,5.37S594,241.68,593.51,241.77Z"/><path class="cls-1" d="M602.25,242c-.48.11-1.33-1.49-1.3-3.71a6.24,6.24,0,0,1,.63-2.76c.35-.66.75-1,1-.87.47.23.25,1.75.26,3.66S602.77,241.87,602.25,242Z"/><path class="cls-1" d="M610.27,243.93c-.49-.17-.19-2,1-3.87s2.59-2.91,3-2.61-.3,1.93-1.43,3.63S610.76,244.1,610.27,243.93Z"/><path class="cls-1" d="M458.82,235.78c-.17.18-.71,0-1.38-.54a6.65,6.65,0,0,1-1.87-2.79,6.42,6.42,0,0,1-.33-3.35c.17-.86.5-1.32.75-1.28.52.1.57,2,1.34,4S459.19,235.38,458.82,235.78Z"/><path class="cls-1" d="M466.54,233.53c-.23.1-.57-.07-.87-.5a3.46,3.46,0,0,1-.53-1.87c0-1.55.87-2.66,1.34-2.41s.5,1.21.54,2.38S467,233.3,466.54,233.53Z"/><path class="cls-1" d="M472.93,236.16c-.44-.29.44-2.28,1.77-4.48s2.49-3.93,3-3.75,0,2.41-1.37,4.71S473.35,236.44,472.93,236.16Z"/><path class="cls-1" d="M496.55,152c-.47.19-1.62-1.37-2.44-3.6s-.89-4.24-.38-4.35,1.35,1.57,2.14,3.71S497,151.83,496.55,152Z"/><path class="cls-1" d="M500,153.47c-.53,0-.61-2.22.27-4.57s2-4,2.5-3.79.08,2.18-.74,4.42S500.54,153.52,500,153.47Z"/><ellipse class="cls-1" cx="511.95" cy="150.92" rx="3.77" ry="0.94" transform="translate(177.23 566.65) rotate(-67.59)"/><path class="cls-1" d="M450.84,184.3c-.46.22-1.44-1-1.74-2.71s.24-3.2.75-3.13.82,1.31,1.1,2.81S451.31,184.08,450.84,184.3Z"/><path class="cls-1" d="M457.26,183.55c-.45.22-1.46-.89-1.66-2.67a4,4,0,0,1,.36-2.26c.29-.55.66-.77.89-.67.46.25.42,1.35.61,2.73S457.74,183.34,457.26,183.55Z"/><path class="cls-1" d="M463.3,185.36c-.24.15-.64-.37-.64-1.06a5.29,5.29,0,0,1,.56-2.39c.79-1.71,2.08-2.67,2.47-2.35s-.08,1.64-.78,3.15c-.36.75-.69,1.41-1,1.86A2,2,0,0,1,463.3,185.36Z"/><path class="cls-1" d="M588,154.63c-.23.1-.68-.33-1.12-1.19a9.34,9.34,0,0,1-.9-3.6c-.16-2.94.84-5.13,1.31-5s.41,2.32.56,4.9S588.52,154.41,588,154.63Z"/><path class="cls-1" d="M594.21,154.47c-.48.12-1.26-1.2-1.17-3.06a4.71,4.71,0,0,1,.66-2.24c.33-.52.69-.75.93-.65.48.23.35,1.5.29,3S594.73,154.35,594.21,154.47Z"/><ellipse class="cls-1" cx="602.97" cy="152.99" rx="2.82" ry="0.94" transform="translate(231.54 652) rotate(-67.58)"/></g></g></svg>