<?xml version="1.0" encoding="utf-8"?>
<!-- Generator: Adobe Illustrator 21.1.0, SVG Export Plug-In . SVG Version: 6.00 Build 0)  -->
<svg version="1.1" id="Layer_1" xmlns="http://www.w3.org/2000/svg" xmlns:xlink="http://www.w3.org/1999/xlink" x="0px" y="0px"
	 viewBox="0 0 470 600" style="enable-background:new 0 0 470 600;" xml:space="preserve">
<style type="text/css">
	.st0{fill:#35A3AD;}
	.st1{fill:#1A425A;}
	.st2{fill:url(#SVGID_1_);}
	.st3{fill:url(#SVGID_2_);}
	.st4{fill:#664D87;}
	.st5{fill:url(#SVGID_3_);}
	.st6{fill:url(#SVGID_4_);}
	.st7{fill:#9F83B7;}
	.st8{fill:#D0D2D3;}
	.st9{fill:#E5E6E7;}
	.st10{fill:#FBC940;}
	.st11{fill:#5C2516;}
	.st12{fill:#F59F9C;}
	.st13{fill:#D37979;}
	.st14{fill:#350E14;}
	.st15{fill:#FFF6D4;}
	.st16{fill:#FFFFFF;}
	.st17{fill:#EE8E8E;}
	.st18{opacity:0.41;fill:#EE8E8E;}
	.st19{fill:#366942;}
	.st20{fill:none;stroke:#9EC423;stroke-linecap:round;stroke-linejoin:round;}
	.st21{fill:#F3B33A;}
	.st22{fill:#BC5B16;}
	.st23{fill:url(#SVGID_5_);}
	.st24{fill:#FDDBC1;}
	.st25{fill:#E091A3;}
	.st26{fill:#FF9ABE;}
	.st27{fill:#231F20;}
	.st28{opacity:0.51;fill:#BC5B16;}
	.st29{opacity:0.47;fill:#BC5B16;}
	.st30{fill:#7D5145;}
	.st31{fill:#FFB100;}
	.st32{fill:#FFEBCB;}
	.st33{clip-path:url(#XMLID_2_);fill:#FF9300;}
	.st34{fill:#FFD01F;}
	.st35{fill:#35312D;}
	.st36{fill:#8CC53F;}
	.st37{opacity:0.58;fill:#8CC53F;}
	.st38{fill:#FFFFFF;stroke:#FFFFFF;stroke-width:11;stroke-linejoin:round;stroke-miterlimit:10;}
	.st39{font-family:'Mistral';}
	.st40{font-size:70.5175px;}
	.st41{font-family:'H2porM';}
	.st42{font-size:40.4049px;}
	.st43{fill:#39B54A;stroke:#39B54A;stroke-width:2;stroke-linejoin:round;stroke-miterlimit:10;}
	.st44{fill:#8CC63F;stroke:#8CC63F;stroke-width:2;stroke-linejoin:round;stroke-miterlimit:10;}
</style>
<g>
	<path class="st0" d="M807.9,261.8c-1.5-0.1-3-0.2-4.5-0.1c-2.2,0.1-6.1,0.6-8,2.6c-1.7,1.9-4.1,2.9-6.5,3c-1.4,0.1-2.8-0.2-4.2-0.8
		c-3.7-1.6-6-5.3-5.7-9.3c0.3-5,2.1-16,11.7-25.7c-4-3-9.6-6.3-16.6-7.4c-4.3-0.7-7.6-4.3-7.9-8.7c-0.3-4.4,2.4-8.4,6.6-9.7
		c0.8-0.3,1.7-0.5,2.8-0.8c6.1-1.7,12-2.7,17.7-3c3.4-0.2,6.7,0,9.8,0.4c-2.3-13-6-23-10.4-27.9c-2.9-3.3-3.3-8.1-0.8-11.7
		c1.7-2.5,4.5-3.9,7.3-4.1c1.3-0.1,2.6,0.1,3.9,0.6c5.3,2.1,10.5,4.6,15.4,7.4c11.3,6.5,20.2,14.4,26.5,23.2c1-0.8,1.9-1.5,2.8-2.1
		c8.7-6.1,19.4-10.4,31.6-12.7c0.4-0.1,0.9-0.1,1.3-0.1c3.9-0.2,7.6,2.1,9.2,5.7c1.7,4.1,0.4,8.9-3.3,11.4
		c-11.7,8.3-20.2,17-24.2,24.4c16.8,0.2,31.3,7.7,41,21.6c2.5,3.5,2.2,8.3-0.5,11.6c-1.7,2-4.2,3.2-6.8,3.3
		c-1.5,0.1-3.1-0.2-4.6-0.9c-2.2-1-6.1-2.8-10.7-4.1c8.2,9.8,13.3,20.8,15.2,32.5c0.1,0.5,0.1,1,0.1,1.4c6.6-1.7,13.1-2.7,19.5-3
		c9.1-0.4,17.2,0.6,24.1,3.1c5.9-12.9,16.8-24.8,33.2-26.8c0.2,0,0.4,0,0.7-0.1c2.9-0.1,5.7,1,7.6,3.2c2.1,2.4,2.8,5.6,2,8.6
		l-6.4,24c2.4-0.3,5-0.5,7.6-0.7c7-0.3,13.2,0.1,18.5,1.4c15.4,3.4,23.2,20.4,26.5,30.1c1.3,4-0.1,8.4-3.6,10.8
		c-1.5,1.1-3.2,1.6-5,1.7c-2.2,0.1-4.5-0.6-6.4-2.1c-4.3-3.4-13-8.9-25.4-9.1c7.4,7,14.3,17,14.9,29.8c0.1,1.3,0,2.5,0,3.8
		c-0.2,3.6-2.4,6.7-5.6,8.2c-1.1,0.5-2.2,0.7-3.4,0.8c-2.3,0.1-4.6-0.6-6.4-2.1c-8.5-6.9-16.8-12.3-23.9-15.6
		c2.1,10.5,6.5,25.5,15.4,37.2c1.8,2.4,2.4,5.5,1.6,8.5c-0.8,2.9-3.1,5.2-5.9,6.3l-0.6,0.2c-3.9,1.4-7.8,2.8-11.8,4.1
		c-0.9,0.3-1.8,0.5-2.7,0.5c-4,0.2-7.8-2.2-9.3-6c-2.6-6.7-10.6-28.5-12.8-48.5c-6.6,4.3-13.6,11.1-15.3,20.9
		c-0.8,4.4-4.5,7.6-8.9,7.8c-0.1,0-0.1,0-0.2,0c-4.5,0.1-8.5-3-9.5-7.4c-0.6-2.7-1-5.6-1.1-8.5c-0.4-8.2,1.1-19.3,8.8-30.3
		c-3.4-0.4-7.4-0.6-11.8-0.4c-9.2,0.4-18.3,2.8-26.9,6.8c-1.1,0.5-2.4,0.8-3.6,0.9c-2.5,0.1-5-0.8-6.9-2.5
		c-2.8-2.6-3.8-6.8-2.3-10.4c1.5-3.8,3.9-7.5,6.8-10.8c6.5-7.1,15.4-11.7,26.5-13.7c-1.2-0.4-2.5-0.8-3.8-1.2c-4-1.2-6.8-4.8-6.9-9
		c0-0.7,0.2-1.3,0.3-1.9c-1.9-0.6-3.6-1.8-4.8-3.6c-2.8-4.1-10.7-14.9-20.2-20.5c1.2,4.2,2.1,8.9,2.3,13.7c0.2,5-0.3,9.8-1.6,14.1
		c-1.2,3.8-4.6,6.5-8.6,6.7c-0.2,0-0.4,0-0.6,0c-4.2-0.1-7.9-2.9-9-7c-1-3.8-2.8-9.6-5.3-15.1c-0.9-2-1.7-3.6-2.5-5.1
		c-10.9,14.4-33.7,50.3-31.4,97.9c0.6,11.5,2.6,23.2,6.2,34.8c0.9,2.9,0.3,6-1.5,8.4c-1.7,2.3-4.3,3.7-7.1,3.8c-0.1,0-0.3,0-0.5,0
		c-4.1,0-8.7,0-13.8-0.1c-2.7,0-5.2-1.6-6.9-3.6c-1.3-1.5-2.1-3.6-2.2-5.6c-3.3-1.4-5.6-4.6-5.7-8.3c-2.2-54.1,10.7-92,21.9-114.2
		C797.7,276,803.3,267.8,807.9,261.8z"/>
	<path class="st1" d="M453.2,375.3c0,4.2,2.7,7.9,6.7,9.1c1.1,0.3,2.2,0.5,3.3,0.4c2.9-0.1,5.7-1.7,7.4-4.2
		c8.2-12.4,25.4-15,35-15.5c3-0.1,5.3-0.1,6.7,0c0.9,0.5,1.8,1.1,2.7,1.7c0.1,0.5,0.2,1.1,0.4,1.6c2.5,6.9,8.5,25.2,9.5,45.6
		c0.7,14.3-1.1,26.9-5.5,37.5c-1,2.4-0.9,5.2,0.2,7.5c1.1,2.4,3.1,4.2,5.6,5c3.5,1.1,6.9,2.3,10.2,3.4c1.1,0.4,2.3,0.5,3.5,0.5
		c2-0.1,4-0.8,5.6-2.2l7.7-6.4c2.1-1.8,3.3-4.4,3.3-7.2c0.1-2.5,0-5.1-0.1-7.7c-0.7-13.9-3.5-29-6.7-42.3c0.3,0,0.6,0.1,1,0.1
		c0.2,0,0.4,0,0.6-0.1c3.7-0.4,6.7-2.9,7.9-6.4c1.3-4.1,1.9-8.4,1.7-13c-0.4-9.6-4.4-18.8-8.5-25.7c1.1-0.1,2.3-0.2,3.4-0.3
		c20-1,34.4,8.6,39.7,12.7c1.8,1.4,4.1,2.1,6.3,2c1.4-0.1,2.7-0.4,4-1.1c0.7-0.3,1.2-0.8,1.8-1.3c-1,3-1.9,6.1-2.5,9.2
		c-0.9,4.6,1.6,9.2,6,10.8c1.2,0.5,2.5,0.6,3.7,0.6c3.2-0.2,6.2-2,7.9-4.9c3.7-6.8,9.1-11.5,14.2-14.7c-0.1,3.3-0.3,7-0.3,11.1
		c-0.3,15.2,4.2,47.3,4.4,48.6c0.2,1.4,0.7,2.7,1.5,3.9c2.2,3.4,7.2,7,14.4,6.9l1.4,0c4.4-0.2,9.7-1,12.8-5.6c1.8-2.6,2.2-6,1.2-8.9
		c-1.3-3.7-4.7-24.6-6.1-38.9c-0.2-2.4-0.4-4.8-0.5-7.3c5,6.6,10.1,14.7,14.9,23.9c1.7,3.3,5.2,5.2,8.8,5c0.6,0,1.1-0.1,1.7-0.2
		c4.2-1,7.2-4.6,7.3-8.9c0.1-1.9,0-3.7,0-5.5c-0.5-11.2-3.8-21.9-9.4-31.5c8.5,4.6,14.1,10.3,16.8,13.6c1.9,2.3,4.8,3.5,7.7,3.4
		c1-0.1,2.1-0.3,3.1-0.7c1.2-0.5,2.3-1.3,3.2-2.2c1.8,2.8,4.9,4.5,8.3,4.4c0,0,0.1,0,0.1,0c4.1-0.2,7.7-3.1,8.7-7.1
		c0.4-1.4,0.9-2.8,1.5-4c2.1,7.4,6,14,9.4,18.6c1.9,2.6,5,4.1,8.1,3.9c0.7,0,1.4-0.1,2.1-0.3c3.8-1.1,6.6-4.4,6.9-8.4
		c0.1-2,0.6-3.9,1.1-5.7c1.4,7.5,2.7,16.9,3.2,27.2c0.1,2.8,0.2,5.7,0.2,8.7c0,7.3-0.5,14.2-1.5,20.6c-0.5,3,0.5,6,2.6,8.1
		c1.9,1.9,4.5,2.9,7.2,2.8c0.3,0,0.6,0,0.9-0.1c4.7-0.7,9.7-1.3,14.8-1.8c4.6-0.4,8.2-4.1,8.5-8.7c0.6-7.3,0.7-14.5,0.3-21.4
		c-0.7-13.5-2.9-25.4-5.5-35.2c3,4.6,5.8,9.8,8.4,15.7c1.6,3.6,5.2,5.8,9.1,5.7c0.4,0,0.8-0.1,1.2-0.1c4.3-0.7,7.5-4.3,7.8-8.7
		c0.2-2.6,0.2-5.2,0.1-7.8c-0.6-12.1-4.3-22-8.5-29.5c3.2,1.7,6.6,4.2,10,7.3c1.9,1.8,4.4,2.7,6.9,2.5c0,0,0.1,0,0.1,0
		c-0.5,3.7-0.7,7.2-0.9,10.2c-0.2,4.4,2.6,8.3,6.8,9.5c1,0.3,2.1,0.4,3.1,0.4c3.2-0.2,6.1-1.9,7.8-4.7c3.9-6.7,8.3-11,12.4-13.7
		c-2.7,11.4-1.8,22.3-0.7,29.1c0.7,4.4,4.3,7.6,8.7,7.9c0.4,0,0.7,0,1.1,0c4-0.2,7.4-2.8,8.6-6.7c1.9-6.5,5.5-11.4,9.5-15.3
		c1.9,20.9,0,42.5-10.2,50.9c-3.4,2.7-4.2,7.6-2.4,11.5c0,0.3,0,0.7-0.2,1c-1.3,3-1,6.4,0.8,9.1c1.8,2.7,4.8,4.3,8.1,4.2
		c0.7,0,1,0.1,1.1,0.2c0.1,3.6,2.1,7,5.4,8.6c0.4,0.2,0.5,0.3,0.5,0.3c1.9,2.3,4.8,3.6,7.8,3.5c0.3,0,0.6,0,0.9-0.1
		c3.3-0.5,6.1-2.7,7.3-5.8c6-14.6,8.5-34.7,7.4-59.6c0-0.6-0.1-1.2-0.2-1.8c-0.1-0.3-0.1-0.5-0.2-0.8c0.2-0.8,0.3-1.7,0.2-2.6
		c-0.7-11.6-1.9-21.9-3-28.9c16.3,2.9,32.9,24.3,38,31.3c0.1,0.1,0.2,0.2,0.3,0.3c-4.7,12.3-10,25.3-16.1,38.9
		c-1.3,2.8-1.1,5.9,0.4,8.5c-1.3,1.8-2,4-1.8,6.3c0.2,2.7,1.5,5.2,3.7,6.9c-0.3,2.3,0.3,4.6,1.7,6.6c1.6,2.3,4.1,3.7,6.9,3.9
		c4,0.3,7.9,0.7,11.7,1c0.4,0,0.8,0,1.2,0c3.8-0.2,7.2-2.7,8.5-6.3c5.9-17.1,11.3-34,15.9-50.2c0.1-0.2,0.1-0.4,0.1-0.6
		c0.1-0.2,0.2-0.5,0.2-0.7c17.2-61,24.8-115.2,22.6-160.9c-1.2-25-5.1-43.1-9.2-55.6c13,9,24,23.8,27.9,29.5c1.9,2.8,5,4.2,8.2,4.1
		c1.1-0.1,2.3-0.3,3.4-0.8c4.2-1.8,6.4-6.3,5.4-10.8c-1.7-7.6-5.4-22.7-10.4-38.1c-1.4-4.4-3.5-8.4-6.2-12.1c3.6,2,7.4,4.2,11.2,6.5
		c1.7,1,3.6,1.5,5.4,1.4c2.1-0.1,4.3-0.9,5.9-2.5c3.1-2.9,4-7.5,2.1-11.2c-5.6-11.1-16.7-31.1-28.4-41.2c-6.9-6-17.4-8.9-30.3-8.3
		c-0.2,0-0.5,0-0.7,0c11-9.2,28.6-11.7,40.1-12.3c1.5-0.1,2.8-0.1,3.9-0.1c0.1,0,0.2,0,0.3,0c4.1-0.2,7.7-3.1,8.7-7.1
		c1-4.2-0.8-8.5-4.5-10.6c-7.9-4.4-23.7-11.7-41.8-10.8c-4,0.2-7.9,0.8-11.5,1.7c-12.4,3.2-22.7,10.3-29.9,20.5
		c-1,1.4-1.9,2.8-2.6,4.1c-11.3-7-22.8-10.1-34.7-9.6c-7,0.3-13.7,2-20,4.9c-1.2,0.5-2.2,1.1-3.2,1.6c-3.8,2.1-5.7,6.6-4.6,10.8
		c1.2,4.2,5.1,7.1,9.5,6.9c9.5-0.4,19.7,4.4,27.7,9.5c-12.5,5.9-18.2,17.3-19.1,28c-0.3,3.3,1.2,6.6,3.9,8.5c1.8,1.3,3.9,1.9,6,1.8
		c1.1-0.1,2.3-0.3,3.3-0.8c0.5-0.2,1-0.4,1.5-0.4c0.2,0,0.3,0,0.5,0c-7.1,9.1-10.5,20.7-9.8,34c0.2,4.4,0.9,9,2,13.4
		c1.1,4.4,5.1,7.4,9.6,7.2c0,0,0.1,0,0.1,0c4.6-0.3,8.3-3.8,8.8-8.4c0.7-6.3,2.1-10.7,3.6-13.4c2.6,15.7,12.4,33.9,20.6,47
		c1.9,3,5.2,4.6,8.5,4.4c1.2-0.1,2.3-0.3,3.4-0.8c4.3-2,6.5-6.8,5.2-11.3c-1-3.2-1.5-6.5-1.7-10c-0.2-3.4,0.1-6.8,0.5-10
		c2.7,9.2,5.2,21.7,6,37.9c0.9,17.7-0.3,41.8-6.8,72.7c-7.6-10.4-17-18.3-28.1-23.7c-0.3-0.2-0.6-0.3-0.9-0.4
		c4.3-0.4,7.7-0.6,9.6-0.7c4.4-0.3,8-3.4,8.8-7.7c0.8-4.3-1.5-8.6-5.4-10.3c-3.9-1.8-9.8-4.3-15.9-6.4c-0.2-0.1-0.3-0.1-0.5-0.1
		c-0.3-0.1-0.5-0.2-0.8-0.3c-5.6-1.9-10.1-3-13.9-3.4c-1-0.1-2.2-0.2-3.4-0.1c-3.1,0.1-6.6,1-10.4,2.4c-5.1,1.9-11,5-17.4,9.2
		c-0.5,0.3-1,0.7-1.5,1c-3.1-3.3-6.8-6.3-10.9-8.7c-14.4-8.8-31.1-10-42.6-9.4c-2.1,0.1-4.1,0.3-5.7,0.5c-4.5,0.5-8,4-8.4,8.5
		c-0.4,4.5,2.3,8.6,6.6,10c12.1,3.8,18.7,9.9,22.4,14.8c-2.6,0.6-5.1,1.3-7.6,2.2c-6.2,2.3-12.1,5.8-17.6,10.3
		c-2.5-1.5-5.1-2.7-7.7-3.8c1.8-1.5,3.1-3.6,3.4-6c0.6-4.3-1.8-8.5-5.8-10.1c-8.5-3.4-17.5-4.9-26.9-4.5c-7.6,0.4-15.1,2-22.5,4.8
		c-0.9,0.3-1.7,0.7-2.6,1c-17.2-20.3-39.1-22.4-48.3-22.3c-0.1,0-0.3,0-0.4,0c-4.1,0.2-7.5,3-8.6,6.9c-1.1,4.1,0.5,8.4,4.1,10.6
		c7.6,4.7,11.6,10.7,11.9,17.9c-5.3-1.6-11.1-2.3-17.3-2c-6,0.3-11.1,1.5-14.4,2.4c-4.4,1.3-7.2,5.5-6.8,10.1
		c0.2,1.5,0.7,2.9,1.5,4.1c-2.3-0.8-4.5-1.6-6.6-2.1c3.7-18.7,18.2-29.7,22.9-32.9c3.2-2.2,4.8-6.1,4-9.9c-0.8-3.8-3.9-6.7-7.7-7.3
		c-1.5-0.2-3-0.3-4.5-0.2c-7.1,0.4-15.4,4-24.6,10.9c-0.9,0.7-1.8,1.4-2.7,2.1c-6.7-9.7-16.4-14.6-22.5-17c-1.3-0.5-2.6-0.7-3.8-0.6
		c-2.7,0.1-5.2,1.4-7,3.6c-2.6,3.2-2.8,7.8-0.4,11.2c2.3,3.4,3.8,7,4.6,10.8c-11.6-5.6-25.2-8.3-36.1-9.7c-0.5-0.1-1.1-0.1-1.6-0.1
		c-3.9,0.2-7.3,2.8-8.6,6.6c-1.4,4.3,0.5,9,4.5,11.2c4.9,2.6,10.6,7.3,16.6,13.4c-2.4-0.1-4.8-0.1-7,0c-5.1,0.3-9.7,1.1-13.8,2.3
		c0.1-0.4,0.3-0.8,0.3-1.3c0.7-4.6-1.9-9-6.3-10.5c-7-2.4-13.8-3.5-20.2-3.2c-2.6,0.1-5.1,0.5-7.6,1.1c2.8-15.9,15.9-30.7,20.4-35.4
		c2.8-2.9,3.4-7.2,1.7-10.7c-1.7-3.4-5.2-5.5-9-5.3c-0.2,0-0.4,0-0.5,0c-20.6,2.2-35.4,14.2-43,34.6c-0.6,1.7-1.2,3.4-1.6,5
		c-14.2-14.5-34.7-17.5-45-18c-0.3,0-0.7,0-1,0c-4.1,0.2-7.7,3.1-8.7,7.2c-1.1,4.4,1.2,9,5.3,10.9c9.7,4.4,16.5,13.6,20.7,21.4
		c-6-0.7-11.7-0.9-16.9-0.7c-16.9,0.8-29.8,6.3-38.7,16.1c-3.1,3.5-5.6,7.5-7.1,11.6c-1.5,3.7-0.4,8,2.7,10.6
		c1.9,1.6,4.3,2.4,6.6,2.3c1.5-0.1,2.9-0.5,4.3-1.3c6.9-3.9,14.1-6.1,21.6-6.6C455.6,353.2,453.3,368,453.2,375.3z M578,322
		c-0.8-0.3-1.6-0.7-2.5-1c1.2-0.2,2.6-0.3,4-0.4C579,321.1,578.5,321.6,578,322z M697,326.1c3.1,0.3,5.8,0.9,8.1,1.5
		c-0.8,0.8-1.5,1.8-2.3,2.7C701,328.7,699,327.3,697,326.1z M965.4,348.5c-1.8,6.6-3.8,13.5-6,20.6c-6-15.2-15.7-27.2-25.2-36.1
		c12.9,4.1,24.4,11.2,30.1,15C964.6,348.3,965,348.3,965.4,348.5z M831.5,336.9c2.5-0.8,5.1-1.4,7.7-1.7c-1.5,2.5-2.8,5.2-3.9,8
		C834.1,341.1,832.8,339,831.5,336.9z M600.2,337.6c8,0.2,16.1,2,22.6,4c-5.4,5.5-9.8,12.1-13.2,19.5
		C608.9,351.6,605.4,343.8,600.2,337.6z"/>
	<path class="st0" d="M495.3,288.5c7.5-2.4,15.4-3,23.4-1.8c1.6,0.2,3.2,0.1,4.7-0.4c2.5-0.8,4.7-2.5,6.2-4.8
		c2.4-3.8,2.3-8.4-0.3-11.5c-2.8-3.4-6.5-6.3-10.7-8.5c-11.7-6-26-5.9-42.5,0c-5.1,1.8-10.3,4.2-15.7,7.1c1.9-8.9,5.8-20.1,13.9-28
		c3.5-3.4,4.4-8.6,2.2-12.3c-2-3.4-6.1-4.6-10-3c-0.3,0.1-0.6,0.3-0.9,0.4c-9.4,4.7-27.2,15.6-36.3,34.1c-0.8-1.3-1.7-2.6-2.6-3.9
		c-11.3-15.3-26.5-20-43.8-14.1c-0.1,0.1-0.3,0.1-0.5,0.2c-3.1,1.2-5.4,4.3-6.1,7.8c-0.6,3.7,0.8,7.1,3.6,8.6
		c4.6,2.4,18.6,10.6,24.5,23.7c-2.2,0.3-4.4,0.9-6.6,1.7c-5.4,2-10.7,5.2-15.9,9.7c-3.2,2.8-4.4,7.5-2.8,11.3c0.1,0.4,0.3,0.7,0.5,1
		c-3.6,0.3-7.4,1.1-11.5,2.5c-1.8,0.6-3.6,1.4-5.5,2.2c3.5-7.2,7.1-13.2,10.4-17c2.7-3.2,3.3-8,1.2-11.2c-1.8-2.9-5-3.9-8.1-2.7
		c-0.4,0.2-0.8,0.4-1.3,0.6c-8.2,4.8-18.1,11.7-25.7,20.2c-0.2-3.5,0.3-7,1.3-10.6c1.1-3.6,0.1-7.4-2.5-9.2
		c-1.7-1.2-3.8-1.4-5.8-0.7c-1,0.4-1.9,1-2.7,1.8c-4,3.9-10.1,11.2-13.1,21.3c-0.8-0.3-1.5-0.6-2.3-0.9c-7.8-2.8-14.2-3.2-19.2-1.3
		c-1.1,0.4-2.1,0.9-3,1.6c-2.5,1.7-4.1,4.9-4,8.2c0.1,3.3,1.8,6,4.4,6.8c3.8,1.2,15.9,5.9,21.9,20.4c-1.4,1-2.8,2.3-4.3,3.6
		c0.3-1.2,0.5-2.6,0.3-3.9c-0.5-3.9-3.3-6.6-6.6-6.4c-2.5,0.2-6.2,0.7-10.4,2.1c-4.3,1.5-8.1,3.7-11.4,6.5c-1-5.9,0.7-11.9,5-17.9
		c2-2.8,2.4-6.8,1-9.8c-1.4-2.8-4.2-4-7-3c-0.1,0-0.2,0.1-0.3,0.1c-6.1,2.6-20.1,10.7-27.8,31.3c-0.6,0-1.2-0.1-1.8-0.1
		c-5.1-0.2-10,0.5-14.7,2.2c-5.8,2.1-11,5.6-15.6,10.4c-2.2,2.3-3,6-2,9.2c0.6,1.8,1.6,3.1,2.9,3.8c-1.4,1.4-2.8,3-4,4.8
		c-3.9-2.1-7.9-3.4-11.7-3.6c-1.6-0.1-3.1-0.1-4.7,0.1c1.4-4.6,4.4-10.8,10.8-16.7c2.3-2.1,3.3-5.9,2.4-9.2c-0.9-3.2-3.4-5-6.1-4.2
		c-1,0.3-2.1,0.7-3.3,1.1c-6.6,2.5-15.8,7.6-22.6,17.5c-1.9,2.8-3.5,5.8-4.8,9c-0.3-0.1-0.6-0.2-0.9-0.4c-4-1.6-7.5-2.4-10.5-2.6
		c-2.2-0.1-4.1,0.1-5.8,0.7c-0.6,0.2-1.2,0.5-1.7,0.8c-1.9,1.1-4.1,3-6.7,5.6c-0.1,0.1-0.2,0.3-0.4,0.4c-0.1,0.1-0.2,0.1-0.2,0.2
		c-2.9,2.8-5.6,5.9-7.3,8c-1.8,2.1-2.4,5.6-1.5,8.5c0.9,2.9,3.1,4.4,5.3,3.6c1-0.3,2.8-0.9,5-1.5c-0.1,0.1-0.3,0.3-0.4,0.5
		c-5,6.2-8.9,13.8-11.5,22.8c-6.7-20.6-10-37.3-11.5-49.7c-1.4-11.4-1.6-20.5-1.2-27.4c0.6,2.1,1,4.4,1.3,6.7
		c0.3,2.4,0.4,4.9,0.3,7.3c-0.2,3.4,1.4,6.3,3.8,6.7c0.6,0.1,1.2,0,1.8-0.2c1.7-0.7,3.1-2.5,3.7-5c2.6-11.1,5.4-26,4.9-37.5
		c1.1,1.5,2.3,4.2,3.4,8.3c0.8,3,3.1,4.6,5.4,3.6c0,0,0.1,0,0.1,0c2.3-1,4.1-4.1,4.1-7.5c0-3.4-0.2-6.7-0.6-9.9
		c-1.3-9.4-4.3-16.5-9-20.9c0.1-0.1,0.2-0.1,0.3-0.2c0.2-0.1,0.5-0.1,0.8-0.1c0.6,0,1.2-0.1,1.8-0.4c1.1-0.5,2.1-1.5,2.8-2.8
		c1.2-2.1,1.5-4.7,1-6.9c-1.7-7-5.9-13.2-12.8-13.6c3.4-5.6,7.9-11.8,12.7-14.3c2.2-1.2,3.9-4.2,4-7.5c0.1-3.2-1.4-5.7-3.6-6
		c-0.5-0.1-1.1-0.1-1.8-0.1c-3.5-0.1-7,0.8-10.5,2.7c-5.8,3.1-11.1,8.5-15.7,16.2c-0.5-0.7-1.1-1.3-1.7-2c-4.4-4.7-10-6.3-16-4.9
		c-1.8,0.4-3.6,1.1-5.4,2.1c-8.1,4.3-14.4,13.1-17.4,17.9c-1.4,2.3-1.8,5.5-1,7.8c0.8,2.3,2.6,3.2,4.4,2.3c0,0,0.1-0.1,0.1-0.1
		c0.5-0.3,1.1-0.6,1.7-0.9c5.1-2.6,13.3-5.6,19.2-2.5c-0.1,0.1-0.2,0.1-0.3,0.2c-5.9,3-10.4,7.5-12.9,13.1
		c-4.2,9.3-7.2,24.9-8.6,33.4c-0.5,2.9,0.3,5.7,2,6.8c0.9,0.6,1.9,0.7,2.9,0.2c0.8-0.4,1.6-1.1,2.3-2.2c1.5-2.4,2.9-4.7,4.4-6.9
		c-0.8,3.1-1.4,6.2-1.6,9.4c-0.7,11.3-0.9,22-0.9,27.5c0,3.2,1.5,5.7,3.5,6c0.5,0.1,1.1,0,1.6-0.2c1.5-0.6,2.8-2.3,3.4-4.5
		c1.2-4.6,4.8-17,9.9-26.1c-0.6,9.3-0.5,22.5,1.5,39.7c3.8,32,13.4,68.8,29.1,110.3c0.1,0.2,0.1,0.3,0.2,0.5c0,0.1,0.1,0.3,0.1,0.4
		c4.3,11.4,9.1,23.3,14.4,35.4c1.1,2.6,3.3,4.1,5.3,3.7c0.2,0,0.4-0.1,0.6-0.2c2-0.8,4.1-1.6,6.2-2.5c1.5-0.6,2.7-2.1,3.3-4.1
		c0.5-1.7,0.5-3.6,0.1-5.4c1-1.6,1.4-3.7,1.1-5.9c-0.2-1.8-0.9-3.4-1.8-4.6c0.4-2.2,0.1-4.7-0.9-6.6c-5.1-9.5-9.6-18.4-13.6-26.9
		c0-0.1,0.1-0.2,0.1-0.2c1.8-6.2,8-25.3,16.5-30.7c0.3,5.6,1,13.6,2.1,22.5c0.1,0.7,0.2,1.3,0.4,1.9c0,0.2,0,0.4,0,0.6
		c0,0.5,0,0.9,0.1,1.4c2.7,19.4,6.8,34.6,12.1,45.1c1.1,2.3,3,3.6,5,3.5c0.2,0,0.4,0,0.6-0.1c1.7-0.4,3.2-1.8,4-4
		c0,0,0.1-0.1,0.3-0.3c1.7-1.8,2.4-4.8,2-7.7c0-0.1,0.2-0.3,0.6-0.4c1.9-0.5,3.5-2.3,4.1-4.7c0.7-2.5,0.4-5.2-0.8-7.4
		c-0.1-0.3-0.2-0.5-0.2-0.8c0.5-3.4-0.7-7.2-3.1-8.7c-7.1-4.8-11.1-21.2-12.9-37.7c2.8,2.2,5.5,5.3,7.5,10c1.2,2.8,3.6,4.2,5.9,3.6
		c0.2-0.1,0.4-0.1,0.6-0.2c2.5-1.1,4.2-4.4,4-7.9c-0.3-5.6-1.3-14.3-4.5-22.5c2.7,1.3,5.9,3.6,9.2,8.1c1.4,1.9,3.4,2.7,5.3,2.1
		c0.6-0.2,1.2-0.5,1.8-0.9c2.3-1.8,3.5-5.5,2.7-9c-0.5-2.4-1.2-5.1-2-7.9c0,0,0.1,0,0.1,0c1.5-0.4,2.9-1.7,3.8-3.5
		c1.6-3.2,3.3-6,5-8c-1.5,6.8-2.3,15.5-0.8,25.3c0.3,2,0.7,4.1,1.2,6.2c0.8,3.4,3.4,5.6,6.1,5.3c0.3,0,0.5-0.1,0.8-0.1
		c2.4-0.6,4.4-3.2,4.8-6.5c0.7-5.3,1.7-10.2,2.9-14.5c-0.1,8.6,0.3,18.7,2,29.8c0.9,5.8,2.1,11.7,3.6,17.6c1,3.7,3.9,6.1,6.9,5.6
		c3.4-0.6,6.8-1,10-1.4c0.2,0,0.4-0.1,0.6-0.1c1.8-0.4,3.4-1.8,4.3-3.8c1.1-2.2,1.2-5,0.4-7.4c-1.8-5.2-3.3-10.9-4.5-17
		c-0.5-2.4-0.9-4.9-1.3-7.3c-1.4-8.6-2-16.7-2.4-23.2c0.7,1.3,1.3,2.8,1.7,4.4c0.9,3.2,3.2,5.4,6,5.4c0.5,0,1-0.1,1.5-0.2
		c2.1-0.6,4-2.5,4.8-5.1c1.5-4.7,3-11,3.2-17.7c0.6,0.9,1.2,1.9,1.7,3c1.4,3.1,4.3,4.7,7.2,3.8c0,0,0,0,0,0c2.4-0.7,4.2-2.9,5-5.7
		c0.8,0.5,1.6,1,2.6,1.1c0.8,0.1,1.5,0,2.3-0.2c2.1-0.6,3.9-2.3,4.9-4.8c1.4-3.5,4.3-9.8,9.5-15.9c-2.3,9.6-2.6,19.7-0.9,29.4
		c0.3,1.6,0.6,3.2,1,4.8c0.9,3.7,3.8,6.1,7,6c0.4,0,0.9-0.1,1.3-0.2c2.7-0.7,4.9-3.2,5.6-6.5c1.9-9.2,4.1-17.6,6.6-24.7
		c0.4,2.2,0.7,4.4,1,6.5c1.7,12.9,3.2,32.2,3,35.8c-0.2,2.9,0.8,5.7,2.7,7.7c3.2,3.4,7.6,2.9,11,2.1l1.1-0.3c5.7-1.5,8.9-6,9.9-9.7
		c0.4-1.3,0.5-2.6,0.3-3.9c-0.1-1.3-3.3-31.4-6.6-44.9c-0.9-3.6-1.8-6.9-2.5-9.8c4.7,1.4,9.9,4.1,14.3,9.1c1.9,2.2,4.8,3,7.4,2.2
		c1-0.3,2-0.8,2.9-1.5c3.3-2.7,4.4-7.6,2.6-11.5c-1.2-2.6-2.5-5.1-4-7.6c0.5,0.3,1.1,0.5,1.7,0.6c1.2,0.2,2.4,0.2,3.5-0.2
		c1.9-0.6,3.6-1.8,4.8-3.7c3.5-5.3,13.4-18.4,30.8-23.9c1-0.3,2-0.6,3-0.8c-2,7.7-3.3,17.4-1.4,26.5c0.9,4.3,2.4,8.3,4.6,11.7
		c1.8,2.9,5.2,4.4,8.6,3.7c0.2,0,0.4-0.1,0.6-0.1c0.3-0.1,0.5-0.2,0.8-0.4c0.4,13.6,1.5,29,4.3,42.6c0.5,2.6,1.1,5.1,1.8,7.6
		c0.7,2.7,2.5,5,4.8,6.2l8.7,4.4c1.8,0.9,3.9,1.2,5.9,0.7c1.1-0.2,2.2-0.7,3.2-1.4c2.8-2,5.8-4,8.8-6.1c2.2-1.5,3.7-3.9,4.1-6.6
		c0.4-2.7-0.2-5.4-1.8-7.6c-7-9.4-12-21.3-15-35.4c-4.3-20.1-3.4-39.5-2.8-46.9c0.1-0.6,0-1.1,0-1.7c0.7-0.9,1.4-1.8,2.1-2.6
		c1.2-0.5,3.4-1.4,6.2-2.2c9.2-2.8,26.6-6.3,38.2,3c2.4,1.9,5.7,2.4,8.7,1.6c1.1-0.3,2.2-0.8,3.2-1.6c3.8-2.7,5.5-7.4,4.2-11.5
		C520,307.7,513.5,293.9,495.3,288.5z M392,307.3c1.2-0.3,2.3-0.7,3.4-1c-0.6,0.6-1.2,1.1-1.8,1.7
		C393.1,307.8,392.5,307.6,392,307.3z M300.3,352.8c-0.7-0.6-1.4-1.2-2-1.6c1.5-1.2,3.3-2.3,5.4-3.5
		C302.4,349.3,301.3,351,300.3,352.8z M146.8,426.7c2.5-3.9,7.6-11.3,13.8-16.9c-3.9,8.4-7.5,19.1-8.8,31.4c-2-4.8-3.9-9.4-5.5-13.9
		C146.4,427.1,146.6,427,146.8,426.7z M217.1,396.2c-1-1.9-2.2-3.7-3.4-5.3c1.6-0.4,3.2-0.5,4.8-0.5
		C217.9,392.3,217.5,394.3,217.1,396.2z M376.2,352.7c-4.3-5.6-9.2-10-14.6-13.3c4.7-3.7,10.8-7.8,17.2-10.5
		C375.9,336.1,374.8,344.1,376.2,352.7z"/>
	<path class="st1" d="M682.2,359.2c6.5,0,12.9,1.5,19.1,4.6c1.2,0.6,2.5,0.9,3.8,0.9c2.1,0,4.1-0.8,5.6-2.3c2.5-2.4,3.2-6.2,1.7-9.4
		c-1.6-3.5-4-6.8-6.8-9.7c-8.2-8.1-19.8-12.1-34.5-12c-4.6,0.1-9.5,0.6-14.7,1.5c3.2-7.1,8.6-15.4,16.8-19.7c3.5-1.8,5.2-5.9,4-9.7
		c-1.1-3.5-4.3-5.8-8-5.8c-0.3,0-0.6,0-0.8,0.1c-8.9,1-26.6,4.7-38.1,18c-0.5-1.4-1.1-2.8-1.7-4.3c-7.7-17.3-21.2-26.9-39.2-27.7
		c-0.2,0-0.3,0-0.5,0c-3.3,0-6.2,2-7.5,5.1c-1.3,3.2-0.5,6.9,2,9.2c4.1,3.8,16.3,15.9,19.6,29.6c-2.1-0.4-4.4-0.6-6.6-0.5
		c-5.6,0.1-11.4,1.4-17.4,3.8c-3.7,1.5-5.8,5.5-4.9,9.4c0.1,0.4,0.2,0.7,0.3,1.1c-3.7-0.9-7.7-1.3-12.2-1.3c-2,0-4,0.1-6.1,0.4
		c4.9-5.6,9.7-10,13.8-12.5c3.4-2.1,4.8-6.3,3.3-10c-1.3-3.2-4.4-5.3-7.8-5.3c-0.5,0-0.9,0.1-1.4,0.1c-9.4,1.8-21.1,4.9-30.9,10.4
		c0.5-3.4,1.6-6.6,3.4-9.7c1.8-3.1,1.4-7-1-9.7c-1.6-1.8-3.9-2.8-6.2-2.7c-1.1,0-2.2,0.3-3.3,0.7c-5.2,2.4-13.3,7.2-18.6,16
		c-0.8-0.6-1.6-1.1-2.4-1.7c-8.4-5.5-15.8-8.3-22-8.2c-1.3,0-2.6,0.2-3.9,0.5c-3.3,0.7-5.8,3.4-6.3,6.8c-0.5,3.3,1.1,6.7,4,8.4
		c4.3,2.5,17.5,11.3,21.7,27.4c-1.8,0.6-3.7,1.3-5.6,2.2c0.6-1.1,1-2.3,1.1-3.7c0.2-4-2.5-7.5-6.4-8.4c-2.9-0.6-7.4-1.4-12.6-1.3
		c-5.4,0.1-10.4,1-14.9,2.7c-0.1-6.2,3.1-11.7,9.4-16.2c3-2.1,4.2-6,3-9.4c-1.2-3.4-4.4-5.6-7.9-5.5c-0.1,0-0.2,0-0.3,0
		c-8,0.4-26.9,3.5-40.8,22c-0.7-0.3-1.5-0.5-2.3-0.8c-6.6-2.1-13.2-3.1-19.8-3c-8.1,0.1-15.9,1.9-23.1,5.3c-3.4,1.6-5.3,5.4-4.5,9.1
		c0.4,2.1,1.7,3.9,3.3,5.1c-2.2,1-4.4,2.2-6.5,3.7c-5-3.6-10.4-6.4-15.9-8c-2.2-0.7-4.5-1.2-6.8-1.5c2.9-4.5,8.3-10.1,18.6-14.1
		c3.6-1.4,5.8-5.2,5.2-9c-0.6-3.9-3.9-6.7-7.8-6.9c-1.4-0.1-3.1-0.1-5-0.1c-10,0.1-24.4,2-36.5,10.4c-3.4,2.4-6.4,5.1-9,8.2
		c-0.4-0.3-0.9-0.5-1.4-0.8c-5.8-3.3-11.1-5.7-15.6-7.1c-3.4-1-6.5-1.5-9.2-1.5c-1.1,0-2.1,0.1-2.9,0.3c-3.2,0.5-7.1,1.7-11.9,3.7
		c-0.2,0.1-0.4,0.2-0.7,0.3c-0.2,0.1-0.3,0.1-0.4,0.2c-5.2,2.1-10.2,4.7-13.5,6.4c-3.4,1.8-5.1,5.6-4.2,9.3c0.9,3.7,4.2,6.3,8,6.3
		c1.7,0,4.7,0,8.4,0.1c-0.3,0.1-0.5,0.2-0.8,0.4c-9.3,5.2-17.1,12.6-23.2,22.1c-7.2-26.5-9.6-47.4-9.8-62.8
		c-0.2-14.1,1.3-25.1,3.2-33.3c0.6,2.8,0.9,5.7,1,8.7c0,3-0.3,6-0.9,8.8c-0.9,4,1.2,8.1,5.1,9.6c1,0.4,2,0.6,3,0.5
		c2.9,0,5.7-1.6,7.1-4.3c6.4-11.9,13.9-28.2,15.4-42c1.5,2.3,2.9,6.1,3.9,11.5c0.7,3.9,4.1,6.8,8.1,6.8c0,0,0.1,0,0.1,0
		c3.9-0.1,7.3-2.9,8-6.8c0.7-3.9,1-7.9,1-11.8c-0.2-11.6-3.7-21.5-10.3-29c0.1,0,0.3,0,0.4-0.1c0.4,0,0.8,0.1,1.3,0.3
		c1,0.3,2,0.5,2.9,0.5c1.8,0,3.6-0.7,5.1-1.9c2.3-1.8,3.4-4.7,2.9-7.6c-1.4-9.2-6.9-18.8-18.1-23.3c6.6-4.8,15.2-9.6,23.6-9.8
		c3.8-0.1,7.1-2.8,7.9-6.5c0.8-3.7-1.1-7.5-4.5-9.2c-0.8-0.4-1.8-0.8-2.9-1.2c-5.6-2.2-11.6-3.2-17.7-3.2
		c-10.3,0.1-20.2,3.5-29.6,10.2c-0.7-1.1-1.6-2.3-2.5-3.4c-6.8-8.5-16.1-14.1-27.1-16.2c-3.3-0.6-6.6-0.9-10.1-0.9
		c-15.7,0.2-29.1,7.4-35.7,11.6c-3.1,2-4.5,5.9-3.4,9.4c1.1,3.4,4.3,5.8,7.9,5.7c0.1,0,0.2,0,0.3,0c0.9,0,2.1-0.1,3.4-0.1
		c10-0.1,25.5,1.1,35.5,8.6c-0.2,0-0.4,0-0.6,0c-11.2,0.1-20.2,3.2-25.9,8.8c-9.6,9.3-18.2,27.4-22.5,37.3c-1.5,3.4-0.5,7.3,2.4,9.7
		c1.5,1.2,3.4,1.9,5.3,1.8c1.6,0,3.3-0.5,4.7-1.5c3.2-2.3,6.3-4.4,9.4-6.3c-2.1,3.4-3.7,7-4.7,10.9c-3.5,13.7-5.9,27-7,33.7
		c-0.6,3.9,1.6,7.7,5.3,9.1c1,0.4,2,0.5,3,0.5c2.8,0,5.4-1.5,6.9-4c3.1-5.1,11.8-18.6,22.7-27.1c-2.8,11.1-5.3,27.1-5,48.8
		c0.5,39.9,10,86.5,28.2,138.6c0.1,0.2,0.2,0.4,0.2,0.6c0,0.2,0.1,0.3,0.2,0.5c4.8,13.8,10.4,28.2,16.5,42.8
		c1.3,3.1,4.4,5.1,7.7,5.1c0.3,0,0.7,0,1-0.1c3.3-0.5,6.7-0.9,10.1-1.5c2.4-0.4,4.5-1.7,5.8-3.8c1.1-1.7,1.5-3.8,1.1-5.8
		c1.8-1.5,2.8-3.8,2.8-6.2c0-2-0.7-3.9-1.9-5.3c1.1-2.3,1.1-5.1-0.1-7.4c-6.1-11.5-11.4-22.5-16.1-33c0.1-0.1,0.1-0.2,0.2-0.2
		c4-6.4,17.3-25.9,31.3-29.3c-0.5,6.2-1.1,15.2-1.1,25.3c0,0.8,0.1,1.5,0.3,2.2c0,0.2-0.1,0.5-0.1,0.7c-0.1,0.5-0.1,1-0.1,1.5
		c0.4,21.7,3.7,39,9.6,51.4c1.3,2.6,3.8,4.4,6.7,4.7c0.3,0,0.6,0,0.8,0c2.6,0,5-1.3,6.6-3.4c0,0,0.1-0.1,0.4-0.3
		c2.8-1.5,4.4-4.6,4.2-7.7c0.1-0.1,0.4-0.2,1-0.3c2.8-0.1,5.4-1.7,6.8-4.1c1.4-2.4,1.5-5.4,0.2-7.9c-0.1-0.3-0.2-0.6-0.2-0.9
		c1.3-3.5,0.3-7.7-2.7-9.9c-9.3-6.7-12.1-25.4-11.6-43.7c3.7,3.1,7,7.3,9.1,12.8c1.2,3.3,4.4,5.4,7.8,5.4c0.3,0,0.6,0,0.9-0.1
		c3.8-0.5,6.8-3.5,7.2-7.3c0.6-6,0.8-15.5-2.2-25.2c3.7,2.2,7.7,5.6,11.5,11.3c1.6,2.4,4.2,3.7,7,3.7c0.9,0,1.8-0.2,2.7-0.5
		c3.6-1.3,5.8-4.8,5.4-8.6c-0.3-2.6-0.7-5.6-1.3-8.8c0,0,0.1,0,0.1,0c2.2,0,4.3-0.9,5.9-2.6c2.8-2.9,5.6-5.3,8.3-6.9
		c-3.2,6.7-6,15.6-5.9,26.1c0,2.2,0.2,4.5,0.5,6.8c0.5,3.8,3.5,6.7,7.3,7.1c0.4,0,0.7,0.1,1,0.1c3.4,0,6.4-2.2,7.6-5.4
		c1.9-5.2,4.1-9.9,6.5-14.1c-1.8,8.7-3.1,19.1-2.9,30.9c0.1,6.1,0.6,12.3,1.4,18.6c0.5,4,3.9,7,7.9,7.1c4.4,0.1,8.8,0.4,12.9,0.8
		c0.3,0,0.5,0,0.8,0c2.3,0,4.5-1,6.1-2.8c1.7-2,2.4-4.6,1.9-7.2c-1.2-5.6-2-11.5-2.4-17.8c-0.2-2.6-0.3-5.1-0.3-7.6
		c-0.1-9,0.5-17.2,1.3-23.8c0.6,1.5,1.1,3.1,1.3,4.9c0.5,3.4,3,6.2,6.4,6.9c0.6,0.1,1.2,0.2,1.9,0.2c2.7,0,5.3-1.4,6.8-3.8
		c2.7-4.2,5.7-10.1,7.2-16.7c0.6,1.1,1.1,2.2,1.5,3.4c1.1,3.4,4.3,5.7,7.9,5.7c0,0,0,0,0.1,0c3-0.1,5.5-1.7,7-4.3
		c0.8,0.7,1.8,1.4,2.9,1.8c0.9,0.3,1.8,0.4,2.7,0.4c2.5,0,5-1.2,6.5-3.3c2.2-3,6.8-8.3,13.9-12.7c-4.4,8.6-6.6,18.2-6.5,27.9
		c0,1.6,0.1,3.2,0.3,4.8c0.3,3.7,3.1,6.7,6.8,7.4c0.5,0.1,1,0.1,1.5,0.1c3.2,0,6.1-1.9,7.4-4.8c3.7-8.2,7.7-15.5,11.7-21.5
		c0,2.1,0,4.3-0.1,6.4c-0.5,12.5-2.3,30.8-3.3,34.1c-0.7,2.6-0.2,5.5,1.5,7.7c2.9,3.8,7.6,4.2,11.4,4.2l1.2,0
		c6.2-0.3,10.3-3.7,12.1-6.7c0.6-1.1,1-2.2,1.1-3.4c0.1-1.2,2.3-29.3,1.2-42.5c-0.3-3.6-0.6-6.8-0.9-9.6c4.7,2.5,9.6,6.3,13.2,12
		c1.6,2.5,4.3,3.9,7.1,3.8c1.1,0,2.2-0.2,3.2-0.7c3.7-1.6,5.7-5.8,4.7-9.7c-0.7-2.6-1.6-5.3-2.7-7.9c0.5,0.4,1,0.8,1.6,1
		c1.1,0.5,2.3,0.8,3.5,0.7c1.9,0,3.9-0.7,5.4-2.1c4.4-3.9,16.4-12.9,33.8-13.2c1,0,2,0,3,0.1c-3.2,6.2-6.2,14.4-6.1,22.8
		c0.1,4,0.8,7.8,2.2,11.2c1.2,3,4,5,7.2,5.2c0.2,0,0.4,0,0.6,0c0.3,0,0.5-0.1,0.8-0.1c-2.1,11.7-3.7,25.1-3.6,37.1
		c0,2.3,0.1,4.5,0.3,6.7c0.2,2.4,1.4,4.6,3.3,6.1l7,5.2c1.5,1.1,3.2,1.6,5,1.6c1,0,2-0.2,3-0.6c2.8-1.2,5.7-2.3,8.7-3.5
		c2.1-0.9,3.8-2.5,4.6-4.7c0.8-2.1,0.7-4.5-0.3-6.6c-4.3-9-6.6-19.9-6.8-32.3c-0.2-17.8,4-34,5.8-40.1c0.1-0.5,0.2-0.9,0.3-1.4
		c0.8-0.6,1.5-1.2,2.3-1.6c1.1-0.1,3.2-0.3,5.8-0.3c8.3-0.1,23.4,1.3,31.2,11.6c1.6,2.1,4.1,3.3,6.7,3.2c0.9,0,1.9-0.2,2.8-0.5
		c3.4-1.3,5.6-4.7,5.3-8.3C698.7,381.1,695.9,368.3,682.2,359.2z M586.5,346.7c1.2,0,2.4,0,3.5,0.1c-0.7,0.3-1.4,0.6-2.1,1
		C587.4,347.4,587,347,586.5,346.7z M479.8,361.6c-0.7-0.8-1.4-1.6-2.1-2.2c2-0.7,4.3-1.3,7-1.7C483,358.8,481.4,360.1,479.8,361.6z
		 M253.6,390.9c4.8-3.6,14.4-10.4,25.4-14.6c-7.8,8.2-15.6,19.2-20,32.7c-2.3-6.1-4.5-11.9-6.3-17.6
		C253,391.3,253.3,391.2,253.6,390.9z M365.5,379.9c-1.1-2.4-2.4-4.6-3.8-6.7c2.3,0.1,4.5,0.5,6.8,1
		C367.3,376.1,366.3,378,365.5,379.9z M562.5,383.4c-3.3-6.2-7.6-11.7-12.5-16.2c5.6-2.1,12.6-4.1,19.5-4.7
		C565.2,368.1,562.6,375.1,562.5,383.4z"/>
	<path class="st0" d="M329.6,395.7c3-5.9,12.4-19.8,34.8-20.9c1.2-0.1,2.3-0.1,3.5-0.1c-1.5-0.6-3.1-1.2-4.9-1.5
		c-4.3-0.8-7.5-4.5-7.7-8.9c-0.2-4.4,2.7-8.3,7-9.5c4.7-1.3,9.4-2.1,13.9-2.3c12.2-0.6,22.6,2.7,30.3,9.6c0.3-0.3,0.6-0.7,0.9-1
		c6.3-6.8,14.6-12.2,24.4-16c1-0.4,2-0.6,2.9-0.6c3-0.1,5.9,1.1,7.9,3.5c2.6,3.2,2.8,7.8,0.5,11.2c-6.3,9.4-11.1,18.1-13.8,24.9
		c1.7-0.1,3.4-0.3,5.2-0.4c9.3-0.5,22.7,0,33.2,4.9c3.9,1.8,6.1,6,5.4,10.2c-0.7,4.2-4.2,7.4-8.5,7.8c-6.8,0.6-13.1,1.4-18.6,2.3
		c-6.7,1.2-12,2.3-15.6,3.3c3.7,5.4,7.2,12.8,7.6,21.5c0,0.8,0,1.6,0,2.4c-0.1,4.2-3,7.9-7,9c-0.7,0.2-1.3,0.3-2,0.3
		c-3.1,0.1-6.1-1.3-7.9-3.8c0.8,4.1,1.3,8.3,1.5,12.5c0.1,1.8,0,3.5,0,5.3c-0.1,4.1-2.9,8-6.9,9.1l-9.4,2.6
		c-0.7,0.2-1.4,0.3-2.1,0.3c-2.4,0.1-4.8-0.7-6.6-2.3c-2.4-2.1-3.6-5.2-3.2-8.3c0.4-3.1,0.9-9.4,0.6-16.9c-0.4-8.6-2-15.9-4.6-21.8
		c-9.2,2.7-18,7.3-21.3,14.4c-1.5,3.2-4.7,5.3-8.1,5.5c-0.6,0-1.2,0-1.9-0.1c-4.1-0.6-7.4-3.9-8-8.1c-0.2-1.2-0.3-2.5-0.4-4
		c-0.4-9.5,1.9-18.1,6.6-25.3c-6.2,0.3-11.3,1.5-15,3.6c-1.3,0.7-2.7,1.1-4,1.1c-2.6,0.1-5.1-0.8-7.1-2.7
		C328.4,403.9,327.7,399.4,329.6,395.7z"/>
</g>
<g>
	<g>
		<linearGradient id="SVGID_1_" gradientUnits="userSpaceOnUse" x1="1212.7781" y1="563.0936" x2="1174.999" y2="564.2384">
			<stop  offset="0" style="stop-color:#9F83B7"/>
			<stop  offset="1" style="stop-color:#805BA0"/>
		</linearGradient>
		<path class="st2" d="M1186.1,547.7c0,0,32.1,21.8,70.1,10.6c0,0-20.6,30.3-65.8,18.3L1186.1,547.7z"/>
		<g>
			
				<linearGradient id="SVGID_2_" gradientUnits="userSpaceOnUse" x1="1202.0906" y1="471.0023" x2="1243.952" y2="471.0023" gradientTransform="matrix(0.9103 0.4139 -0.4139 0.9103 46.7526 -247.7006)">
				<stop  offset="0" style="stop-color:#9F83B7"/>
				<stop  offset="1" style="stop-color:#805BA0"/>
			</linearGradient>
			<path class="st3" d="M967,733.7c-5.2,11.4-17.9,16.7-28.4,11.9l0,0c-10.5-4.8-14.9-17.9-9.7-29.2l34.4-75.6
				c5.2-11.4,17.9-16.7,28.4-11.9l0,0c10.5,4.8,14.9,17.9,9.7,29.2L967,733.7z"/>
			<path class="st4" d="M942.7,713.5c-18.6-0.5-34,14.1-34.5,32.7l67.2,1.8C975.9,729.5,961.2,714,942.7,713.5z"/>
		</g>
		<g>
			<g>
				<linearGradient id="SVGID_3_" gradientUnits="userSpaceOnUse" x1="1090.1575" y1="721.4727" x2="1090.1575" y2="668.3641">
					<stop  offset="0" style="stop-color:#9F83B7"/>
					<stop  offset="1" style="stop-color:#805BA0"/>
				</linearGradient>
				<path class="st5" d="M1111.1,724.1c0,12.5-9.4,22.6-20.9,22.6l0,0c-11.6,0-20.9-10.1-20.9-22.6v-83c0-12.5,9.4-22.6,20.9-22.6
					l0,0c11.6,0,20.9,10.1,20.9,22.6V724.1z"/>
				<path class="st4" d="M1090.2,715c-18.6,0-33.6,15-33.6,33.6h67.2C1123.8,730,1108.7,715,1090.2,715z"/>
			</g>
		</g>
		<g>
			<g>
				<linearGradient id="SVGID_4_" gradientUnits="userSpaceOnUse" x1="1090.1575" y1="721.4727" x2="1090.1575" y2="668.3641">
					<stop  offset="0" style="stop-color:#9F83B7"/>
					<stop  offset="1" style="stop-color:#805BA0"/>
				</linearGradient>
				<path class="st6" d="M1111.1,724.1c0,12.5-9.4,22.6-20.9,22.6l0,0c-11.6,0-20.9-10.1-20.9-22.6v-83c0-12.5,9.4-22.6,20.9-22.6
					l0,0c11.6,0,20.9,10.1,20.9,22.6V724.1z"/>
				<path class="st4" d="M1090.2,715c-18.6,0-33.6,15-33.6,33.6h67.2C1123.8,730,1108.7,715,1090.2,715z"/>
			</g>
		</g>
		<path class="st7" d="M1194.1,592c0,49-33.6,88.7-75.1,88.7H995.9c-41.5,0-75.1-39.7-75.1-88.7v-24.6c0-49,33.6-88.7,75.1-88.7
			H1119c41.5,0,75.1,39.7,75.1,88.7V592z"/>
		<g>
			<path class="st7" d="M1042.3,724.1c0,12.5-9.4,22.6-20.9,22.6l0,0c-11.6,0-20.9-10.1-20.9-22.6v-83c0-12.5,9.4-22.6,20.9-22.6
				l0,0c11.5,0,20.9,10.1,20.9,22.6V724.1z"/>
			<path class="st4" d="M1021.4,715c-18.6,0-33.6,15-33.6,33.6h67.2C1055,730,1040,715,1021.4,715z"/>
		</g>
		<path class="st8" d="M920.9,567.4V592c0,49,33.6,88.7,75.1,88.7h26.6c13.8-10,23.5-22.9,27.5-36.3c-0.4-1.6-0.8-3.2-1.2-4.7
			c-0.7-2.4-1.5-4.7-2.5-6.9c15.8-19.3,22.5-42.1,16.1-63.3c-0.5-1.5-1-3-1.6-4.5c-0.2-0.5-0.5-1-0.7-1.5c-0.4-0.9-0.8-1.8-1.3-2.7
			c-0.3-0.6-0.7-1.2-1-1.8c-0.4-0.7-0.9-1.5-1.3-2.2c-0.4-0.7-0.8-1.3-1.3-2c-0.4-0.6-0.9-1.2-1.3-1.8c-0.5-0.7-1-1.4-1.6-2.1
			c-0.4-0.5-0.8-0.9-1.2-1.4c-0.7-0.8-1.3-1.5-2-2.3c-0.1-0.1-0.1-0.1-0.2-0.2c-2.4-2.5-5.1-4.9-8-7.1c0,0,0,0,0,0
			c-1.1-0.8-2.2-1.7-3.4-2.4l-22.1-57.8c-0.1-0.3-0.2-0.6-0.3-1h-19.3C954.5,478.8,920.9,518.4,920.9,567.4z"/>
		<g>
			<path class="st7" d="M1164.3,724.1c0,12.5-9.4,22.6-20.9,22.6l0,0c-11.6,0-20.9-10.1-20.9-22.6v-83c0-12.5,9.4-22.6,20.9-22.6
				l0,0c11.6,0,20.9,10.1,20.9,22.6V724.1z"/>
			<path class="st4" d="M1143.4,715c-18.6,0-33.6,15-33.6,33.6h67.2C1177,730,1161.9,715,1143.4,715z"/>
		</g>
		<polygon class="st9" points="1122.6,639.4 1112.8,680.7 1122.2,680.3 		"/>
		<polygon class="st9" points="1012.4,639.6 1002.6,681 1012,680.6 		"/>
		<g>
			<g>
				<g>
					<path class="st7" d="M830.2,501.3c-5.9-8.1-3.7-19.8,5-26.1c5.4-3.9,11.9-4.8,17.6-3c1-1.8,2-3.7,3.1-5.5
						c-8.6-5.2-20.3-4.9-29.5,1.7c-11.9,8.7-15,24.8-6.9,36c5,6.8,13,10.3,21.2,9.9c0.1-2.1,0.2-4.2,0.5-6.3
						C836.9,507.3,833,505,830.2,501.3z"/>
					<path class="st10" d="M835.2,475.2c-8.6,6.3-10.9,17.9-5,26.1c2.7,3.7,6.7,6.1,11,6.9c1.4-12.1,5.3-24.3,11.5-35.9
						C847.1,470.4,840.6,471.3,835.2,475.2z"/>
					<path class="st11" d="M835.2,475.2c-8.6,6.3-10.9,17.9-5,26.1c2.7,3.7,6.7,6.1,11,6.9c1.4-12.1,5.3-24.3,11.5-35.9
						C847.1,470.4,840.6,471.3,835.2,475.2z"/>
				</g>
				<g>
					<path class="st7" d="M999.1,450.5c0.4-10-7.8-18.5-18.5-19c-6.6-0.3-12.6,2.6-16.3,7.2c-1.8-1-3.7-1.9-5.6-2.8
						c4.3-9.1,14.3-15.3,25.5-14.8c14.8,0.7,26.2,12.4,25.6,26.3c-0.4,8.5-5.2,15.7-12.2,20c-1.2-1.7-2.5-3.4-3.9-5
						C996.8,459.2,998.9,455.1,999.1,450.5z"/>
					<path class="st10" d="M980.6,431.5c10.7,0.5,19,9,18.5,19c-0.2,4.6-2.2,8.7-5.4,11.8c-7.9-9.3-17.8-17.3-29.4-23.6
						C968,434.1,974,431.2,980.6,431.5z"/>
					<path class="st11" d="M980.6,431.5c10.7,0.5,19,9,18.5,19c-0.2,4.6-2.2,8.7-5.4,11.8c-7.9-9.3-17.8-17.3-29.4-23.6
						C968,434.1,974,431.2,980.6,431.5z"/>
				</g>
			</g>
			<g>
				<path class="st7" d="M1027.3,538.6l-22.1-57.8c-14.5-48.3-52.8-54.6-101.2-40.1c-48.3,14.5-76.8,40.9-62.3,89.2l13.5,60.4
					c-5.6,13.3-7.1,27.2-3.1,40.4c12.1,40.2,66.7,59.4,121.9,42.8c55.2-16.6,90.2-62.7,78.1-102.9
					C1048.3,557.4,1039.3,546.7,1027.3,538.6z"/>
			</g>
			<path class="st12" d="M950.2,594c-37.6,11.3-59.1,50.6-47.9,87.7c0.5,1.6,1,3.1,1.6,4.6c17.7,14.8,47.4,19.8,77.3,10.8
				c30-9,52-29.5,58.5-51.6c-0.4-1.6-0.8-3.2-1.2-4.7C1027.4,603.6,987.8,582.7,950.2,594z"/>
			<path class="st13" d="M947.7,585.8c-35.7,10.7-56,48-45.4,83.2c0.5,1.5,1,3,1.5,4.4c16.8,14,44.9,18.8,73.3,10.2
				c28.4-8.6,49.3-28,55.5-49c-0.3-1.5-0.7-3-1.2-4.5C1021,595,983.4,575.1,947.7,585.8z"/>
			<g>
				<g>
					<path class="st14" d="M907.8,518.9c1.5,5.1-1.4,10.5-6.4,12c-5.1,1.5-10.5-1.4-12-6.4c-1.5-5.1,1.3-10.5,6.4-12
						C900.9,511,906.3,513.9,907.8,518.9z"/>
					<path class="st14" d="M899.8,526.6c-3.4,1-6.9-0.6-8.5-3.6c0,0.4,0.1,0.9,0.3,1.3c1.1,3.8,5.2,6,9,4.8c3.8-1.1,6-5.2,4.8-9
						c-0.1-0.4-0.3-0.8-0.5-1.2C905.3,522.3,903.2,525.6,899.8,526.6z"/>
					<path class="st15" d="M896.7,518.8c0.4,1.2-0.3,2.5-1.6,2.9c-1.2,0.4-2.5-0.3-2.9-1.6c-0.4-1.2,0.3-2.5,1.6-2.9
						C895.1,516.8,896.4,517.5,896.7,518.8z"/>
				</g>
				<g>
					<path class="st14" d="M962.6,502.5c1.5,5.1-1.4,10.5-6.4,12c-5.1,1.5-10.5-1.4-12-6.4c-1.5-5.1,1.4-10.5,6.4-12
						C955.7,494.5,961,497.4,962.6,502.5z"/>
					<path class="st14" d="M954.6,510.1c-3.4,1-6.9-0.6-8.5-3.6c0,0.4,0.1,0.9,0.3,1.3c1.1,3.8,5.2,6,9,4.8c3.8-1.1,6-5.2,4.8-9
						c-0.1-0.4-0.3-0.8-0.5-1.2C960,505.8,958,509.1,954.6,510.1z"/>
					
						<ellipse transform="matrix(0.9573 -0.2891 0.2891 0.9573 -104.8764 295.9317)" class="st15" cx="949.3" cy="503" rx="2.3" ry="2.3"/>
				</g>
			</g>
			<g>
				<polygon class="st16" points="919,676.3 922.7,690.7 935.9,690.8 933.9,675.5 				"/>
				<polygon class="st16" points="1021.6,645.5 1026.5,659.5 1015.5,666.8 1008.8,652.9 				"/>
			</g>
			<path class="st12" d="M1027.3,538.6L1027.3,538.6c-27.5-19.4-63.6-26.4-98.6-15.9c-35,10.5-61.2,36.2-73.5,67.6l0,0.1
				c-0.5,1.3-1,2.6-1.5,3.9c-0.2,0.6-0.5,1.3-0.7,1.9c-3.7,11.5-4.4,23.3-1,34.6c12.1,40.2,66.7,59.4,121.9,42.8
				c55.2-16.6,90.2-62.7,78.1-102.9c-3.4-11.3-10.4-20.8-19.9-28.3c-0.5-0.4-1-0.8-1.6-1.2C1029.6,540.3,1028.5,539.4,1027.3,538.6z
				"/>
			<g>
				<path class="st17" d="M997.4,609.7c1.8,6-1.6,12.4-7.6,14.2c-6,1.8-12.4-1.6-14.2-7.6c-1.8-6,1.6-12.4,7.6-14.2
					C989.2,600.3,995.6,603.7,997.4,609.7z"/>
				<path class="st17" d="M941.3,626.5c1.8,6-1.6,12.4-7.6,14.2c-6,1.8-12.4-1.6-14.2-7.6c-1.8-6,1.6-12.4,7.6-14.2
					C933.2,617.1,939.5,620.5,941.3,626.5z"/>
			</g>
			<path class="st18" d="M897.5,546.2c0,0,27.4-25.4,66.8-20.4C1003.6,530.9,897.5,546.2,897.5,546.2z"/>
		</g>
	</g>
	<g>
		<g>
			<path class="st14" d="M907.8,518.9c1.5,5.1-1.4,10.5-6.4,12c-5.1,1.5-10.5-1.4-12-6.4c-1.5-5.1,1.3-10.5,6.4-12
				C900.9,511,906.3,513.9,907.8,518.9z"/>
			<path class="st14" d="M899.8,526.6c-3.4,1-6.9-0.6-8.5-3.6c0,0.4,0.1,0.9,0.3,1.3c1.1,3.8,5.2,6,9,4.8c3.8-1.1,6-5.2,4.8-9
				c-0.1-0.4-0.3-0.8-0.5-1.2C905.3,522.3,903.2,525.6,899.8,526.6z"/>
			<path class="st15" d="M896.7,518.8c0.4,1.2-0.3,2.5-1.6,2.9c-1.2,0.4-2.5-0.3-2.9-1.6c-0.4-1.2,0.3-2.5,1.6-2.9
				C895.1,516.8,896.4,517.5,896.7,518.8z"/>
		</g>
		<g>
			<path class="st14" d="M962.6,502.5c1.5,5.1-1.4,10.5-6.4,12c-5.1,1.5-10.5-1.4-12-6.4c-1.5-5.1,1.4-10.5,6.4-12
				C955.7,494.5,961,497.4,962.6,502.5z"/>
			<path class="st14" d="M954.6,510.1c-3.4,1-6.9-0.6-8.5-3.6c0,0.4,0.1,0.9,0.3,1.3c1.1,3.8,5.2,6,9,4.8c3.8-1.1,6-5.2,4.8-9
				c-0.1-0.4-0.3-0.8-0.5-1.2C960,505.8,958,509.1,954.6,510.1z"/>
			
				<ellipse transform="matrix(0.9573 -0.2891 0.2891 0.9573 -104.8764 295.9317)" class="st15" cx="949.3" cy="503" rx="2.3" ry="2.3"/>
		</g>
	</g>
</g>
<g>
	<path class="st19" d="M531.4,454.9c9.3,3.2,22-26.8,6.8-41.9c-6.3-6.3-16.4-9.4-24.1-7.3c-1.5-7.8-7.1-16.3-16.3-18.1
		c-6.1-1.2-10.6-1-13.4,2.1c-17.7-20.7-55.6-28.3-78.2-13.6c-23.6,15.3-35,46.2-43.8,71.5c-9.5-20.1-22.6-30.3-46.4-27
		c-21.9,3-43.3,30.6-35.4,53.5c-24.7-35.1-55.4-21-67.2,14.9c-13.7-31.1-56.8-7.6-49.3,20.5c-12.4-28-59.2-17.1-55.1,13.9
		c-25.7-39.8-94.3,36.1-13.6,51.9c-10.9,29.1,40.3,48,56.4,28.7c-3.9,23,34.5,28,48.7,19.3c-6.5,29.2,44.2,29.7,59.2,16.8
		c12.7,15,69.7,54.3,77.1,14.4c3.4,25.6,56.2,32.3,55.8,4.1c39.3,41.1,92.9-27.4,53.5-41.2c38.2,13.3,57.7-48.2,22.8-63.7
		c28.5,14.2,52.2-31.2,33.3-44.8C528.7,517.9,546.6,475.7,531.4,454.9z"/>
	<path class="st20" d="M449.5,455.6c-8.1-13.5-31.5-9.7-40.2,1c-5.4,6.6-7.7,17.4-8.2,25.8c-10.6-7.6-19.1-14.2-32.9-8.7
		c-12.5,5-21.3,21.2-18.5,34.7c-3.3-8.8-15.8-9.7-23-7c-12,4.5-19,14-22.7,25.9c1.5-4.9-6.5-11.5-9.9-13.8
		c-7.1-4.9-12.5-10.8-20.1-7.8c-3.6,1.4-6.8,3.4-12,18.2"/>
	<path class="st20" d="M181.8,542.6c5.8-17,22.6-11,22.6,5.7c5.5-5.4,10.4-8.4,18.7-7.3c7.1,0.9,16.2,6.5,13.4,14.9
		c3.7-10.2,9.6-22.5,22.3-14.8"/>
</g>
<path class="st21" d="M637.6,510.4c0,33.6-27.2,60.9-60.9,60.9H477c-33.6,0-60.9-27.2-60.9-60.9v-16.9c0-33.6,27.2-60.9,60.9-60.9
	h99.7c33.6,0,60.9,27.2,60.9,60.9V510.4z"/>
<g>
	<g>
		<g>
			<g>
				<g>
					<path class="st22" d="M526.7,354.3c-25.5-43.8-84.3-25.5-84.3-25.5l10.3-14.2c-28.2-5.6-45.2,8.6-53.7,19.2
						c-14.8-11.5-33.7,2.1-33.7,2.1l16.5,8.8c-13.3,1.7-35.6,8.9-45,37.5l17.5-1.9c0,0-44.9,42.1-19.4,85.9l14.8-13
						c0,0-2.6,51.7,65.8,69.7l-2-10.9c0,0,30.3,4.6,66.3-13.5l0.1,0.1c0.6-0.4,1.2-0.7,1.8-1.1c0.6-0.3,1.2-0.6,1.8-1l-0.1-0.1
						c33.5-22.4,44.4-51.1,44.4-51.1l8.5,7.1c18-68.4-28.2-91.7-28.2-91.7L526.7,354.3z"/>
				</g>
				
					<linearGradient id="SVGID_5_" gradientUnits="userSpaceOnUse" x1="430.6909" y1="482.8531" x2="430.6909" y2="437.0122" gradientTransform="matrix(0.8735 -0.4869 0.4869 0.8735 -139.1664 271.1053)">
					<stop  offset="0" style="stop-color:#BC5B16"/>
					<stop  offset="1" style="stop-color:#9E4C00"/>
				</linearGradient>
				<path class="st23" d="M458.2,462c-32.8,18.3-67.4,26.6-97.7,25.3c9,13.5,25.3,27.7,55,35.5l-2-10.9c0,0,30.3,4.6,66.3-13.5
					l0.1,0.1c0.6-0.4,1.2-0.7,1.8-1.1c0.6-0.3,1.2-0.6,1.8-1l-0.1-0.1c33.5-22.4,44.4-51.1,44.4-51.1l8.5,7.1
					c7.6-28.8,3.8-49.6-3.2-64.1C518.7,416.1,492.6,442.8,458.2,462z"/>
				<g>
					<path class="st21" d="M507.9,396.9c28.6,21,1.6,70.8-34,90.7c-35.6,19.9-92.2,16.6-95-18.8c-2.8-35.1-11.2-87.9,24.4-107.8
						C439,341.2,476.6,374,507.9,396.9z"/>
				</g>
				<path class="st24" d="M514.9,442.8c-23.6-15.7-49-26.9-73.4-13.3c-24,13.4-28,41.7-27.2,69.4c18.9,2.7,41.9-1.4,59.6-11.3
					C491.7,477.7,507.3,460.4,514.9,442.8z"/>
				<path class="st25" d="M449.2,464.2c0.1,0.1,0.1,0.2,0.2,0.3l2.4,4.4c2.8,5.1,9.3,6.9,14.4,4.1c5.1-2.8,6.9-9.3,4.1-14.4
					l-2.4-4.4c-0.1-0.1-0.1-0.2-0.2-0.3L449.2,464.2z"/>
				<g>
					
						<ellipse transform="matrix(0.8735 -0.4869 0.4869 0.8735 -174.5972 256.2157)" class="st26" cx="405.7" cy="464" rx="6.9" ry="6.9"/>
					
						<ellipse transform="matrix(0.8735 -0.4869 0.4869 0.8735 -140.8367 290.9791)" class="st26" cx="489.4" cy="416.5" rx="6.9" ry="6.9"/>
				</g>
				<g>
					
						<ellipse transform="matrix(0.8735 -0.4869 0.4869 0.8735 -164.4456 254.0767)" class="st14" cx="406.6" cy="443.4" rx="10.6" ry="10.6"/>
					
						<ellipse transform="matrix(0.8735 -0.4869 0.4869 0.8735 -138.5203 281.2031)" class="st14" cx="471.8" cy="407.1" rx="10.6" ry="10.6"/>
				</g>
				<g>
					<g>
						<path class="st27" d="M458.5,459.9c-0.7,0.4-1.7,0.1-2.1-0.6L454,455c-0.4-0.7-0.1-1.7,0.6-2.1c0.7-0.4,1.7-0.1,2.1,0.6
							l2.4,4.3C459.5,458.5,459.2,459.4,458.5,459.9z"/>
					</g>
					<g>
						<path class="st27" d="M453.3,464.9c-7.8,4.4-14.3,1.2-14.6,1.1c-0.8-0.4-1.1-1.3-0.7-2.1c0.4-0.8,1.3-1.1,2.1-0.7
							c0.3,0.2,8.3,3.9,16.9-5.1c0.6-0.6,1.6-0.6,2.2-0.1c0.6,0.6,0.6,1.6,0.1,2.2C457.2,462.3,455.2,463.8,453.3,464.9z"/>
					</g>
					<g>
						<g>
							<path class="st27" d="M458.5,459.9c0.7-0.4,1-1.4,0.6-2.1l-2.4-4.3c-0.4-0.7-1.4-1-2.1-0.6c-0.7,0.4-1,1.4-0.6,2.1l2.4,4.3
								C456.8,460,457.7,460.3,458.5,459.9z"/>
						</g>
						<g>
							<path class="st27" d="M465.5,458.1c7.8-4.4,8.6-11.5,8.6-11.9c0.1-0.8-0.5-1.6-1.4-1.7c-0.8-0.1-1.6,0.5-1.7,1.4
								c0,0.4-1.1,9.1-13.2,11.7c-0.8,0.2-1.4,1-1.2,1.8c0.2,0.8,1,1.4,1.8,1.2C461.2,460.1,463.6,459.2,465.5,458.1z"/>
						</g>
					</g>
				</g>
				<g>
					
						<ellipse transform="matrix(0.8735 -0.4869 0.4869 0.8735 -163.0053 252.8787)" class="st15" cx="405" cy="440.1" rx="2.6" ry="2.6"/>
					
						<ellipse transform="matrix(0.8735 -0.4869 0.4869 0.8735 -137.2593 279.8174)" class="st15" cx="469.7" cy="404" rx="2.6" ry="2.6"/>
				</g>
				<g>
					<g>
						<path class="st10" d="M359,423.3c-5.6-5-5.8-13.8-0.6-19.7c3.3-3.7,7.9-5.4,12.3-5c0.4-1.5,0.9-3,1.4-4.5
							c-7.1-2.4-15.6-0.3-21.1,6c-7.3,8.2-7,20.5,0.8,27.3c4.7,4.2,11.1,5.4,17,3.8c-0.3-1.5-0.5-3.1-0.7-4.7
							C364.9,426.7,361.6,425.6,359,423.3z"/>
						<path class="st10" d="M358.5,403.6c-5.3,5.9-5,14.8,0.6,19.7c2.6,2.3,5.8,3.3,9.1,3.2c-0.9-9,0-18.5,2.6-28
							C366.4,398.2,361.8,399.9,358.5,403.6z"/>
						<path class="st11" d="M358.5,403.6c-5.3,5.9-5,14.8,0.6,19.7c2.6,2.3,5.8,3.3,9.1,3.2c-0.9-9,0-18.5,2.6-28
							C366.4,398.2,361.8,399.9,358.5,403.6z"/>
					</g>
					<g>
						<path class="st10" d="M479.7,356.1c-1.3-7.4-8.7-12.2-16.5-10.9c-4.9,0.8-8.7,3.9-10.7,7.8c-1.5-0.4-3-0.8-4.6-1.2
							c1.7-7.3,7.9-13.4,16.2-14.8c10.8-1.9,21.1,4.8,22.8,15c1.1,6.2-1.2,12.3-5.7,16.5c-1.2-1-2.4-2.1-3.6-3
							C479.5,362.8,480.3,359.5,479.7,356.1z"/>
						<path class="st10" d="M463.2,345.2c7.8-1.4,15.2,3.5,16.5,10.9c0.6,3.4-0.2,6.7-2,9.5c-7.2-5.5-15.8-9.8-25.2-12.5
							C454.4,349.1,458.3,346.1,463.2,345.2z"/>
						<path class="st11" d="M463.2,345.2c7.8-1.4,15.2,3.5,16.5,10.9c0.6,3.4-0.2,6.7-2,9.5c-7.2-5.5-15.8-9.8-25.2-12.5
							C454.4,349.1,458.3,346.1,463.2,345.2z"/>
					</g>
				</g>
				<path class="st22" d="M438.8,347.6c0,0-9.5-1.9-15.6,1.6c-0.7-3.7-1.2-7.4-1.2-10.7c0,0-39.7-0.2-47.2,31.6c0,0,1.1,1.4,3.2,3.5
					c-4.1,3.1-6.5,6.3-6.5,6.3c5.6,20.2,20.1,23.4,20.1,23.4c0.3-5.7,1-11.9,1.7-17.5c11.5,7.1,27.4,12.4,44.9,5.3
					c0,0-5.8-11.7-10.5-25.6c5.2,1.8,12.1,3.4,19.4,3.1C447,368.6,440.4,358.8,438.8,347.6z"/>
				<path class="st11" d="M463.6,438.6c1.3,2.4-0.8,12.2-8,16.2c-7.2,4-16.7,0.7-18-1.7s2.2-9.7,9.4-13.7
					C454.2,435.4,462.3,436.2,463.6,438.6z"/>
				<path class="st22" d="M399,333.7c-14.8-11.5-33.7,2.1-33.7,2.1s16-8.8,30.9,7.9C396.2,343.7,398.5,335.4,399,333.7z"/>
				<path class="st28" d="M452.6,314.5c-28.2-5.6-45.2,8.6-53.7,19.2l-2.7,10C417.1,316.7,452.6,314.5,452.6,314.5z"/>
				<path class="st29" d="M336.8,382c0,0,10.1-11.4,30.8-15.4l-13.4,13.5L336.8,382z"/>
				<path class="st29" d="M452.6,314.5c0,0-15.8,3-30.2,18.6l19.9-4.3L452.6,314.5z"/>
				<path class="st29" d="M349.6,453.1l0.2-8.2c0,0-13.7,7-14.9,21.1L349.6,453.1z"/>
				<path class="st29" d="M508.1,360.7l-8-4.6c0,0,13.9-8.2,26.6-1.8L508.1,360.7z"/>
				<path class="st22" d="M414.2,516.4c0,0.1,0,0.1,0,0.2l-0.2,0.1c-0.1,0-0.1,0-0.2,0l0,0c0-0.1,0-0.1,0-0.2l0.2-0.1
					C414,516.3,414.1,516.3,414.2,516.4L414.2,516.4z"/>
			</g>
			
				<ellipse transform="matrix(0.8735 -0.4869 0.4869 0.8735 -158.7072 274.545)" class="st30" cx="448.9" cy="442.6" rx="4.7" ry="1.5"/>
			<g>
				<g>
					<path class="st11" d="M473.5,435.9c3.2-5.1,7.1-9.6,11.3-13.9c4.2-4.3,8.8-8.2,13.7-11.7c4.9-3.5,10-6.7,15.4-9.3
						c2.7-1.3,5.4-2.5,8.2-3.7c2.8-1.1,5.6-2.1,8.5-2.9c-5.5,2.4-10.8,4.9-16,7.8c-5.2,2.9-10.2,6.1-15,9.6
						c-4.8,3.5-9.4,7.2-13.8,11.2c-2.2,2-4.3,4.1-6.4,6.2C477.4,431.4,475.4,433.6,473.5,435.9z"/>
					<path class="st11" d="M479.2,438.4c3.8-4.6,8.3-8.6,13-12.3c4.7-3.7,9.8-6.9,15.1-9.8c5.3-2.8,10.8-5.3,16.5-7.2
						c2.8-1,5.7-1.8,8.6-2.6c2.9-0.7,5.8-1.3,8.8-1.7c-5.7,1.6-11.4,3.5-16.9,5.7c-5.5,2.2-10.9,4.7-16.1,7.5
						c-5.2,2.8-10.2,5.9-15.1,9.3c-2.4,1.7-4.8,3.5-7.1,5.3C483.7,434.4,481.4,436.4,479.2,438.4z"/>
					<path class="st11" d="M483.7,442c4.4-4,9.5-7.3,14.7-10.3c5.2-3,10.7-5.4,16.3-7.5c5.6-2,11.4-3.7,17.3-4.8
						c3-0.5,5.9-1,8.9-1.3c3-0.2,6-0.5,9-0.4c-5.9,0.8-11.8,1.8-17.5,3.2c-5.8,1.4-11.4,3.1-17,5.1c-5.6,2-11,4.4-16.3,7
						c-2.7,1.3-5.3,2.7-7.8,4.2C488.7,438.7,486.2,440.3,483.7,442z"/>
				</g>
				<g>
					<path class="st11" d="M430.8,459.7c-6,0-11.9,1-17.8,2.3c-5.9,1.3-11.6,3.2-17.1,5.5c-5.5,2.3-10.9,5-16,8.2
						c-2.5,1.6-5,3.3-7.4,5.1c-2.4,1.8-4.7,3.7-6.9,5.7c4.9-3.4,9.9-6.6,15.1-9.5c5.2-2.8,10.5-5.5,16-7.7
						c5.5-2.3,11.1-4.2,16.8-5.8c2.8-0.8,5.7-1.5,8.6-2.1C424.9,460.6,427.9,460.1,430.8,459.7z"/>
					<path class="st11" d="M430,465.9c-5.9,0.8-11.7,2.5-17.3,4.6c-5.6,2.1-11.1,4.7-16.3,7.6c-5.2,3-10.2,6.4-14.8,10.2
						c-2.3,1.9-4.6,3.9-6.7,6c-2.1,2.1-4.2,4.3-6.1,6.6c4.4-4,9-7.9,13.7-11.4c4.8-3.5,9.7-6.8,14.9-9.7c5.1-3,10.4-5.6,15.9-8
						c2.7-1.2,5.5-2.3,8.3-3.2C424.2,467.6,427.1,466.7,430,465.9z"/>
					<path class="st11" d="M430.6,471.6c-5.8,1.6-11.2,4.2-16.5,7.1c-5.3,2.9-10.3,6.2-15,9.9c-4.7,3.7-9.1,7.8-13.2,12.2
						c-2,2.2-3.9,4.5-5.8,6.9c-1.8,2.4-3.5,4.8-5.1,7.4c3.8-4.6,7.7-9.1,11.9-13.2c4.2-4.2,8.6-8.1,13.3-11.8
						c4.6-3.7,9.5-7,14.5-10.2c2.5-1.6,5.1-3,7.7-4.4C425.2,474.1,427.9,472.8,430.6,471.6z"/>
				</g>
			</g>
		</g>
	</g>
	<g>
		<path class="st24" d="M442.4,563.1c0,15.2,12.3,27.6,27.6,27.6v-55.1C454.8,535.5,442.4,547.8,442.4,563.1z"/>
		<g>
			<path class="st30" d="M469.7,575c-3.9,0-7.1,1.8-7.1,3.9c0,2.2,3.2,3.9,7.1,3.9c0.1,0,0.2,0,0.3,0V575
				C469.9,575,469.8,575,469.7,575z"/>
			<path class="st30" d="M469.7,543.2c-3.9,0-7.1,1.8-7.1,3.9c0,2.2,3.2,3.9,7.1,3.9c0.1,0,0.2,0,0.3,0v-7.8
				C469.9,543.3,469.8,543.2,469.7,543.2z"/>
			<path class="st30" d="M469.7,559.5c-3.9,0-7.1,1.8-7.1,3.9s3.2,3.9,7.1,3.9c0.1,0,0.2,0,0.3,0v-7.8
				C469.9,559.6,469.8,559.5,469.7,559.5z"/>
		</g>
	</g>
</g>
<g>
	<path class="st31" d="M901.8,641.3c-23.6-24.5-51.7-82.6-108.9-112l-39.7,8.7c-0.4-0.4-0.5-0.5-0.5-0.5l-0.9,1.5l-1.5,0.9
		c0,0,0.2,0.2,0.5,0.5l-9.2,40.2c29.3,57.2,85.4,84.4,109.8,108c0,0-4.7,12.5,6.2,12.9c10.8,0.4,19.5-13.9,16.3-19.2
		c-12.1-19.9-44.7-39.7-63.4-60c-20.3-22-18-29.8-12.3-35.8c6-5.8,13.8-8,35.8,12.3c20.2,18.7,39.2,52.1,59.2,64.2
		c5.3,3.2,19.9-5.8,19.5-16.6C912.3,635.6,901.8,641.3,901.8,641.3z"/>
	<path class="st32" d="M770.9,611.5c0,0,59-1.9,55.4-55.4l-89.6-94.4l-60.9,51.4L770.9,611.5z"/>
	<g>
		<defs>
			<path id="XMLID_12_" d="M742.1,442c99.5,51,149.4,151.6,190.5,194.1c0,0,18.4-9.9,19.1,8.9c0.7,18.8-24.7,34.5-33.9,29
				c-34.7-21-67.7-79.1-102.8-111.6c-38.2-35.2-51.7-31.4-62.2-21.3c-10.1,10.5-13.9,24.1,21.3,62.2
				c32.5,35.2,89.2,69.6,110.3,104.2c5.6,9.2-9.5,34.1-28.4,33.4c-18.8-0.7-10.8-22.3-10.8-22.3c-42.5-41-140.6-88.8-191.5-188.2
				c-14.1-35.4-219.5-275.7-318-374.2l26.9-26.9C362.5,129.3,656.6,421.2,742.1,442z"/>
		</defs>
		<use xlink:href="#XMLID_12_"  style="overflow:visible;fill:#FFD01F;"/>
		<clipPath id="XMLID_2_">
			<use xlink:href="#XMLID_12_"  style="overflow:visible;"/>
		</clipPath>
		<path class="st33" d="M644.7,522.1c-15.8,15.8,7.6,39.2,23.4,23.4C682.7,530.9,659.3,507.5,644.7,522.1z"/>
		<path class="st33" d="M626.8,458c-23.1,23.1,12.4,58.6,35.5,35.5C685.5,470.4,650,434.9,626.8,458z"/>
		<path class="st33" d="M644,375.6c-7.5,0-14.8,3-20.1,8.3c-5.3,5.3-8.3,12.6-8.3,20.1c0,7.5,3,14.8,8.3,20.1
			c5.3,5.3,12.6,8.3,20.1,8.3c7.5,0,14.8-3,20.1-8.3c5.3-5.3,8.3-12.6,8.3-20.1c0-7.5-3-14.8-8.3-20.1S651.5,375.6,644,375.6z"/>
		<path class="st33" d="M687.2,423.4c-19.5,19.5,10,48.9,29.5,29.5C734.9,434.6,705.4,405.2,687.2,423.4z"/>
		<path class="st33" d="M695.1,484.9c-8.5,8.5,3.6,20.6,12.1,12.1C713.2,490.9,701.2,478.8,695.1,484.9z"/>
		<path class="st33" d="M733.5,439.4c-9.6,9.6-9.6,25.7,0,35.3c9.6,9.6,25.7,9.6,35.3,0c9.6-9.6,9.6-25.7,0-35.3
			C759.1,429.8,743.1,429.8,733.5,439.4z"/>
		<path class="st33" d="M572.1,403.1c-6.4,6.4-6.4,17,0,23.4c6.4,6.4,17,6.4,23.4,0c6.4-6.4,6.4-17,0-23.4
			C589.1,396.7,578.5,396.7,572.1,403.1z"/>
		<path class="st33" d="M690.3,487.3c-17,17,9.9,44,27,27C735.5,496,708.5,469.1,690.3,487.3z"/>
		<path class="st33" d="M704.3,605.5c-5.3,5.3-6.4,13.6-2.7,20.1c2.2,3.9,6,6.8,10.3,7.9c3.9,1,9.1,0.7,12.5-1.6
			c1.2-0.8,2.6-1.7,3.6-2.7c1-1,1.9-2.4,2.7-3.6c1.4-2.6,2.2-5.3,2.2-8.3c0-4.4-1.8-8.7-4.9-11.8
			C721.6,599.1,710.8,599.1,704.3,605.5z"/>
		<path class="st33" d="M793.6,629.6c-14.6,14.6,8.6,37.8,23.2,23.2C831.4,638.2,808.2,615,793.6,629.6z"/>
		<path class="st33" d="M845,595.9c-13.4,13.4,8.3,35.1,21.7,21.7C881.3,602.9,859.6,581.3,845,595.9z"/>
		<path class="st33" d="M822.5,510c-11,11,4.4,26.3,15.4,15.4C846.4,516.9,831,501.5,822.5,510z"/>
		<path class="st33" d="M874.6,536.4c-0.1-0.1-0.2-0.2-0.3-0.2c-3.7-2.1-7.8-3.2-12.1-3.2c-4.3,0-8.3,1.1-12.1,3.2
			c-7.6,4.3-12.4,12.5-12.4,21.2c0,8.7,4.8,16.9,12.4,21.2c3.7,2.1,7.8,3.2,12.1,3.2c4.3,0,8.3-1.1,12.1-3.2
			c0.1-0.1,0.2-0.2,0.3-0.2c3.8-2.2,6.9-5.2,9.1-9.1c2.1-4.7,3.2-6.7,3.2-11.9c0-4.2-1.1-8.2-3.1-11.8
			C881.8,541.4,878.1,538.9,874.6,536.4z"/>
		<path class="st33" d="M753.1,579.4c-20.7,20.7,12.6,53.9,33.3,33.3C808.3,590.8,775,557.5,753.1,579.4z"/>
	</g>
	<g>
		<path class="st34" d="M399.4,166.7c11,29.4-3.9,62.1-33.3,73.1l0,0c-29.4,11-62.1-3.9-73.1-33.3l-24.7-66.1
			c-11-29.4,3.9-62.1,33.3-73.1l0,0c29.4-11,62.1,3.9,73.1,33.3L399.4,166.7z"/>
		<path class="st32" d="M292.9,205.9l0.7,1.8c11,29.5,43.9,44.5,73.4,33.4c29.5-11,44.5-43.9,33.4-73.4l-0.7-1.8
			c0,0-26.4-16.5-63.8-2.5C298.5,177.4,292.9,205.9,292.9,205.9z"/>
		
			<ellipse transform="matrix(0.9367 -0.3501 0.3501 0.9367 -35.5673 112.7644)" class="st35" cx="294.1" cy="154.8" rx="7.6" ry="7.6"/>
		<g>
			
				<ellipse transform="matrix(0.9367 -0.3501 0.3501 0.9367 -52.1041 131.2529)" class="st34" cx="337" cy="209.7" rx="7.6" ry="7.6"/>
			
				<ellipse transform="matrix(0.9367 -0.3501 0.3501 0.9367 -45.8832 141.7124)" class="st34" cx="369" cy="197.8" rx="7.6" ry="7.6"/>
		</g>
		
			<ellipse transform="matrix(0.9367 -0.3501 0.3501 0.9367 -22.0886 135.4268)" class="st35" cx="363.5" cy="128.8" rx="7.6" ry="7.6"/>
		<g>
			
				<rect x="267.5" y="47.4" transform="matrix(0.7774 -0.6289 0.6289 0.7774 16.2473 188.2357)" class="st34" width="13.3" height="47.5"/>
			
				<ellipse transform="matrix(0.7774 -0.629 0.629 0.7774 27.233 169.9408)" class="st31" cx="253.7" cy="46.5" rx="16.5" ry="16.5"/>
		</g>
		<g>
			
				<rect x="310.6" y="31.3" transform="matrix(0.9994 -3.525180e-02 3.525180e-02 0.9994 -1.743 11.2174)" class="st34" width="13.3" height="47.5"/>
			
				<ellipse transform="matrix(0.9994 -3.521055e-02 3.521055e-02 0.9994 -0.6157 11.1559)" class="st31" cx="316.4" cy="23.1" rx="16.5" ry="16.5"/>
		</g>
		<path class="st34" d="M278.3,94.4c0,0-24.5-11.1-41.8-3.3c-17.4,7.8,8.4,44.2,38.7,27.5"/>
		<path class="st34" d="M330.5,74.9c0,0,11.1-24.5,29.4-29.9c18.2-5.5,22.6,38.9-11.2,46.1"/>
		<path class="st31" d="M265.2,104.7c0,0-13.8-7-23.8-1.2C241.4,103.4,257.3,126.9,265.2,104.7z"/>
		<path class="st31" d="M345.3,74.7c0,0,5.8-14.3,17.1-16.6C362.5,58.2,365.9,86.3,345.3,74.7z"/>
	</g>
</g>
<rect x="566" y="-42" class="st16" width="593" height="828"/>
<g>
	<g>
		<g>
			<path class="st36" d="M153.3,604.3c0,0-9.8-47.2-23.5-65.2c0,0,39.8,18.9,39.8,65.6L153.3,604.3z"/>
			<path class="st36" d="M159.6,604.3c-0.3-1.1-4-56.3,23.5-79.3c0,0-8.5,44.4-8.5,78.5L159.6,604.3z"/>
			<path class="st36" d="M171.6,604.3c0,0,1.5-38.5,26.3-52.6c-0.7,1.1-16.5,24.4-16.5,51.8L171.6,604.3z"/>
		</g>
		<path class="st37" d="M174.6,603.5c0-34.1,8.5-78.5,8.5-78.5s-14.6,31-16.5,78.9L174.6,603.5z"/>
		<path class="st37" d="M181.3,603.5c0-27.4,15.8-50.7,16.5-51.8c0,0-18,21.4-20.6,52.2L181.3,603.5z"/>
		<path class="st37" d="M153.3,604.3l5,0.1c-5.4-46.2-28.5-65.3-28.5-65.3C143.5,557.1,153.3,604.3,153.3,604.3z"/>
	</g>
	<g>
		<g>
			<g>
				<path class="st36" d="M200.8,603.5c0,0,9.2-35.1,22.1-48.5c0,0-37.3,14.1-37.3,48.8L200.8,603.5z"/>
				<path class="st36" d="M194.9,603.5c0.2-0.8,3.8-41.9-22.1-59c0,0,8,33.1,8,58.4L194.9,603.5z"/>
				<path class="st36" d="M183.6,603.5c0,0-1.4-28.7-24.7-39.1c0.7,0.8,15.5,18.2,15.5,38.6L183.6,603.5z"/>
			</g>
			<path class="st37" d="M180.8,603c0-25.4-8-58.4-8-58.4s13.7,23.1,15.5,58.7L180.8,603z"/>
			<path class="st37" d="M174.5,603c0-20.4-14.8-37.8-15.5-38.6c0,0,16.9,15.9,19.3,38.8L174.5,603z"/>
			<path class="st37" d="M200.8,603.5l-4.7,0.1c5.1-34.4,26.7-48.6,26.7-48.6C210,568.4,200.8,603.5,200.8,603.5z"/>
		</g>
		<g>
			<path class="st36" d="M222.9,603.8c0,0,1.7-28.7,30.5-39.1c-0.9,0.8-19.2,18.2-19.2,38.6L222.9,603.8z"/>
			<path class="st37" d="M234.2,603.3c0-20.4,18.3-37.8,19.2-38.6c0,0-20.9,15.9-23.9,38.8L234.2,603.3z"/>
		</g>
		<g>
			<path class="st36" d="M225.1,603.4c0,0,9.2-48.7,22.1-67.3c0,0-37.3,19.5-37.3,67.7L225.1,603.4z"/>
			<path class="st37" d="M225.1,603.4l-4.7,0.1c5.1-47.7,26.7-67.4,26.7-67.4C234.3,554.8,225.1,603.4,225.1,603.4z"/>
		</g>
		<g>
			<path class="st36" d="M201.1,603.8c0,0,3.8-48.6,22.6-75.6l-10.8,75.1L201.1,603.8z"/>
			<path class="st37" d="M223.2,531.7c-2.3,8.5-12.1,45.7-15.5,71.9l5.2-0.2L223.2,531.7z"/>
		</g>
	</g>
</g>
<g>
	<g>
		<g>
			<text transform="matrix(1 0 0 1 8.4692 486.5469)" class="st38 st39 st40">JUNGLE SAFARI</text>
		</g>
		<g>
			<text transform="matrix(1 0 0 1 73.2959 536.9082)" class="st38 st41 st42"> </text>
		</g>
	</g>
	<g>
		<text transform="matrix(1 0 0 1 8.4692 486.5469)" class="st43 st39 st40">JUNGLE SAFARI</text>
	</g>
	<g>
		<text transform="matrix(1 0 0 1 73.2959 536.9082)" class="st44 st41 st42"> </text>
	</g>
</g>
<g>
	<g>
		<g>
			<path class="st36" d="M114.1,602.4c0,0-5.4-25.8-12.9-35.7c0,0,21.8,10.3,21.8,35.9L114.1,602.4z"/>
			<path class="st36" d="M117.5,602.4c-0.1-0.6-2.2-30.8,12.9-43.4c0,0-4.7,24.4-4.7,43L117.5,602.4z"/>
			<path class="st36" d="M124.1,602.4c0,0,0.8-21.1,14.4-28.8c-0.4,0.6-9,13.4-9,28.4L124.1,602.4z"/>
		</g>
		<path class="st37" d="M125.8,602c0-18.7,4.7-43,4.7-43s-8,17-9,43.2L125.8,602z"/>
		<path class="st37" d="M129.5,602c0-15,8.6-27.8,9-28.4c0,0-9.9,11.7-11.3,28.6L129.5,602z"/>
		<path class="st37" d="M114.1,602.4l2.7,0.1c-3-25.3-15.6-35.8-15.6-35.8C108.7,576.6,114.1,602.4,114.1,602.4z"/>
	</g>
	<g>
		<g>
			<g>
				<path class="st36" d="M140.1,602c0,0,5.1-19.2,12.1-26.6c0,0-20.5,7.7-20.5,26.7L140.1,602z"/>
				<path class="st36" d="M136.9,602c0.1-0.5,2.1-23-12.1-32.3c0,0,4.4,18.1,4.4,32L136.9,602z"/>
				<path class="st36" d="M130.7,602c0,0-0.8-15.7-13.5-21.4c0.4,0.5,8.5,10,8.5,21.1L130.7,602z"/>
			</g>
			<path class="st37" d="M129.2,601.7c0-13.9-4.4-32-4.4-32s7.5,12.7,8.5,32.2L129.2,601.7z"/>
			<path class="st37" d="M125.7,601.7c0-11.2-8.1-20.7-8.5-21.1c0,0,9.3,8.7,10.6,21.3L125.7,601.7z"/>
			<path class="st37" d="M140.1,602l-2.6,0c2.8-18.8,14.6-26.6,14.6-26.6C145.2,582.8,140.1,602,140.1,602z"/>
		</g>
		<g>
			<path class="st36" d="M152.2,602.2c0,0,1-15.7,16.7-21.4c-0.5,0.5-10.5,10-10.5,21.1L152.2,602.2z"/>
			<path class="st37" d="M158.4,601.9c0-11.2,10-20.7,10.5-21.1c0,0-11.5,8.7-13.1,21.3L158.4,601.9z"/>
		</g>
		<g>
			<path class="st36" d="M153.4,602c0,0,5.1-26.7,12.1-36.9c0,0-20.5,10.7-20.5,37.1L153.4,602z"/>
			<path class="st37" d="M153.4,602l-2.6,0.1c2.8-26.1,14.6-36.9,14.6-36.9C158.5,575.3,153.4,602,153.4,602z"/>
		</g>
		<g>
			<path class="st36" d="M140.3,602.2c0,0,2.1-26.6,12.4-41.4l-5.9,41.2L140.3,602.2z"/>
			<path class="st37" d="M152.4,562.7c-1.3,4.7-6.6,25-8.5,39.4l2.9-0.1L152.4,562.7z"/>
		</g>
	</g>
</g>
<g>
	<g>
		<g>
			<path class="st36" d="M250,608.3c0,0-8.7-41.8-20.8-57.8c0,0,35.3,16.8,35.3,58.1L250,608.3z"/>
			<path class="st36" d="M255.6,608.3c-0.2-1-3.5-49.9,20.9-70.3c0,0-7.5,39.4-7.5,69.6L255.6,608.3z"/>
			<path class="st36" d="M266.2,608.3c0,0,1.3-34.2,23.3-46.6c-0.7,1-14.6,21.7-14.6,46L266.2,608.3z"/>
		</g>
		<path class="st37" d="M268.9,607.6c0-30.2,7.5-69.6,7.5-69.6s-13,27.5-14.6,70L268.9,607.6z"/>
		<path class="st37" d="M274.9,607.6c0-24.3,14-45,14.6-46c0,0-16,19-18.3,46.3L274.9,607.6z"/>
		<path class="st37" d="M250,608.3l4.4,0.1c-4.8-41-25.3-57.9-25.3-57.9C241.3,566.5,250,608.3,250,608.3z"/>
	</g>
	<g>
		<g>
			<g>
				<path class="st36" d="M292.1,607.7c0,0,8.2-31.1,19.6-43c0,0-33.1,12.5-33.1,43.3L292.1,607.7z"/>
				<path class="st36" d="M286.9,607.7c0.2-0.7,3.3-37.2-19.6-52.3c0,0,7.1,29.3,7.1,51.8L286.9,607.7z"/>
				<path class="st36" d="M276.9,607.7c0,0-1.3-25.4-21.9-34.7c0.6,0.7,13.7,16.1,13.7,34.2L276.9,607.7z"/>
			</g>
			<path class="st37" d="M274.4,607.2c0-22.5-7.1-51.8-7.1-51.8s12.2,20.5,13.7,52.1L274.4,607.2z"/>
			<path class="st37" d="M268.8,607.2c0-18.1-13.1-33.5-13.7-34.2c0,0,15,14.1,17.1,34.4L268.8,607.2z"/>
			<path class="st37" d="M292.1,607.7l-4.1,0.1c4.5-30.5,23.7-43.1,23.7-43.1C300.3,576.5,292.1,607.7,292.1,607.7z"/>
		</g>
		<g>
			<path class="st36" d="M311.7,607.9c0,0,1.5-25.4,27.1-34.7c-0.8,0.7-17,16.1-17,34.2L311.7,607.9z"/>
			<path class="st37" d="M321.7,607.4c0-18.1,16.3-33.5,17-34.2c0,0-18.6,14.1-21.2,34.4L321.7,607.4z"/>
		</g>
		<g>
			<path class="st36" d="M313.6,607.6c0,0,8.2-43.2,19.6-59.7c0,0-33.1,17.3-33.1,60L313.6,607.6z"/>
			<path class="st37" d="M313.6,607.6l-4.1,0.1c4.5-42.3,23.7-59.8,23.7-59.8C321.8,564.4,313.6,607.6,313.6,607.6z"/>
		</g>
		<g>
			<path class="st36" d="M292.4,607.9c0,0,3.4-43.1,20-67l-9.5,66.7L292.4,607.9z"/>
			<path class="st37" d="M312,543.9c-2,7.5-10.7,40.5-13.7,63.8l4.6-0.2L312,543.9z"/>
		</g>
	</g>
</g>
<g>
	<g>
		<g>
			<path class="st36" d="M337.9,612.6c0,0-11.5-55.1-27.5-76.1c0,0,46.4,22.1,46.4,76.6L337.9,612.6z"/>
			<path class="st36" d="M345.2,612.6c-0.3-1.3-4.7-65.7,27.5-92.6c0,0-9.9,51.9-9.9,91.7L345.2,612.6z"/>
			<path class="st36" d="M359.2,612.6c0,0,1.8-45,30.7-61.4c-0.9,1.3-19.3,28.5-19.3,60.6L359.2,612.6z"/>
		</g>
		<path class="st37" d="M362.7,611.7c0-39.8,9.9-91.7,9.9-91.7s-17.1,36.2-19.3,92.2L362.7,611.7z"/>
		<path class="st37" d="M370.6,611.7c0-32,18.4-59.3,19.3-60.6c0,0-21,25-24,60.9L370.6,611.7z"/>
		<path class="st37" d="M337.9,612.6l5.8,0.1c-6.3-54-33.3-76.3-33.3-76.3C326.4,557.5,337.9,612.6,337.9,612.6z"/>
	</g>
	<g>
		<g>
			<g>
				<path class="st36" d="M393.3,611.7c0,0,10.8-41,25.8-56.7c0,0-43.6,16.4-43.6,57L393.3,611.7z"/>
				<path class="st36" d="M386.5,611.7c0.3-1,4.4-48.9-25.8-68.9c0,0,9.3,38.6,9.3,68.3L386.5,611.7z"/>
				<path class="st36" d="M373.3,611.7c0,0-1.6-33.5-28.8-45.7c0.8,1,18.1,21.2,18.1,45.1L373.3,611.7z"/>
			</g>
			<path class="st37" d="M370,611.1c0-29.6-9.3-68.3-9.3-68.3s16,27,18.1,68.6L370,611.1z"/>
			<path class="st37" d="M362.6,611.1c0-23.8-17.3-44.1-18.1-45.1c0,0,19.7,18.6,22.6,45.3L362.6,611.1z"/>
			<path class="st37" d="M393.3,611.7l-5.5,0.1c5.9-40.2,31.2-56.8,31.2-56.8C404.1,570.7,393.3,611.7,393.3,611.7z"/>
		</g>
		<g>
			<path class="st36" d="M419.1,612.1c0,0,2-33.5,35.7-45.7c-1,1-22.4,21.2-22.4,45.1L419.1,612.1z"/>
			<path class="st37" d="M432.3,611.4c0-23.8,21.4-44.1,22.4-45.1c0,0-24.5,18.6-28,45.3L432.3,611.4z"/>
		</g>
		<g>
			<path class="st36" d="M421.7,611.6c0,0,10.8-56.9,25.8-78.6c0,0-43.6,22.8-43.6,79L421.7,611.6z"/>
			<path class="st37" d="M421.7,611.6l-5.5,0.1c6-55.7,31.2-78.7,31.2-78.7C432.5,554.7,421.7,611.6,421.7,611.6z"/>
		</g>
		<g>
			<path class="st36" d="M393.7,612.1c0,0,4.5-56.8,26.3-88.2l-12.6,87.8L393.7,612.1z"/>
			<path class="st37" d="M419.5,527.8c-2.7,9.9-14.1,53.4-18.1,84l6.1-0.2L419.5,527.8z"/>
		</g>
	</g>
</g>
</svg>
