<svg xmlns="http://www.w3.org/2000/svg" viewBox="0 0 240.16 149.34"><defs><style>.cls-1{fill:#f7931e;}.cls-1,.cls-2,.cls-3,.cls-4{stroke:#000;}.cls-1,.cls-3,.cls-4{stroke-linecap:round;stroke-linejoin:round;}.cls-1,.cls-2{stroke-width:2px;}.cls-2,.cls-4{fill:#fff;}.cls-2{stroke-miterlimit:10;}.cls-3{fill:none;}.cls-3,.cls-4{stroke-width:3px;}.cls-5{fill:#3fa9f5;}.cls-6{fill:#fcc;opacity:0.42;}</style></defs><title>Asset 1</title><g id="Layer_2" data-name="Layer 2"><g id="Layer_1-2" data-name="Layer 1"><rect class="cls-1" x="154.87" y="1" width="84.29" height="146.36"/><rect class="cls-2" x="162.06" y="14.07" width="71.22" height="107.81"/><path class="cls-3" d="M211.39,88.23s-3.92-7.19-15-7.19"/><path class="cls-3" d="M182,88.23S185.91,81,197,81"/><line class="cls-4" x1="176.43" y1="59.15" x2="190.16" y2="52.62"/><line class="cls-4" x1="219.56" y1="59.8" x2="205.84" y2="53.27"/><circle cx="183.95" cy="6.55" r="1.96"/><circle cx="210.74" cy="6.55" r="1.96"/><path d="M189.83,7.06a4.84,4.84,0,0,1,2-1,3.8,3.8,0,0,1,2-.08,15.23,15.23,0,0,0,2,.77,3.51,3.51,0,0,0,2-.34,6.83,6.83,0,0,1,2-.6,8,8,0,0,1,2-.18,7.65,7.65,0,0,1,2,.42,6.75,6.75,0,0,1,2,1v.3a6.75,6.75,0,0,1-2,1,7.65,7.65,0,0,1-2,.42,8,8,0,0,1-2-.18,6.83,6.83,0,0,1-2-.6,3.51,3.51,0,0,0-2-.34,15.23,15.23,0,0,0-2,.77,3.8,3.8,0,0,1-2-.08,4.84,4.84,0,0,1-2-1Z"/><circle class="cls-2" cx="197.67" cy="132.66" r="8.49"/><path class="cls-5" d="M183.72,75.16c4.61,0,3.84-5.79,2.3-6.51s-2.3-3.62-2.3-3.62l-.1-1-.13,1s-.77,2.89-2.3,3.62-2.3,6.51,2.3,6.51h.23c4.61,0,3.84-5.79,2.3-6.51s-2.3-3.62-2.3-3.62"/><path class="cls-5" d="M211.82,75.81c4.61,0,3.84-5.79,2.3-6.51s-2.3-3.62-2.3-3.62l-.1-1-.13,1s-.77,2.89-2.3,3.62-2.3,6.51,2.3,6.51h.23c4.61,0,3.84-5.79,2.3-6.51s-2.3-3.62-2.3-3.62"/><rect class="cls-1" x="32.04" y="33.02" width="84.29" height="146.36" transform="translate(-32.02 180.37) rotate(-90)"/><rect class="cls-2" x="32.36" y="51.64" width="71.22" height="107.81" transform="translate(-37.57 173.51) rotate(-90)"/><circle class="cls-6" cx="50.98" cy="111.42" r="4.57"/><circle class="cls-6" cx="85.94" cy="111.75" r="4.57"/><path class="cls-3" d="M45.1,101a6.21,6.21,0,0,1,6.53-5.23"/><path class="cls-3" d="M58.17,101a6.21,6.21,0,0,0-6.53-5.23"/><path class="cls-3" d="M77.77,101a6.21,6.21,0,0,1,6.53-5.23"/><path class="cls-3" d="M90.84,101a6.21,6.21,0,0,0-6.53-5.23"/><path class="cls-3" d="M52.62,118.28s3.92,7.19,15,7.19"/><path class="cls-3" d="M82,118.28s-3.92,7.19-15,7.19"/><circle cx="6.55" cy="119.26" r="1.96"/><circle cx="6.55" cy="92.47" r="1.96"/><path d="M7.06,113.38a4.84,4.84,0,0,1-1-2,3.8,3.8,0,0,1-.08-2,15.23,15.23,0,0,0,.77-2,3.51,3.51,0,0,0-.34-2,6.83,6.83,0,0,1-.6-2,8,8,0,0,1-.18-2,7.65,7.65,0,0,1,.42-2,6.75,6.75,0,0,1,1-2h.3a6.75,6.75,0,0,1,1,2,7.65,7.65,0,0,1,.42,2,8,8,0,0,1-.18,2,6.83,6.83,0,0,1-.6,2,3.51,3.51,0,0,0-.34,2,15.23,15.23,0,0,0,.77,2,3.8,3.8,0,0,1-.08,2,4.84,4.84,0,0,1-1,2Z"/><circle class="cls-2" cx="132.66" cy="105.54" r="8.49"/></g></g></svg>