<svg xmlns="http://www.w3.org/2000/svg" viewBox="0 0 686.68 666.13"><defs><style>.cls-1{fill:#3b494f;}.cls-2{fill:#f5f5f5;}</style></defs><title>Asset 1</title><g id="Layer_2" data-name="Layer 2"><g id="Layer_1-2" data-name="Layer 1"><polygon class="cls-1" points="482.1 204.22 345.41 204.22 343.12 204.22 204.57 204.22 0 666.13 343.12 666.13 686.68 666.13 482.1 204.22"/><path class="cls-2" d="M272.68,49.52,209.43,193c-13.12,29.77,20.22,58.66,47.75,41.32q2.44-1.54,4.68-3.12a32.85,32.85,0,0,1,39.73,1.64c9.07,7.46,22.4,14.13,41.52,15.23v.13c1.06,0,2.11.07,3.2.07,20.86,0,34.94-5.84,44.28-12.74a33.24,33.24,0,0,1,38.26-.86l.89.59c27.44,17.74,61.15-11.29,48-41.18L414,49.52a33,33,0,0,0-10.62-13.26L363,6.45a33,33,0,0,0-39.2,0L283.31,36.26A33,33,0,0,0,272.68,49.52Z"/></g></g></svg>