<svg xmlns="http://www.w3.org/2000/svg" viewBox="0 0 494 479.22"><defs><style>.cls-1{fill:#333;}.cls-2{fill:#f5f5f5;}</style></defs><title>Asset 36</title><g id="Layer_2" data-name="Layer 2"><g id="Layer_1-2" data-name="Layer 1"><polygon class="cls-1" points="346.83 146.92 248.49 146.92 246.84 146.92 147.17 146.92 0 479.22 246.84 479.22 494 479.22 346.83 146.92"/><path class="cls-2" d="M196.17,35.63l-45.5,103.23c-9.44,21.42,14.55,42.2,34.36,29.73q1.76-1.11,3.37-2.24A23.63,23.63,0,0,1,217,167.52c6.52,5.36,16.12,10.17,29.87,11v.09c.76,0,1.52.05,2.3.05,15,0,25.13-4.2,31.86-9.17a23.91,23.91,0,0,1,27.52-.62l.64.42c19.74,12.76,44-8.12,34.51-29.63l-45.84-104a23.76,23.76,0,0,0-7.64-9.54L261.12,4.64a23.76,23.76,0,0,0-28.2,0L203.81,26.08A23.76,23.76,0,0,0,196.17,35.63Z"/></g></g></svg>