<svg xmlns="http://www.w3.org/2000/svg" viewBox="0 0 401.61 389.59"><defs><style>.cls-1{fill:#3b494f;}.cls-2{fill:#f5f5f5;}</style></defs><title>Asset 3</title><g id="Layer_2" data-name="Layer 2"><g id="Layer_1-2" data-name="Layer 1"><polygon class="cls-1" points="281.96 119.44 202.01 119.44 200.68 119.44 119.65 119.44 0 389.59 200.68 389.59 401.61 389.59 281.96 119.44"/><path class="cls-2" d="M159.48,29l-37,83.92c-7.68,17.41,11.83,34.31,27.93,24.17q1.43-.9,2.74-1.82a19.21,19.21,0,0,1,23.23,1c5.3,4.36,13.1,8.27,24.28,8.91v.08c.62,0,1.23,0,1.87,0,12.2,0,20.43-3.42,25.9-7.45a19.44,19.44,0,0,1,22.37-.5l.52.34c16,10.37,35.76-6.6,28.06-24.09L242.13,29a19.32,19.32,0,0,0-6.21-7.75L212.29,3.77a19.32,19.32,0,0,0-22.93,0L165.7,21.21A19.32,19.32,0,0,0,159.48,29Z"/></g></g></svg>