<svg xmlns="http://www.w3.org/2000/svg" viewBox="0 0 1920 48.07"><defs><style>.cls-1{fill:#40adb2;}</style></defs><title>Asset 25</title><g id="Layer_2" data-name="Layer 2"><g id="Layer_1-2" data-name="Layer 1"><path class="cls-1" d="M1844.5,6.18A15.3,15.3,0,0,1,1841.81,0h0V0h-.43c-3,16.94-40.62,30.34-86.64,30.34-40.25,0-74.09-10.25-83.93-24.16A15.3,15.3,0,0,1,1668.12,0h0V0h-.43c-3,16.94-40.62,30.34-86.64,30.34-40.25,0-74.09-10.25-83.93-24.16A15.33,15.33,0,0,1,1494.43,0h0V0H1494c-3,16.94-40.62,30.34-86.64,30.34-40.25,0-74.09-10.25-83.93-24.16A15.32,15.32,0,0,1,1320.73,0h0V0h-.43c-3,16.94-40.62,30.34-86.64,30.34-40.25,0-74.09-10.25-83.93-24.16A15.3,15.3,0,0,1,1147,0h0V0h-.43c-3,16.94-40.62,30.34-86.64,30.34-40.25,0-74.09-10.25-83.93-24.16A15.3,15.3,0,0,1,973.35,0h0V0h-.43c-3,16.94-40.62,30.34-86.64,30.34-40.25,0-74.09-10.25-83.93-24.16A15.31,15.31,0,0,1,799.66,0h0V0h-.43c-3,16.94-40.62,30.34-86.63,30.34-40.25,0-74.09-10.25-83.93-24.16A15.31,15.31,0,0,1,626,0h0V0h-.43c-3,16.94-40.62,30.34-86.63,30.34-40.25,0-90.36-7.5-90.36-30.34,0,19.16-49.39,30.34-83.34,30.34-46,0-83.65-13.4-86.63-30.34h-.43c-3,16.94-40.62,30.34-86.63,30.34S107.86,16.94,104.87,0h-.43c-3,16.94-40.62,30.34-86.63,30.34-6.11,0-12.06-.24-17.81-.69V48.07H1920V30.18C1883.52,28.86,1853.64,19.1,1844.5,6.18Z"/></g></g></svg>