<svg xmlns="http://www.w3.org/2000/svg" viewBox="0 0 1920 83.5"><defs><style>.cls-1{fill:#3ca4a8;}</style></defs><title>Asset 24</title><g id="Layer_2" data-name="Layer 2"><g id="Layer_1-2" data-name="Layer 1"><path class="cls-1" d="M1920,83.5V27.88C1896.4,24,1878.31,16,1871.68,6.18A15.7,15.7,0,0,1,1869.13,0h0V0h-.4c-2.84,16.94-38.63,30.34-82.39,30.34-38.28,0-70.46-10.25-79.81-24.16A15.7,15.7,0,0,1,1704,0h0V0h-.4c-2.84,16.94-38.63,30.34-82.39,30.34-38.28,0-70.46-10.25-79.82-24.16A15.72,15.72,0,0,1,1538.78,0h0V0h-.4c-2.84,16.94-38.63,30.34-82.39,30.34-38.28,0-70.46-10.25-79.82-24.16A15.73,15.73,0,0,1,1373.61,0h0V0h-.4c-2.84,16.94-38.63,30.34-82.39,30.34-38.28,0-70.46-10.25-79.81-24.16A15.7,15.7,0,0,1,1208.43,0h0V0h-.4c-2.84,16.94-38.63,30.34-82.39,30.34-38.28,0-70.46-10.25-79.81-24.16A15.7,15.7,0,0,1,1043.26,0h0V0h-.4c-2.84,16.94-38.63,30.34-82.39,30.34-38.28,0-70.46-10.25-79.82-24.16A15.72,15.72,0,0,1,878.08,0h0V0h-.41C874.82,16.94,839,30.34,795.28,30.34c-38.28,0-70.46-10.25-79.82-24.16A15.72,15.72,0,0,1,712.91,0h0V0h-.41c-2.84,16.94-38.62,30.34-82.38,30.34-38.28,0-87.88-17.94-87.88-30.34,0,12-45,30.34-77.29,30.34-43.76,0-79.55-13.4-82.38-30.34h-.41c-2.84,16.94-38.62,30.34-82.38,30.34S220.21,16.94,217.37,0H217c-2.84,16.94-38.62,30.34-82.38,30.34S55,16.94,52.2,0h-.41C49.65,12.75,28.83,23.5,0,28V83.5Z"/></g></g></svg>