<svg xmlns="http://www.w3.org/2000/svg" viewBox="0 0 1920 158"><defs><style>.cls-1{fill:#37979b;}</style></defs><title>Asset 22</title><g id="Layer_2" data-name="Layer 2"><g id="Layer_1-2" data-name="Layer 1"><path class="cls-1" d="M1869.25,17.13c-40.19,0-73.05-7.57-75.66-17.13h-.37c-2.61,9.57-35.48,17.13-75.66,17.13S1644.51,9.57,1641.9,0h-.37c-2.61,9.57-35.48,17.13-75.66,17.13S1492.82,9.57,1490.21,0h-.37c-2.61,9.57-35.48,17.13-75.66,17.13S1341.12,9.57,1338.52,0h-.37c-2.61,9.57-35.48,17.13-75.66,17.13S1189.43,9.57,1186.82,0h-.37c-2.61,9.57-35.48,17.13-75.66,17.13S1037.74,9.57,1035.13,0h-.37c-2.61,9.57-35.48,17.13-75.66,17.13S886,9.57,883.44,0h-.37c-2.61,9.57-35.47,17.13-75.66,17.13S734.35,9.57,731.75,0h-.37c-2.61,9.57-35.47,17.13-75.66,17.13S582.66,9.57,580.06,0h-.37C577.08,9.57,544.21,17.13,504,17.13S431,9.57,428.36,0H428c-2.61,9.57-35.47,17.13-75.66,17.13S279.28,9.57,276.67,0h-.37c-2.61,9.57-35.47,17.13-75.66,17.13S127.58,9.57,125,0h-.37C122,9.57,89.13,17.13,48.95,17.13,30.28,17.13,13.21,15.5,0,12.8V158H1920V12.42C1906.56,15.35,1888.77,17.13,1869.25,17.13Z"/></g></g></svg>