<svg xmlns="http://www.w3.org/2000/svg" viewBox="0 0 1920 125.42"><defs><style>.cls-1{fill:#3a9ea2;}</style></defs><title>Asset 23</title><g id="Layer_2" data-name="Layer 2"><g id="Layer_1-2" data-name="Layer 1"><path class="cls-1" d="M92,125.42H1920V13.24c-5.17-4-8.4-8.46-9.16-13.22h-.38c-.94,5.94-5.74,11.44-13.35,16.08v0c-14.09,8.6-37.85,14.25-64.79,14.25-36.29,0-66.81-10.25-75.68-24.16A16.17,16.17,0,0,1,1754.23,0h0V0h-.38c-2.69,16.94-36.63,30.34-78.12,30.34-36.29,0-66.81-10.25-75.68-24.16A16.17,16.17,0,0,1,1597.61,0h0V0h-.38c-2.69,16.94-36.63,30.34-78.12,30.34-36.29,0-66.81-10.25-75.68-24.16A16.2,16.2,0,0,1,1441,0h0V0h-.38c-2.69,16.94-36.63,30.34-78.12,30.34-36.29,0-66.81-10.25-75.68-24.16A16.2,16.2,0,0,1,1284.38,0h0V0H1284c-2.69,16.94-36.63,30.34-78.12,30.34-36.29,0-66.81-10.25-75.68-24.16A16.17,16.17,0,0,1,1127.77,0h0V0h-.38c-2.69,16.94-36.63,30.34-78.12,30.34-36.29,0-66.81-10.25-75.68-24.16A16.17,16.17,0,0,1,971.15,0h0V0h-.38c-2.69,16.94-36.63,30.34-78.12,30.34-36.29,0-66.81-10.25-75.68-24.16A16.21,16.21,0,0,1,814.54,0h0V0h-.39C811.45,16.94,777.51,30.34,736,30.34c-36.3,0-66.81-10.25-75.68-24.16A16.19,16.19,0,0,1,657.92,0h0V0h-.39c-2.69,16.94-36.62,30.34-78.11,30.34-36.3,0-66.81-10.25-75.68-24.16A16.19,16.19,0,0,1,501.31,0h0V0h-.39V0l-8.15,12.39c-12.87,10.62-39.35,17.92-70,17.92-41.49,0-75.42-13.4-78.11-30.34h-.39c-2.69,16.94-36.62,30.34-78.11,30.34S190.75,16.94,188.06,0h-.39C185,16.94,151.05,30.34,109.56,30.34S34.14,16.94,31.45,0h-.39C29.52,9.73,17.66,18.28,0,23.8V125.42H92Z"/></g></g></svg>