<svg xmlns="http://www.w3.org/2000/svg" viewBox="0 0 72.83 96.81"><defs><style>.cls-1{fill:#a0dadc;}</style></defs><title>Asset 32</title><g id="Layer_2" data-name="Layer 2"><g id="Layer_1-2" data-name="Layer 1"><path class="cls-1" d="M26.5,96.79S38.38,54.82,34,32C30.32,13.06,27.11,1.32,17.29.07S1.7,14.92.36,25.44.93,50.13,15.5,57.17,27.38,91.39,26.5,96.79Z"/><path class="cls-1" d="M31.78,96.81S37.35,51.53,47.63,37s16.87-9.51,22.23-4,3.22,33.12-4.44,36.36-13.61-.76-20,4.9C39.46,79.53,33.21,90.19,31.78,96.81Z"/><path class="cls-1" d="M20.51,93.11s1-19.34-10.63-25.65C3.65,64.08-.7,75.18,1,79.94S17.38,76.19,20.51,93.11Z"/></g></g></svg>