<svg xmlns="http://www.w3.org/2000/svg" xmlns:xlink="http://www.w3.org/1999/xlink" viewBox="0 0 381.14 362.62">
  <defs>
    <style>
      #Layer_1-2 {
      cursor:pointer;
      }
      .cls-1 {
        fill: #ffd01f;
      }
      .cls-2 {
        fill: #8bce1c;
      }
      .cls-3 {
        fill: #ffb100;
      }
      .cls-4 {
        fill: #ffebcb;
      }
      .cls-5 {
        clip-path: url("#clip-path");
      }
      .cls-6 {
        fill: #ff9300;
      }
      .cls-7 {
        fill: #35312d;
      }
      .cls-8 {
        fill: #c3cbcf;
      }
      .cls-9 {
        fill: #ffc0ad;
      }
      .cls-10 {
        fill: #a4b1b8;
      }
      .cls-11 {
        fill: #fff2ef;
      }
      .cls-12 {
        fill: #e1e5e7;
      }
      .cls-13,
      .cls-23 {
        fill: #8f5e13;
      }
      .cls-14 {
        fill: #bd862f;
      }
      .cls-15 {
        fill: #629b52;
      }
      .cls-16 {
        fill: #fc0;
      }
      .cls-17 {
        font-size: 42px;
        fill: none;
        stroke: #8f5e13;
        stroke-miterlimit: 10;
        stroke-width: 3.79px;
        font-family: KhmerUI, Khmer UI;
      }
      .cls-18 {
        fill: red;
      }
      .cls-19 {
        clip-path: url("#clip-path-2");
      }
      .cls-20 {
        fill: #70b252;
      }
      .cls-21 {
        fill: #d6873a;
      }
      .cls-22 {
        fill: #e39e6a;
      }
      .cls-23 {
        opacity: 0.3;
      }
      .cls-24 {
        fill: #453434;
      }
      .cls-25 {
        fill: #fff;
      }
      .cls-26 {
        fill: #56d3de;
      }
    </style>
    <clipPath id="clip-path"><path
      id="_Clipping_Path_"
      data-name="&lt;Clipping Path&gt;"
      class="cls-1"
      d="M222.57,246.36c13.3,41.26-.58,82.56-1,105.48,0,0,7.77,2.34,2.78,7.68s-16.24,2.72-17.23-1.35c-3.74-15.28,3.14-40.26,2.4-58.81-.81-20.13-5.58-22.79-11.22-22.91-5.64.12-10.41,2.79-11.22,22.92-.75,18.55,5.39,43.55,1.65,58.83-1,4.06-12,6.74-16.95,1.39s3.18-9.08,3.18-9.08c-.42-22.92-14.21-62.9-.91-104.16,5.84-13.6,15.42-135.8,15.42-189.87h14.74S204.82,217.21,222.57,246.36Z"/></clipPath>
    <clipPath id="clip-path-2"><path
      id="_Clipping_Path_2"
      data-name="&lt;Clipping Path&gt;"
      class="cls-2"
      d="M105.9,95.87s-26-6.57-35.56,4.24c-7.22,8.17,1.07,22,11,14.82,3.83-2.78-2.87-6.69-4.3-4.3,0,0,0-6.21,6.21-4.3s7.65,14.34-1.91,16.73-22.17-1.93-22.94-19.12C57.45,83,87.29,65.21,111.92,81.09a7.6,7.6,0,0,1,8.48-2.19c7.39,2.74,10.51,6.9,12.86,16.15C129.27,100.85,114.66,105.17,105.9,95.87Z"/></clipPath>
  </defs>
  <title>Asset 63</title>
  <g id="Layer_2" data-name="Layer 2">
    <g id="Layer_1-2" data-name="Layer 1"><path
      class="cls-3"
      d="M211.69,344.84c.24-13.18,8.48-36.85.83-60.58l-13.27-8.49v-.3l-.67.15-.67-.15v.3l-13.55,8.49c-7.65,23.73.28,46.55.52,59.74,0,0-4.7,2.15-1.83,5.22s9.18,1.54,9.75-.8c2.15-8.79-1.38-23.17-1-33.84.47-11.58,3.21-13.11,6.46-13.18s6,1.6,6.45,13.18c.43,10.67-3.53,25-1.38,33.84.57,2.34,7,3.87,9.91.8S211.69,344.84,211.69,344.84Z"/><path class="cls-4" d="M184,300.77s16.73,15.66,30.37,0l1.32-50.47-30.81-2.61Z"/><path
      id="_Clipping_Path_3"
      data-name="&lt;Clipping Path&gt;"
      class="cls-1"
      d="M222.57,246.36c13.3,41.26-.58,82.56-1,105.48,0,0,7.77,2.34,2.78,7.68s-16.24,2.72-17.23-1.35c-3.74-15.28,3.14-40.26,2.4-58.81-.81-20.13-5.58-22.79-11.22-22.91-5.64.12-10.41,2.79-11.22,22.92-.75,18.55,5.39,43.55,1.65,58.83-1,4.06-12,6.74-16.95,1.39s3.18-9.08,3.18-9.08c-.42-22.92-14.21-62.9-.91-104.16,5.84-13.6,15.42-135.8,15.42-189.87h14.74S204.82,217.21,222.57,246.36Z"/>
      <g class="cls-5"><path class="cls-6" d="M173.88,241.63c-8.68,0-8.68,12.85,0,12.85C181.89,254.48,181.89,241.63,173.88,241.63Z"/><path class="cls-6" d="M186.56,219.15c-12.68,0-12.68,19.49,0,19.49S199.25,219.15,186.56,219.15Z"/><path class="cls-6" d="M213.87,201.27a11,11,0,1,0,3.22,7.79A11.05,11.05,0,0,0,213.87,201.27Z"/><path class="cls-6" d="M212.6,226.21c-10.68,0-10.68,16.17,0,16.17C222.61,242.38,222.61,226.21,212.6,226.21Z"/><path class="cls-6" d="M197.91,245.23a3.32,3.32,0,1,0,0,6.63C201.25,251.86,201.25,245.23,197.91,245.23Z"/><path class="cls-6" d="M220.92,243.29a9.67,9.67,0,1,0,9.67,9.67A9.77,9.77,0,0,0,220.92,243.29Z"/><path class="cls-6" d="M186.62,189.07a6.41,6.41,0,1,0,6.4,6.41A6.47,6.47,0,0,0,186.62,189.07Z"/><path class="cls-6" d="M195.91,244.59c-9.35,0-9.35,14.79,0,14.79C205.92,259.38,205.92,244.59,195.91,244.59Z"/><path class="cls-6" d="M167.36,280.87a6.5,6.5,0,0,0-5.61,9.77,6.3,6.3,0,0,0,3.88,3,6.37,6.37,0,0,0,3.45,0,6.5,6.5,0,0,0-1.73-12.76Z"/><path class="cls-6" d="M185.23,312c-8,0-8,12.71,0,12.71S193.24,312,185.23,312Z"/><path class="cls-6" d="M208.59,316.8c-7.34,0-7.34,11.89,0,11.89C216.6,328.69,216.6,316.8,208.59,316.8Z"/><path class="cls-6" d="M225.95,287.08a4.22,4.22,0,1,0,0,8.43C230.62,295.51,230.62,287.08,225.95,287.08Z"/><path class="cls-6" d="M233,308.59l0-.15a9.47,9.47,0,1,0-11.64,11.64l.15,0a9.37,9.37,0,0,0,9.11-2.4,9.29,9.29,0,0,0,2.39-4.1C233.64,312,233.29,310.23,233,308.59Z"/><path class="cls-6" d="M187.9,287.09c-11.35,0-11.35,18.24,0,18.24C199.91,305.33,199.91,287.09,187.9,287.09Z"/></g><path class="cls-1" d="M217.27,69.84a22,22,0,0,1-22,22h0a22,22,0,0,1-22-22V42.47a22,22,0,0,1,22-22h0a22,22,0,0,1,22,22Z"/><path class="cls-4" d="M173.25,69.63v.74a22.11,22.11,0,1,0,44.22,0v-.74s-7.37-9.58-22.85-9.58S173.25,69.63,173.25,69.63Z"/><circle class="cls-7" cx="180.62" cy="51.2" r="2.95"/><circle class="cls-1" cx="188.73" cy="77" r="2.95"/><circle class="cls-1" cx="202" cy="77" r="2.95"/><circle class="cls-7" cx="209.37" cy="51.2" r="2.95"/><rect class="cls-1" x="182.13" y="8.91" width="5.16" height="18.43" transform="translate(3.78 59.48) rotate(-18.48)"/><circle class="cls-3" cx="180.67" cy="6.39" r="6.39" transform="matrix(0.95, -0.32, 0.32, 0.95, 7.29, 57.59)"/><rect class="cls-1" x="193.36" y="15.54" width="18.43" height="5.16" transform="translate(121.2 204.51) rotate(-71.53)"/><circle class="cls-3" cx="206.62" cy="6.39" r="6.39" transform="translate(135.08 200.34) rotate(-71.52)"/><path class="cls-1" d="M183.08,27.13s-7.37-7.37-14.74-6.88-2.95,17.2,10.32,15.23"/><path class="cls-1" d="M204.7,27.13s7.37-7.37,14.74-6.88,2.95,17.2-10.32,15.23"/><path class="cls-3" d="M176.94,29.09s-4.05-4.42-8.48-3.69C168.46,25.41,171,36.09,176.94,29.09Z"/><path class="cls-3" d="M210.11,29.09s4.05-4.42,8.48-3.69C218.58,25.41,216,36.09,210.11,29.09Z"/><path class="cls-8" d="M309,268.36s11.53,17.3,6.41,41.65,2.56,28.19-.64,34-16,2.56-16,2.56L300,269.64Z"/><path class="cls-8" d="M246.28,262.68s-20.94,14-16.52,49.81c3.05,24.69-2.85,28.16.3,34s16,2.72,16,2.72l-.5-76.9Z"/><path class="cls-9" d="M299,331.78s-31.06,14.71-56.39,0l-2.45-47.4,57.21-2.45Z"/><path
        class="cls-10"
        d="M236,351.19c-.64-19.2-22-51.21-1.53-85.77l36.24-12.37v-.43l1.34.22,1.34-.22v.43l36,12.37c20.48,34.56-.86,66.57-1.5,85.77,0,0,8.85,4.48,1.17,9s-20.93,2.12-22.46-1.28c-5.76-12.8,3.69-33.74,2.53-49.29-1.25-16.87-8.61-19.1-17.3-19.2-8.68.1-16,2.33-17.29,19.2-1.15,15.55,8.32,36.48,2.56,49.29-1.53,3.4-14.73,5.76-22.41,1.28S236,351.19,236,351.19Z"/><path class="cls-10" d="M226.46,214.34s-6.89-15.71-16.2-10.05,5,16.23,12.66,14.13S226.46,214.34,226.46,214.34Z"/><path class="cls-10" d="M264,204.07s-2.07-17,8.83-16.9,4,16.5-3.71,18.6S264,204.07,264,204.07Z"/><path class="cls-8" d="M295.13,235.59s-17.75-31.91-28.1-33.49c-10.19-1.55-14.61.66-22.82,2.93s-13.09,2.55-21.07,9.07-7.07,43.12-7.07,43.12l37.21-19Z"/><circle class="cls-7" cx="229.85" cy="229.7" r="2.88" transform="translate(-52.49 68.84) rotate(-15.31)"/><circle class="cls-7" cx="267.87" cy="219.3" r="2.88" transform="translate(-48.4 78.51) rotate(-15.31)"/><path class="cls-11" d="M309.57,258.1a32.94,32.94,0,0,1-23.07,40.46l-31,8.49A32.94,32.94,0,0,1,215,284l-1.78-6.5A32.93,32.93,0,0,1,236.28,237l31-8.5a32.94,32.94,0,0,1,40.46,23.08Z"/><path class="cls-8" d="M230.06,270.6a17.19,17.19,0,0,1,5.28-9.06,5.39,5.39,0,1,0-5.28,9.06Z"/><path class="cls-8" d="M288.58,254.58a17.19,17.19,0,0,0-9.16-5.11,5.39,5.39,0,1,1,9.16,5.11Z"/><path class="cls-8" d="M134.14,250.64s12,22,6.65,53,2.66,35.88-.66,43.22-16.62,3.26-16.62,3.26l1.33-97.87Z"/><path class="cls-8" d="M63.48,242.07s-21.73,17.84-17.14,63.4c3.17,31.43-3,35.85.31,43.23s16.59,3.47,16.59,3.47l-.52-97.88Z"/><path class="cls-8" d="M119.51,321.7s-28.77,16.72-52.23,0L65,267.83,118,265Z"/><path
        class="cls-10"
        d="M56.37,348.06c-.66-24.47-22.51-65.24-1.24-109.28l38-15.76v-.55l.67.28.67-.28V223l37.79,15.76c21.27,44-.71,84.82-1.38,109.28,0,0,9.28,5.71,1.31,11.42s-21.69,2.71-23.28-1.63c-6-16.31,3.85-43,2.65-62.8-1.3-21.49-8.93-24.34-17.95-24.46-9,.12-16.65,3-17.95,24.46-1.2,19.81,8.64,46.49,2.66,62.8C76.72,362.18,63,365.19,55,359.48S56.37,348.06,56.37,348.06Z"/><path class="cls-8" d="M128.36,185.49s34.58-28.64,56.27,7.47-35.43,94.12-75.93,43.7Z"/><path class="cls-10" d="M126.39,190.84s25.87-21.43,42.09,5.59-26.5,70.41-56.81,32.69Z"/><path class="cls-8" d="M67.27,174.22s-24.91-37.36-56-9,6.92,100.33,60.2,63.65Z"/><path class="cls-10" d="M67.62,179.92S49,152,25.69,173.19s5.18,75.05,45,47.62Z"/><path
        class="cls-12"
        d="M95.18,159.23c-33.5,0-48.39,11.17-47.65,22.34s3.72,48.39,8.19,52.86,14.89,8.19,17.12,14.15.32,18.92-15.3,24.7c-13.29,4.92-21.81-8.7-22.37-18.63,1.16-5,5.52-26.68,5.17-26.7-2.55-.12-7.72,4.29-14.1,14.34-18.78,29.58,10.61,65,46,55.69,38.93-10.28,39.32-44.19,39.32-44.19s-3.72-3.72,12.66-12.66S138.36,212.83,140.6,186,116.77,159.23,95.18,159.23Z"/><circle class="cls-7" cx="122.27" cy="209.86" r="3.11"/><circle class="cls-7" cx="63.46" cy="209.86" r="3.11"/><path class="cls-4" d="M59.66,233S41,246.18,61,273.17c0,0-3.46-23.52,6.7-30.66C67.74,242.51,70.73,228.88,59.66,233Z"/><path class="cls-4" d="M126.81,240.47s15.44,16.83-9.92,38.91c0,0,8.4-22.24,0-31.38C116.89,248,116.88,234,126.81,240.47Z"/><path
        class="cls-13"
        d="M348,351.13c11.29-17.27,5.31-49.41,2.32-60.71L320,280.33l-30.35,10.15c-3,11.31-8.89,43.46,2.44,60.71,0,0-10.71,2.39-6.54,7.74s28.57,5.92,28.56-5.38-1.21-16.66,5.94-16.67,6,5.35,6,16.66,24.41,10.69,28.57,5.33S348,351.13,348,351.13Z"/><ellipse class="cls-4" cx="320.04" cy="313.66" rx="10.76" ry="13.09"/><path
        class="cls-14"
        d="M292.11,269.86a48.88,48.88,0,0,0-6.49,43.61c8.25,25.08,23.07,15.61,20.6,6.15s-6.64-20.38.71-28.38c2.84-3.09,6.18-4.46,10.67-4.83,21.8,0,24,14.05,33.82,14,13.24-.12,20.18-9.55,19.57-30.53-.23-7.9-4.91-11.57-10.12-11.13-4.71.4-7.78,4.95-7.78,11.29,0,2.52.67,6-1.67,6.68-4.36,1.25-8.12-5.45-10.35-7.68C336.62,264.55,292.11,269.86,292.11,269.86Z"/><path class="cls-15" d="M348.75,184.3s6.48-19,.83-24.3L331.1,140.72a8,8,0,0,0-11.32-.25h0a8,8,0,0,0-.24,11.33Z"/><path class="cls-15" d="M332.25,199.22A8,8,0,0,1,333.71,188h0a8,8,0,0,1,11.23,1.46l16.29,21.16a8,8,0,0,1-1.46,11.23h0a8,8,0,0,1-11.23-1.46Z"/><path class="cls-3" d="M26.21,329.31a2.88,2.88,0,0,1-3.38,2.26h0a2.88,2.88,0,0,1-2.26-3.38l45-225.64A2.88,2.88,0,0,1,69,100.29h0a2.88,2.88,0,0,1,2.26,3.38Z"/><path class="cls-3" d="M366.89,329.31a2.88,2.88,0,0,0,3.38,2.26h0a2.88,2.88,0,0,0,2.26-3.38l-45-225.64a2.88,2.88,0,0,0-3.38-2.26h0a2.88,2.88,0,0,0-2.26,3.38Z"/><path class="cls-16" d="M66.49,89l-10,57s153,26,282,0l-10-57S218.49,109,66.49,89Z"/>
      <text class="cls-17" transform="translate(83.16 138.33)">SMALL ZOO</text><path class="cls-18" d="M295.74,103a12.57,12.57,0,0,0,1.38,11c3.37,5,0,11,0,11l2.76-1,1.38,2s2.17-8.55,0-12c-3.77-6-1.38-11-1.38-11Z"/><path
        id="_Clipping_Path_4"
        data-name="&lt;Clipping Path&gt;"
        class="cls-2"
        d="M105.9,95.87s-26-6.57-35.56,4.24c-7.22,8.17,1.07,22,11,14.82,3.83-2.78-2.87-6.69-4.3-4.3,0,0,0-6.21,6.21-4.3s7.65,14.34-1.91,16.73-22.17-1.93-22.94-19.12C57.45,83,87.29,65.21,111.92,81.09a7.6,7.6,0,0,1,8.48-2.19c7.39,2.74,10.51,6.9,12.86,16.15C129.27,100.85,114.66,105.17,105.9,95.87Z"/>
      <g class="cls-19"><path class="cls-1" d="M64.84,82.45c1.09,4.11,3.28,4.65,7.12,6s3.28,3.83,3.28,3.83,1.09-6-2.46-8.48-3.56-7.12-3.56-7.12"/><path class="cls-1" d="M74.15,75.37c.2,4.24,2.23,5.24,5.69,7.39s2.4,4.44,2.4,4.44,2.34-5.66-.62-8.81-2-7.71-2-7.71"/><path class="cls-1" d="M86.72,72c-1,4.13.66,5.66,3.37,8.69s1.05,4.94,1.05,4.94S95,80.83,93,77s.28-8,.28-8"/><path class="cls-1" d="M100.32,72.13c-2.25,3.6-1.16,5.58.45,9.31s-.56,5-.56,5,5.15-3.31,4.52-7.59,2.77-7.46,2.77-7.46"/></g><circle class="cls-2" cx="117.94" cy="81.91" r="6.84"/><circle class="cls-7" cx="117.94" cy="81.91" r="2.85"/><path class="cls-20" d="M81.54,88.75s8.21,1.37,7.94,8.76c0,0,3.28-1.09,3.56,1.92s-5.47,1.09-5.47,1.09-.27,2.74-2.46,2.74-3.56-3-.55-4.93c0,0-.82-4.11-4.93-3.83"/><path class="cls-20" d="M99.73,88.62s7.89,2.67,6.43,9.92c0,0,3.42-.55,3.21,2.46s-5.58.2-5.58.2-.71,2.66-2.87,2.31-3-3.54.25-5c0,0-.15-4.18-4.25-4.57"/><path class="cls-2" d="M343.07,212.59s-15-13.35-12.71-20.73l9.7-41.68c7.68,3.67,14.69,13.13,12,21.81Z"/><path class="cls-2" d="M343.18,249.64c-4.29-1.09-3.23-6.76-2.14-11.05l11.71-39c7.34,4.34,11.46,12.77,10.37,17.06-2.58,7.2-6.59,17.88-2.58,23.22s19.58,1.78,16.46-10.24c0,0,7.12,4.9,2.67,16.47s-24.82,17.82-34.71,5.79"/><ellipse class="cls-2" cx="297.14" cy="90.16" rx="20.06" ry="16.85"/><circle class="cls-2" cx="281.91" cy="78.86" r="5.77"/><circle class="cls-7" cx="281.91" cy="78.86" r="2.42"/><circle class="cls-2" cx="305.66" cy="75.48" r="5.77" transform="translate(-8.93 88.13) rotate(-16.17)"/><circle class="cls-7" cx="305.66" cy="75.48" r="2.42" transform="translate(-8.93 88.14) rotate(-16.18)"/><path class="cls-15" d="M303.12,95.94a1.61,1.61,0,0,0,1.59,1.78,1.92,1.92,0,0,0,1.71-1.91A1.61,1.61,0,0,0,304.83,94,1.92,1.92,0,0,0,303.12,95.94Z"/><path class="cls-15" d="M298,97.55a1.61,1.61,0,0,1-.75,2.26A1.92,1.92,0,0,1,295,98.73a1.61,1.61,0,0,1,.75-2.26A1.92,1.92,0,0,1,298,97.55Z"/><path
        class="cls-13"
        d="M136,349.13c.69-7.79-1.73-14.23-8-18.95-5.59-4.2-12.61-7.16-15.65-13.92-1.95-4.33-3.23-13.81,1.94-16.72,2-1.15,5-1.34,6.42.71.88,1.28,1.52,4-.36,4.83-6.66,2.78-3.74,13.79,3,11a14.8,14.8,0,0,0,4.84-24.54c-7.64-7.67-21.38-4-26.16,5-5.14,9.7-2.69,22.65,4,30.89,3.48,4.26,8.09,7.27,12.67,10.22,4.87,3.14,6.4,5.48,5.87,11.51-.65,7.29,10.73,7.25,11.38,0Z"/><path class="cls-13" d="M175.93,348.79h-13.7a14.35,14.35,0,0,0-28.69.19c0,4.58,10,8.66,13.3,11.29h24.83c6.39,0,13.72-1.1,14.43-8.43s-1.18-15.37-6.62-8.52C176.12,347.55,175.93,348.79,175.93,348.79Z"/><path class="cls-21" d="M181,351.11h-13.7a14.35,14.35,0,0,0-28.69.19c0,4.58,10,8.66,13.3,11.29h24.83c6.39,0,13.72-1.1,14.43-8.43s-1.18-15.37-6.62-8.52C181.18,349.87,181,351.11,181,351.11Z"/><path class="cls-21" d="M168.07,324.73c-2.53-14.24-2.12-21.27-14.49-21.27h-.14A22.42,22.42,0,0,0,131.16,326v24.12c0,12.37,7.57,12.47,21.81,12.47s14.4-11.77,15.87-19.79S168.07,324.73,168.07,324.73Z"/><path class="cls-9" d="M145.52,359.1A42.08,42.08,0,0,0,143.66,347c-2-5.55-6.09-13.57-12.61-14.58v17.66c0,10,5,12,14.42,12.38A27.94,27.94,0,0,0,145.52,359.1Z"/><circle class="cls-21" cx="184.95" cy="280.98" r="7.8"/><circle class="cls-4" cx="184.95" cy="280.98" r="4.13"/><circle class="cls-21" cx="147.31" cy="280.98" r="7.8"/><circle class="cls-4" cx="147.31" cy="280.98" r="4.13"/><circle class="cls-21" cx="165.67" cy="295.21" r="22.03"/><rect class="cls-4" x="149.85" y="284.77" width="31.37" height="15.35" rx="7.34" ry="7.34"/><circle class="cls-4" cx="165.67" cy="303.93" r="10.25"/><circle class="cls-22" cx="169.74" cy="301.7" r="1.9"/><circle class="cls-22" cx="161.15" cy="301.7" r="1.9"/><circle class="cls-7" cx="174.7" cy="292.76" r="2.01"/><circle class="cls-7" cx="156.8" cy="292.76" r="2.01"/><path class="cls-23" d="M131.47,345.15s.51-7.33,4.43-12.45c4.45-5.81,12.6-9.56,16.8-10.56C152.7,322.15,126,320.47,131.47,345.15Z"/><path class="cls-21" d="M132.32,345.3c-2.74-7.09-1-10.35,1.8-14.56,2.57-3.84,12.69-6.28,18.58-8.59l-4.77-9.9c-.18.07-14.56,3.16-20.64,13.91-4,7.07-6.36,13-2.25,23,2,3.72,3.69,9,7.23,7.14s2-5.63,2-5.63,3,1,3.16-1.7S132.32,345.3,132.32,345.3Z"/><path class="cls-13" d="M284,233.43s-11.52-3.69-9.06-13.57,11.91-13.58,19.32-9.89S300,224.37,300,224.37Z"/><path class="cls-4" d="M287.71,228.29s-5-1.61-4-5.93,5.21-5.94,8.45-4.33,2.52,6.29,2.52,6.29Z"/><path class="cls-13" d="M353,233.37s11.51-3.71,9-13.58-11.94-13.56-19.34-9.85-5.75,14.4-5.75,14.4Z"/><path class="cls-4" d="M349.28,228.23s5-1.62,4-5.94-5.22-5.93-8.46-4.31-2.51,6.3-2.51,6.3Z"/><ellipse class="cls-13" cx="319.44" cy="246.96" rx="41.64" ry="33.62"/><circle class="cls-24" cx="298.84" cy="248.75" r="3.24" transform="translate(-0.25 0.3) rotate(-0.06)"/><ellipse class="cls-14" cx="319.39" cy="263.74" rx="13.09" ry="15.47"/><path class="cls-24" d="M326.34,262.89c0,2.72-3.31,7.91-7.39,7.92s-7.41-5.18-7.41-7.9,3.31-4.94,7.4-4.94S326.34,260.16,326.34,262.89Z"/><circle class="cls-24" cx="339.91" cy="248.71" r="3.24"/><path class="cls-12" d="M48.29,243.9a3.1,3.1,0,0,1-3.75,2.27h0a3.1,3.1,0,0,1-2.5-3.61l2.76-13.13a3.1,3.1,0,0,1,3.75-2.27h0a3.1,3.1,0,0,1,2.5,3.61Z"/><polygon class="cls-3" points="251.69 177.56 283.69 174.09 280.61 166.38 254.78 168.31 251.69 177.56"/><path class="cls-1" d="M250.54,156.75s14.65-3.47,25.83.39,12.34,17.35,11.57,21.2-3.08-1.93-8.1-4.63c-5.76-3.1-26.6,0-26.6,0Z"/><path class="cls-6" d="M278.58,158.09c-2.4,4.25-3,9.42-3.16,14.49a12.9,12.9,0,0,1,4.42,1.13c5,2.7,7.33,8.48,8.1,4.63C288.65,174.75,287.7,162.85,278.58,158.09Z"/><path class="cls-7" d="M230.14,186.07c.37-10.8,7.08-30.68,17.87-32,2.4-.3,6.79-.19,9.44,1.35,3.07,1.78,4.26,5.23,4.72,8.43,1.35,9.44-2.55,14.09-2,20.23,1,11.8-4.38,22.25-17.53,21.24S229.81,195.85,230.14,186.07Z"/><path class="cls-20" d="M249.76,203.87a3.52,3.52,0,0,1-.24.74c7.49-2.31,10.89-9.78,10.75-18.34C253.86,189.25,251.12,197.39,249.76,203.87Z"/><path class="cls-25" d="M244.64,159.1c-5.06,5.73-5.9,13.82-2.86,19.22,3.72,6.61,10.85,7.39,14.91,1.44,4.38-6.41,4.47-15.77.76-20C254.73,156.69,247.64,155.7,244.64,159.1Z"/><path class="cls-26" d="M256.59,171.39c-1.34,4.66-5,7.32-8.15,6s-4.64-6.25-3.3-10.91,5-7.32,8.15-5.95S257.93,166.73,256.59,171.39Z"/><circle class="cls-7" cx="250.97" cy="166.2" r="4.05" transform="matrix(0.21, -0.98, 0.98, 0.21, 34.99, 375.87)"/><path class="cls-6" d="M238.75,201.61c-3.08.13-5.94,2.42-4.84,6.16s4.84,2.42,5.06-1.32c0,0,0,4,3.08,3.3S244,201.39,238.75,201.61Z"/><path class="cls-6" d="M250.38,199.87c-3.08.13-5.94,2.42-4.84,6.16s4.84,2.42,5.06-1.32c0,0,0,4,3.08,3.3S255.66,199.65,250.38,199.87Z"/><path class="cls-26" d="M231.66,177.48c-2,2.53-8.09,18.71-3,35.14s4.55-3.54,6.83-9.1,4.55-7.59,3-14.41A24.89,24.89,0,0,0,231.66,177.48Z"/><path class="cls-20" d="M238.49,189.11a24.89,24.89,0,0,0-6.83-11.63,16.14,16.14,0,0,0-1.87,3.8c3.31,3.09,2.62,11.59,2.49,15-.19,5-.29,10.1-.44,15.15-.08,2.53,0,5,.13,7.5,1.68-.81,1.92-11.56,3.49-15.41C237.73,198,240,195.93,238.49,189.11Z"/></g>
  </g>
</svg>
