<svg xmlns="http://www.w3.org/2000/svg" viewBox="0 0 162 162"><defs><style>.cls-1{fill:#fc0;}</style></defs><title>Asset 1</title><g id="Layer_2" data-name="Layer 2"><g id="Layer_1-2" data-name="Layer 1"><polygon class="cls-1" points="81 162 95.54 147.46 66.46 147.46 81 162"/><polygon class="cls-1" points="81 0 66.46 14.54 95.54 14.54 81 0"/><polygon class="cls-1" points="138.28 138.28 138.28 117.72 117.72 138.28 138.28 138.28"/><polygon class="cls-1" points="23.72 23.72 23.72 44.28 44.28 23.72 23.72 23.72"/><polygon class="cls-1" points="162 81 147.46 66.46 147.46 95.54 162 81"/><polygon class="cls-1" points="0 81 14.54 95.54 14.54 66.46 0 81"/><polygon class="cls-1" points="138.28 23.72 117.72 23.72 138.28 44.28 138.28 23.72"/><polygon class="cls-1" points="23.72 138.28 44.28 138.28 23.72 117.72 23.72 138.28"/></g></g></svg>