<svg xmlns="http://www.w3.org/2000/svg" xmlns:xlink="http://www.w3.org/1999/xlink" viewBox="0 0 543.83 150.36"><defs><style>.cls-1{fill:none;}.cls-2{fill:#a1a5a5;}.cls-3,.cls-7{fill:#fff;}.cls-3{opacity:0.11;}.cls-4{fill:#f4f4f4;}.cls-5{fill:#2e2e2e;}.cls-6{clip-path:url(#clip-path);}.cls-8{fill:#9b9b9b;}</style><clipPath id="clip-path"><path class="cls-1" d="M541.73,6.19s-20.45,15.11-52.85,23c-15.07,3.69-72.75.56-78.46,16.39S390,77.5,351.08,79c-56.61,2.14-168.91-45.8-246,8.52,0,0,93.72-3.45,175.39,16,38.68,9.2,120.16,36.79,188,4.52C555.56,66.54,541.73,6.19,541.73,6.19Z"/></clipPath></defs><title>Asset 34</title><g id="Layer_2" data-name="Layer 2"><g id="Layer_1-2" data-name="Layer 1"><path class="cls-2" d="M538,1c-5-2.69-14.5.17-42.15,6.4S373,17,373,17C190.58-1.75,91.67,75.65,91.67,75.65,76.48,78,56.26,32.59,46.4,37.36,29.08,45.74.2,54.85.2,54.85s32.33,23,48,29.88c18.26,8,16.34,7.05,20.06,7.8.8.16-10.25-5.25-29,2.33-9.41,3.81-30.46,29.91-30.46,29.91s49.92-2.34,66.57-9.29c20.95-8.74,14.15-11.51,28.85-27.9,8.31-16.12,59.86,7.26,96.12-1.59,37.12-9.06,157.69,36.14,232.88,20.58C519.6,88.69,539.15,18.47,541.07,15.7S542.78,3.56,538,1Z"/><path class="cls-2" d="M365.23,16.32C189.13,2.28,91.67,75.65,91.67,75.65,76.48,78,57.33,36.61,46.4,37.36,26.56,38.73.2,54.85.2,54.85S43.65,85.24,59.49,88c9,1.58,10.43,3.4,14.34,5.7-9.33-1.7-29-3-37.3,1.44C23.61,102.1,8.79,124.78,8.79,124.78s51-5.11,68.28-10.39c14.13-4.32,27.15-26.8,27.15-26.8s62-1.46,96.12-1.59c14.18-.06,63,12.62,88.53,15.63C296.1,86.05,318.38,45.54,365.23,16.32Z"/><path class="cls-3" d="M541.07,15.7C543,12.94,542.78,3.56,538,1c-5-2.69-14.07,2.5-42.15,6.4C416.05,18.52,373,17,373,17c-69.89,9.7-76.87,69-84.1,84.6,7.87,1.06,16.13,2.22,24.65,3.36,12.72-14.49,36.43-15.45,63.68-22.1,24-5.85,69.18-9.91,119.74-5.41C530.24,50.84,539.76,17.59,541.07,15.7Z"/><path class="cls-3" d="M105.12,87.49c5.78-16,18-20.61,43.05-30.18,48.35-18.44,65.77-20.74,261.38-30.8C442.07,24.84,530.87,6,538,1c-5-2.69-14.5.17-42.15,6.4S373,17,373,17C293.17,8.81,194.7,22.63,141.51,48.58,94.56,71.49,91.67,75.65,91.67,75.65,76.48,78,57.35,37.74,46.4,37.36,28.16,36.72,0,54.5,0,54.5S36,82.44,63.51,91.24c-9.23-.79-11.63-.72-20.86,1.42C27.51,96.18,8.79,124.78,8.79,124.78s52.8-2.92,69.18-10.49C96.21,105.85,94.5,98.73,105.12,87.49Z"/><path class="cls-4" d="M541.93,6.57a228.78,228.78,0,0,1-57.57,23.18c-15.07,3.69-72.75.56-78.46,16.39s-22.67,35.25-59.33,33.34c-56.57-3-172.11-41.79-242,8.09,0,0,71.27-5.26,170.29,14.68C313.8,110.1,396.31,141,464,108.5,534,74.81,543.17,27.88,542.64,12.88A53,53,0,0,0,541.93,6.57Z"/><circle class="cls-5" cx="400.36" cy="41.81" r="4.63" transform="translate(228.37 405.76) rotate(-70.67)"/><g class="cls-6"><path class="cls-7" d="M543.83,8.28s-.13.79-.48,2.25c-.18.73-.4,1.62-.69,2.67s-.64,2.25-1.07,3.58c-.85,2.67-2,5.88-3.49,9.49Q537,29,535.59,32c-.94,2-2,4-3.11,6.17a139.92,139.92,0,0,1-8.06,13.31c-1.54,2.29-3.23,4.58-5,6.9-.89,1.15-1.78,2.31-2.73,3.45-.47.57-.94,1.15-1.42,1.72l-1.47,1.71c-.49.58-1,1.13-1.51,1.7s-1,1.14-1.54,1.7c-1,1.12-2.09,2.26-3.19,3.36-2.15,2.24-4.44,4.4-6.78,6.55a164.69,164.69,0,0,1-15,12,165.71,165.71,0,0,1-16.31,10.15q-4.17,2.29-8.38,4.28c-1.41.66-2.79,1.34-4.2,1.94s-2.78,1.25-4.18,1.81l-2.08.86c-.69.29-1.38.57-2.07.83-1.38.53-2.75,1.06-4.11,1.56l-4.06,1.41c-1.34.46-2.68.87-4,1.3-5.26,1.66-10.29,3-15,4.1-2.33.57-4.59,1-6.73,1.47-1.07.23-2.12.41-3.14.59l-3,.54c-1,.18-1.89.31-2.79.45l-2.6.4-1.22.18-1.18.15-2.19.28c-2.77.38-5,.55-6.45.71l-2.28.22,2.26-.41c1.47-.27,3.63-.64,6.37-1.19s6-1.25,9.83-2.09,8-1.93,12.6-3.23c1.14-.33,2.32-.65,3.5-1l3.61-1.12c1.23-.37,2.46-.79,3.72-1.2s2.54-.83,3.81-1.3c5.15-1.79,10.48-3.91,15.91-6.3,1.37-.58,2.71-1.24,4.08-1.86s2.72-1.31,4.09-2,2.72-1.39,4.09-2.11,2.72-1.47,4.08-2.22a176.73,176.73,0,0,0,15.94-10A175.26,175.26,0,0,0,498.57,76a168.33,168.33,0,0,0,13-12.83c2-2.19,3.86-4.43,5.67-6.63s3.51-4.42,5.1-6.62c.81-1.09,1.57-2.2,2.33-3.28s1.48-2.17,2.18-3.24c1.42-2.13,2.72-4.24,3.93-6.28,2.41-4.09,4.46-7.95,6.15-11.43s3-6.59,4-9.17,1.75-4.65,2.21-6.08S543.83,8.28,543.83,8.28Z"/><path class="cls-7" d="M519.76,10.55s-.13.76-.46,2.15c-.17.7-.38,1.56-.66,2.56s-.61,2.16-1,3.43c-.81,2.56-1.89,5.64-3.33,9.1q-1.08,2.59-2.41,5.46c-.9,1.9-1.89,3.88-3,5.91a133.66,133.66,0,0,1-7.72,12.76c-1.48,2.2-3.09,4.39-4.77,6.62-.85,1.1-1.71,2.22-2.62,3.31-.45.55-.9,1.11-1.37,1.65L491,65.14c-.47.55-1,1.09-1.44,1.63s-1,1.1-1.47,1.63c-1,1.07-2,2.17-3.06,3.22-2.06,2.15-4.26,4.22-6.5,6.28a157.62,157.62,0,0,1-14.38,11.51,158.57,158.57,0,0,1-15.64,9.73q-4,2.19-8,4.1c-1.35.63-2.68,1.28-4,1.86s-2.67,1.2-4,1.74l-2,.82c-.66.27-1.32.55-2,.8-1.32.51-2.63,1-3.94,1.49l-3.89,1.35c-1.28.44-2.57.83-3.82,1.24-5,1.59-9.86,2.9-14.36,3.92-2.24.55-4.4,1-6.45,1.41-1,.22-2,.39-3,.57l-2.85.51c-.92.17-1.81.29-2.68.43l-2.49.38-1.17.17-1.13.14-2.1.26c-2.65.36-4.75.52-6.18.67l-2.19.2,2.16-.4c1.41-.26,3.48-.62,6.1-1.15s5.79-1.2,9.42-2,7.68-1.86,12.07-3.11c1.1-.32,2.22-.62,3.36-1l3.46-1.08c1.18-.35,2.36-.76,3.56-1.16s2.43-.79,3.65-1.25c4.93-1.72,10-3.76,15.24-6,1.31-.55,2.6-1.18,3.91-1.79s2.61-1.26,3.92-1.9,2.61-1.34,3.91-2,2.6-1.41,3.91-2.12a169.59,169.59,0,0,0,15.27-9.62,168.19,168.19,0,0,0,14.14-11.18,161.57,161.57,0,0,0,12.43-12.28c1.91-2.1,3.7-4.24,5.44-6.34s3.37-4.23,4.89-6.34c.78-1,1.5-2.11,2.23-3.14s1.42-2.07,2.09-3.1c1.36-2,2.61-4.06,3.78-6,2.32-3.92,4.28-7.61,5.9-10.94S516,20.95,517,18.47s1.69-4.46,2.13-5.82S519.76,10.55,519.76,10.55Z"/><path class="cls-7" d="M502.1,9.44s-.13.76-.46,2.15c-.17.7-.38,1.56-.66,2.56s-.61,2.16-1,3.43c-.81,2.56-1.89,5.64-3.33,9.1q-1.08,2.59-2.41,5.46c-.9,1.9-1.89,3.88-3,5.91a133.66,133.66,0,0,1-7.72,12.76c-1.48,2.2-3.09,4.39-4.77,6.62-.85,1.1-1.71,2.22-2.62,3.31-.45.55-.9,1.11-1.37,1.65L473.39,64c-.47.55-1,1.09-1.44,1.63s-1,1.1-1.47,1.63c-1,1.07-2,2.17-3.06,3.22-2.06,2.15-4.26,4.22-6.5,6.28a157.61,157.61,0,0,1-14.38,11.51A158.58,158.58,0,0,1,430.9,98q-4,2.19-8,4.1c-1.35.63-2.68,1.28-4,1.86s-2.67,1.2-4,1.74l-2,.82c-.66.27-1.32.55-2,.8-1.32.51-2.63,1-3.94,1.49L403,110.2c-1.28.44-2.57.83-3.82,1.24-5,1.59-9.86,2.9-14.36,3.92-2.24.55-4.4,1-6.45,1.41-1,.22-2,.39-3,.57l-2.85.51c-.92.17-1.81.29-2.68.43l-2.49.38-1.17.17-1.13.14-2.1.26c-2.65.36-4.75.52-6.18.67l-2.19.2,2.16-.4c1.41-.26,3.48-.62,6.1-1.15s5.79-1.2,9.42-2,7.68-1.86,12.07-3.11c1.1-.32,2.22-.62,3.36-1l3.46-1.08c1.18-.35,2.36-.76,3.56-1.16s2.43-.79,3.65-1.25c4.93-1.72,10-3.76,15.24-6,1.31-.55,2.6-1.18,3.91-1.79s2.61-1.26,3.92-1.9,2.61-1.34,3.91-2,2.6-1.41,3.91-2.12a169.63,169.63,0,0,0,15.27-9.62A168.21,168.21,0,0,0,458.68,74.3,161.57,161.57,0,0,0,471.11,62c1.91-2.1,3.7-4.24,5.44-6.34s3.37-4.23,4.89-6.34c.78-1,1.5-2.11,2.23-3.14s1.42-2.07,2.09-3.1c1.36-2,2.61-4.06,3.78-6,2.32-3.92,4.28-7.61,5.9-10.94s2.91-6.31,3.89-8.79,1.69-4.46,2.13-5.82S502.1,9.44,502.1,9.44Z"/><path class="cls-7" d="M482.73,8.21s-.13.76-.46,2.15c-.17.7-.38,1.56-.66,2.56s-.61,2.16-1,3.43c-.81,2.56-1.89,5.64-3.33,9.1q-1.08,2.59-2.41,5.46c-.9,1.9-1.89,3.88-3,5.91a133.62,133.62,0,0,1-7.72,12.76c-1.48,2.2-3.09,4.39-4.77,6.62-.85,1.1-1.71,2.22-2.62,3.31-.45.55-.9,1.11-1.37,1.65L454,62.8c-.47.55-1,1.09-1.44,1.63s-1,1.1-1.47,1.63c-1,1.07-2,2.17-3.06,3.22-2.06,2.15-4.26,4.22-6.5,6.28a157.65,157.65,0,0,1-14.39,11.51,158.59,158.59,0,0,1-15.64,9.73q-4,2.19-8,4.1c-1.35.63-2.68,1.28-4,1.86s-2.67,1.2-4,1.74l-2,.82c-.66.27-1.32.55-2,.8-1.32.51-2.63,1-3.94,1.49L383.65,109c-1.28.44-2.57.83-3.82,1.24-5,1.59-9.86,2.9-14.36,3.92-2.24.55-4.4,1-6.45,1.41-1,.22-2,.39-3,.57l-2.85.51c-.92.17-1.81.29-2.68.43l-2.49.38-1.17.17-1.13.14-2.1.26c-2.65.36-4.76.52-6.18.67l-2.19.2,2.16-.4c1.41-.26,3.48-.62,6.1-1.15s5.79-1.2,9.42-2,7.68-1.86,12.07-3.11c1.1-.32,2.22-.62,3.36-1l3.46-1.08c1.18-.35,2.36-.76,3.56-1.16s2.43-.79,3.65-1.25c4.93-1.72,10-3.76,15.24-6,1.31-.55,2.6-1.18,3.91-1.79s2.61-1.26,3.92-1.9,2.61-1.34,3.91-2,2.6-1.41,3.91-2.12a169.59,169.59,0,0,0,15.27-9.62A168.19,168.19,0,0,0,439.3,73.07a161.57,161.57,0,0,0,12.43-12.28c1.91-2.1,3.7-4.24,5.44-6.34s3.37-4.23,4.89-6.34c.78-1,1.5-2.11,2.24-3.14s1.42-2.07,2.09-3.1c1.36-2,2.61-4.06,3.78-6,2.32-3.92,4.28-7.61,5.9-10.94S479,18.6,480,16.12s1.69-4.46,2.13-5.82S482.73,8.21,482.73,8.21Z"/><path class="cls-7" d="M463.2,7s-.13.76-.46,2.15c-.17.7-.38,1.56-.66,2.56s-.61,2.16-1,3.43c-.81,2.56-1.89,5.64-3.33,9.1q-1.08,2.59-2.41,5.46c-.9,1.9-1.89,3.88-3,5.91a133.64,133.64,0,0,1-7.72,12.76c-1.48,2.2-3.09,4.39-4.77,6.62-.85,1.1-1.71,2.22-2.62,3.31-.45.55-.9,1.11-1.37,1.65l-1.41,1.64c-.47.55-1,1.09-1.44,1.63s-1,1.1-1.47,1.63c-1,1.07-2,2.17-3.06,3.22-2.06,2.15-4.26,4.22-6.5,6.28a157.61,157.61,0,0,1-14.38,11.51A158.57,158.57,0,0,1,392,95.57q-4,2.19-8,4.1c-1.35.63-2.68,1.28-4,1.86s-2.67,1.2-4,1.74l-2,.82c-.66.27-1.32.55-2,.8-1.32.51-2.63,1-3.94,1.49l-3.89,1.35c-1.28.44-2.57.83-3.82,1.24-5,1.59-9.86,2.9-14.36,3.92-2.24.55-4.4,1-6.45,1.41-1,.22-2,.39-3,.57l-2.85.51c-.92.17-1.81.29-2.68.43l-2.49.38-1.17.17-1.13.14-2.1.26c-2.65.36-4.76.52-6.18.67l-2.19.2,2.16-.4c1.41-.26,3.48-.62,6.1-1.15s5.79-1.2,9.42-2,7.68-1.86,12.07-3.11c1.1-.32,2.22-.62,3.36-1l3.46-1.08c1.18-.35,2.36-.76,3.56-1.16s2.43-.79,3.65-1.25c4.93-1.72,10-3.76,15.24-6,1.31-.55,2.6-1.18,3.91-1.79s2.61-1.26,3.92-1.9,2.61-1.34,3.91-2,2.6-1.41,3.91-2.12A169.63,169.63,0,0,0,405.63,83a168.19,168.19,0,0,0,14.14-11.18A161.59,161.59,0,0,0,432.2,59.54c1.91-2.1,3.7-4.24,5.44-6.34S441,49,442.53,46.86c.78-1,1.5-2.11,2.23-3.14s1.42-2.07,2.09-3.1c1.36-2,2.61-4.06,3.78-6,2.32-3.92,4.28-7.61,5.9-10.94s2.91-6.31,3.89-8.79,1.69-4.46,2.13-5.82S463.2,7,463.2,7Z"/><path class="cls-7" d="M443,5.68s-.13.76-.46,2.15c-.17.7-.38,1.56-.66,2.56s-.61,2.16-1,3.43c-.81,2.56-1.89,5.64-3.33,9.1q-1.08,2.59-2.41,5.46c-.9,1.9-1.89,3.88-3,5.91a133.65,133.65,0,0,1-7.72,12.76c-1.48,2.2-3.09,4.39-4.77,6.62-.85,1.1-1.71,2.22-2.62,3.31-.45.55-.9,1.11-1.37,1.65l-1.41,1.64c-.47.55-1,1.09-1.44,1.63s-1,1.1-1.47,1.63c-1,1.07-2,2.17-3.06,3.22-2.06,2.15-4.26,4.22-6.5,6.28a157.63,157.63,0,0,1-14.39,11.51,158.57,158.57,0,0,1-15.64,9.73q-4,2.19-8,4.1c-1.35.63-2.68,1.28-4,1.86s-2.67,1.2-4,1.74l-2,.82c-.66.27-1.32.55-2,.8-1.32.51-2.63,1-3.94,1.49l-3.89,1.35c-1.28.44-2.57.83-3.82,1.24-5,1.59-9.86,2.9-14.36,3.92-2.24.55-4.4,1-6.45,1.41-1,.22-2,.39-3,.57l-2.85.51c-.92.17-1.81.29-2.68.43l-2.49.38-1.17.17-1.13.14-2.1.26c-2.65.36-4.75.52-6.18.67l-2.19.2,2.16-.4c1.41-.26,3.48-.62,6.1-1.15s5.79-1.2,9.42-2,7.68-1.86,12.07-3.11c1.1-.32,2.22-.62,3.36-1l3.46-1.08c1.18-.35,2.36-.76,3.56-1.16s2.43-.79,3.65-1.25c4.93-1.72,10-3.76,15.24-6,1.31-.55,2.6-1.18,3.91-1.79s2.61-1.26,3.92-1.9,2.61-1.34,3.91-2,2.6-1.41,3.91-2.12a169.62,169.62,0,0,0,15.27-9.62A168.21,168.21,0,0,0,399.6,70.54,161.56,161.56,0,0,0,412,58.26c1.91-2.1,3.7-4.24,5.44-6.34s3.37-4.23,4.89-6.34c.78-1,1.5-2.11,2.23-3.14s1.42-2.07,2.09-3.1c1.36-2,2.61-4.06,3.78-6,2.32-3.92,4.28-7.61,5.9-10.94s2.91-6.31,3.89-8.79,1.69-4.46,2.13-5.82S443,5.68,443,5.68Z"/><path class="cls-7" d="M421.91,4.42s-.12.76-.46,2.15c-.17.7-.38,1.56-.66,2.56s-.61,2.16-1,3.43c-.81,2.56-1.89,5.64-3.33,9.1q-1.08,2.59-2.41,5.46c-.9,1.9-1.89,3.88-3,5.91a133.67,133.67,0,0,1-7.72,12.76c-1.48,2.2-3.09,4.39-4.77,6.62-.85,1.1-1.71,2.22-2.62,3.31-.45.55-.9,1.11-1.37,1.65L393.2,59c-.47.55-1,1.09-1.44,1.63s-1,1.1-1.47,1.63c-1,1.07-2,2.17-3.06,3.22-2.06,2.15-4.26,4.22-6.5,6.28A157.61,157.61,0,0,1,366.34,83.3,158.59,158.59,0,0,1,350.71,93q-4,2.19-8,4.1c-1.35.63-2.68,1.28-4,1.86s-2.67,1.2-4,1.74l-2,.82c-.66.27-1.32.55-2,.8-1.32.51-2.63,1-3.94,1.49l-3.89,1.35c-1.28.44-2.57.83-3.82,1.24-5,1.59-9.86,2.9-14.36,3.92-2.24.55-4.4,1-6.45,1.41-1,.22-2,.39-3,.57l-2.85.51c-.92.17-1.81.29-2.68.43l-2.49.38-1.17.17-1.13.14-2.1.26c-2.65.36-4.75.52-6.18.67l-2.19.2,2.16-.4c1.41-.26,3.48-.62,6.1-1.15s5.79-1.2,9.42-2,7.68-1.86,12.07-3.11c1.1-.32,2.22-.62,3.36-1l3.46-1.08c1.18-.35,2.36-.76,3.56-1.16s2.43-.79,3.65-1.25c4.93-1.72,10-3.76,15.24-6,1.31-.55,2.6-1.18,3.91-1.79s2.61-1.26,3.92-1.9,2.61-1.34,3.91-2,2.6-1.41,3.91-2.12a169.61,169.61,0,0,0,15.27-9.62,168.17,168.17,0,0,0,14.14-11.18A161.57,161.57,0,0,0,390.91,57c1.91-2.1,3.7-4.24,5.44-6.34s3.37-4.23,4.89-6.34c.78-1,1.5-2.11,2.23-3.14s1.42-2.07,2.09-3.1c1.36-2,2.61-4.06,3.78-6,2.32-3.92,4.28-7.61,5.9-10.94s2.91-6.31,3.89-8.79,1.69-4.46,2.13-5.82S421.91,4.42,421.91,4.42Z"/><path class="cls-7" d="M400.22,3s-.13.76-.46,2.15c-.17.7-.38,1.56-.66,2.56s-.61,2.16-1,3.43c-.81,2.56-1.89,5.64-3.33,9.1q-1.08,2.59-2.41,5.46c-.9,1.9-1.89,3.88-3,5.91a133.66,133.66,0,0,1-7.72,12.76c-1.48,2.2-3.09,4.39-4.77,6.62-.85,1.1-1.71,2.22-2.62,3.31-.45.55-.9,1.11-1.37,1.65l-1.41,1.64c-.47.55-1,1.09-1.44,1.63s-1,1.1-1.47,1.63c-1,1.07-2,2.17-3.06,3.22-2.06,2.15-4.26,4.22-6.5,6.28a157.61,157.61,0,0,1-14.39,11.51A158.57,158.57,0,0,1,329,91.64q-4,2.19-8,4.1c-1.35.63-2.68,1.28-4,1.86s-2.67,1.2-4,1.74l-2,.82c-.66.27-1.32.55-2,.8-1.32.51-2.63,1-3.94,1.49l-3.89,1.35c-1.28.44-2.57.83-3.82,1.24-5,1.59-9.86,2.9-14.36,3.92-2.24.55-4.4,1-6.45,1.41-1,.22-2,.39-3,.57l-2.85.51c-.92.17-1.81.29-2.68.43l-2.49.38-1.17.17-1.13.14-2.1.26c-2.65.36-32.74-12.79-34.17-12.64l-2.19.2,2.16-.4c1.41-.26,31.47,12.7,34.09,12.16s5.79-1.2,9.42-2,7.68-1.86,12.07-3.11c1.1-.32,2.22-.62,3.36-1l3.46-1.08c1.18-.35,2.36-.76,3.56-1.16s2.43-.79,3.65-1.25c4.93-1.72,10-3.76,15.24-6,1.31-.55,2.6-1.18,3.91-1.79s2.61-1.26,3.92-1.9,2.61-1.34,3.91-2,2.6-1.41,3.91-2.12a169.61,169.61,0,0,0,15.27-9.62A168.18,168.18,0,0,0,356.8,67.89a161.59,161.59,0,0,0,12.43-12.28c1.91-2.1,3.7-4.24,5.44-6.34S378,45,379.55,42.93c.78-1,1.5-2.11,2.23-3.14s1.42-2.07,2.09-3.1c1.36-2,2.61-4.06,3.78-6,2.32-3.92,4.28-7.61,5.9-10.94s2.91-6.31,3.89-8.79,1.69-4.46,2.13-5.82S400.22,3,400.22,3Z"/><path class="cls-7" d="M387.8,6.05s-.17.75-.57,2.12c-.2.69-.46,1.54-.79,2.52s-.72,2.12-1.2,3.37c-.95,2.51-2.19,5.53-3.82,8.9q-1.21,2.53-2.7,5.32c-1,1.85-2.09,3.77-3.29,5.75A133.65,133.65,0,0,1,367,46.37c-1.6,2.12-3.32,4.22-5.12,6.35-.91,1.05-1.82,2.12-2.79,3.16-.48.52-1,1.06-1.45,1.57L356.18,59c-.49.53-1,1-1.53,1.55s-1,1-1.56,1.55c-1.06,1-2.12,2.05-3.22,3.05-2.18,2-4.48,4-6.83,5.92a157.61,157.61,0,0,1-15,10.72,158.57,158.57,0,0,1-16.14,8.87q-4.11,2-8.25,3.66c-1.38.56-2.74,1.13-4.12,1.64s-2.73,1.06-4.1,1.52l-2,.71c-.68.24-1.35.48-2,.69-1.35.44-2.68.87-4,1.27l-4,1.14c-1.31.37-2.61.69-3.88,1-5.12,1.31-10,2.36-14.55,3.14-2.26.43-32.44-12.57-34.51-12.25-1,.16-2.05.28-3,.4l-2.87.36c-.93.12-1.83.19-2.7.29l-2.51.25-1.18.11-1.13.08-2.11.15c-2.67.22-4.78.26-6.21.34l-2.2.09,2.18-.28c1.42-.18,3.51-.43,6.15-.82s5.85-.89,9.51-1.5,35.76,11.86,40.21,10.86c1.11-.26,2.25-.5,3.4-.78l3.51-.89c1.19-.29,2.4-.64,3.62-1s2.47-.66,3.72-1c5-1.45,10.23-3.21,15.54-5.22,1.34-.48,2.66-1,4-1.57s2.67-1.12,4-1.69,2.68-1.19,4-1.81,2.68-1.26,4-1.91a169.62,169.62,0,0,0,15.76-8.78,168.22,168.22,0,0,0,14.73-10.41A161.57,161.57,0,0,0,354,56.88c2-2,3.92-4,5.77-6s3.59-4,5.23-6.07c.84-1,1.61-2,2.4-3s1.53-2,2.25-3c1.47-2,2.82-3.91,4.09-5.8,2.52-3.79,4.69-7.37,6.49-10.61s3.24-6.14,4.36-8.56,1.93-4.36,2.44-5.7S387.8,6.05,387.8,6.05Z"/><path class="cls-7" d="M259.95,99.38c.63-.12,3.68-.89,4.32-1l1.93-.44c1.3-.3,2.62-.6,3.95-.93l4-1.1c1.35-.36,2.7-.78,4-1.22l2-.65,1-.33,1-.36,4-1.46c.67-.24,1.32-.52,2-.78l2-.8c.65-.27,1.3-.52,1.93-.8l1.88-.86c1.24-.58,2.49-1.1,3.68-1.72s2.36-1.18,3.5-1.77,2.23-1.22,3.29-1.81l1.57-.89,1.5-.91c1-.6,1.93-1.17,2.83-1.74l2.54-1.7c.8-.54,1.57-1,2.26-1.57s1.35-1,2-1.43,1.15-.85,1.63-1.24c1-.76,1.72-1.39,2.23-1.81l.78-.65-.89.49c-.58.32-1.44.78-2.51,1.4-.53.31-1.14.63-1.79,1s-1.36.73-2.11,1.14c-.38.2-.76.42-1.16.63l-1.25.64L309.36,78l-2.94,1.45-1.54.77-1.61.75c-1.09.5-2.2,1-3.35,1.56s-2.33,1-3.53,1.55l-.9.4-.92.38-1.86.76-1.88.77c-.63.26-1.27.49-1.91.74L285,88.64,281.1,90l-1,.36-1,.33-2,.65-2,.66c-.65.23-1.32.41-2,.61l-3.91,1.19-3.84,1.08-1.88.53c-.31.09-.62.17-.93.24l-.92.24-3.58.93-4.7,1.43A57.87,57.87,0,0,0,259.95,99.38Z"/></g><path class="cls-8" d="M336.24,65.69S359.06,78,362.38,88.23s22.11,56.47,17.17,61.52-35.1-23.09-39.29-29.25,1.74-18.75-5.1-36S331,62.59,336.24,65.69Z"/></g></g></svg>